<svg width="1363" height="167" viewBox="0 0 1363 167" fill="none" xmlns="http://www.w3.org/2000/svg">
<g style="mix-blend-mode:exclusion">
<rect width="1363" height="167" rx="15" fill="white" fill-opacity="0.05"/>
</g>
<g style="mix-blend-mode:exclusion">
<path d="M0 15C0 6.71573 6.71573 0 15 0H37V167H15C6.71573 167 0 160.284 0 152V15Z" fill="white" fill-opacity="0.25"/>
</g>
<g style="mix-blend-mode:exclusion">
<path d="M95.1289 40.9375H98.1055L102.488 53.4648L106.871 40.9375H109.848L103.684 58H101.293L95.1289 40.9375ZM93.5234 40.9375H96.4883L97.0273 53.1484V58H93.5234V40.9375ZM108.488 40.9375H111.465V58H107.949V53.1484L108.488 40.9375ZM113.797 51.7891V51.543C113.797 50.6133 113.93 49.7578 114.195 48.9766C114.461 48.1875 114.848 47.5039 115.355 46.9258C115.863 46.3477 116.488 45.8984 117.23 45.5781C117.973 45.25 118.824 45.0859 119.785 45.0859C120.746 45.0859 121.602 45.25 122.352 45.5781C123.102 45.8984 123.73 46.3477 124.238 46.9258C124.754 47.5039 125.145 48.1875 125.41 48.9766C125.676 49.7578 125.809 50.6133 125.809 51.543V51.7891C125.809 52.7109 125.676 53.5664 125.41 54.3555C125.145 55.1367 124.754 55.8203 124.238 56.4062C123.73 56.9844 123.105 57.4336 122.363 57.7539C121.621 58.0742 120.77 58.2344 119.809 58.2344C118.848 58.2344 117.992 58.0742 117.242 57.7539C116.5 57.4336 115.871 56.9844 115.355 56.4062C114.848 55.8203 114.461 55.1367 114.195 54.3555C113.93 53.5664 113.797 52.7109 113.797 51.7891ZM117.172 51.543V51.7891C117.172 52.3203 117.219 52.8164 117.312 53.2773C117.406 53.7383 117.555 54.1445 117.758 54.4961C117.969 54.8398 118.242 55.1094 118.578 55.3047C118.914 55.5 119.324 55.5977 119.809 55.5977C120.277 55.5977 120.68 55.5 121.016 55.3047C121.352 55.1094 121.621 54.8398 121.824 54.4961C122.027 54.1445 122.176 53.7383 122.27 53.2773C122.371 52.8164 122.422 52.3203 122.422 51.7891V51.543C122.422 51.0273 122.371 50.543 122.27 50.0898C122.176 49.6289 122.023 49.2227 121.812 48.8711C121.609 48.5117 121.34 48.2305 121.004 48.0273C120.668 47.8242 120.262 47.7227 119.785 47.7227C119.309 47.7227 118.902 47.8242 118.566 48.0273C118.238 48.2305 117.969 48.5117 117.758 48.8711C117.555 49.2227 117.406 49.6289 117.312 50.0898C117.219 50.543 117.172 51.0273 117.172 51.543ZM131.188 48.0273V58H127.812V45.3203H130.977L131.188 48.0273ZM130.695 51.2148H129.781C129.781 50.2773 129.902 49.4336 130.145 48.6836C130.387 47.9258 130.727 47.2812 131.164 46.75C131.602 46.2109 132.121 45.8008 132.723 45.5195C133.332 45.2305 134.012 45.0859 134.762 45.0859C135.355 45.0859 135.898 45.1719 136.391 45.3438C136.883 45.5156 137.305 45.7891 137.656 46.1641C138.016 46.5391 138.289 47.0352 138.477 47.6523C138.672 48.2695 138.77 49.0234 138.77 49.9141V58H135.371V49.9023C135.371 49.3398 135.293 48.9023 135.137 48.5898C134.98 48.2773 134.75 48.0586 134.445 47.9336C134.148 47.8008 133.781 47.7344 133.344 47.7344C132.891 47.7344 132.496 47.8242 132.16 48.0039C131.832 48.1836 131.559 48.4336 131.34 48.7539C131.129 49.0664 130.969 49.4336 130.859 49.8555C130.75 50.2773 130.695 50.7305 130.695 51.2148ZM147.172 58.2344C146.188 58.2344 145.305 58.0781 144.523 57.7656C143.742 57.4453 143.078 57.0039 142.531 56.4414C141.992 55.8789 141.578 55.2266 141.289 54.4844C141 53.7344 140.855 52.9375 140.855 52.0938V51.625C140.855 50.6641 140.992 49.7852 141.266 48.9883C141.539 48.1914 141.93 47.5 142.438 46.9141C142.953 46.3281 143.578 45.8789 144.312 45.5664C145.047 45.2461 145.875 45.0859 146.797 45.0859C147.695 45.0859 148.492 45.2344 149.188 45.5312C149.883 45.8281 150.465 46.25 150.934 46.7969C151.41 47.3438 151.77 48 152.012 48.7656C152.254 49.5234 152.375 50.3672 152.375 51.2969V52.7031H142.297V50.4531H149.059V50.1953C149.059 49.7266 148.973 49.3086 148.801 48.9414C148.637 48.5664 148.387 48.2695 148.051 48.0508C147.715 47.832 147.285 47.7227 146.762 47.7227C146.316 47.7227 145.934 47.8203 145.613 48.0156C145.293 48.2109 145.031 48.4844 144.828 48.8359C144.633 49.1875 144.484 49.6016 144.383 50.0781C144.289 50.5469 144.242 51.0625 144.242 51.625V52.0938C144.242 52.6016 144.312 53.0703 144.453 53.5C144.602 53.9297 144.809 54.3008 145.074 54.6133C145.348 54.9258 145.676 55.168 146.059 55.3398C146.449 55.5117 146.891 55.5977 147.383 55.5977C147.992 55.5977 148.559 55.4805 149.082 55.2461C149.613 55.0039 150.07 54.6406 150.453 54.1562L152.094 55.9375C151.828 56.3203 151.465 56.6875 151.004 57.0391C150.551 57.3906 150.004 57.6797 149.363 57.9062C148.723 58.125 147.992 58.2344 147.172 58.2344ZM157.895 56.5703L161.258 45.3203H164.879L159.781 59.9102C159.672 60.2305 159.523 60.5742 159.336 60.9414C159.156 61.3086 158.91 61.6562 158.598 61.9844C158.293 62.3203 157.906 62.5938 157.438 62.8047C156.977 63.0156 156.41 63.1211 155.738 63.1211C155.418 63.1211 155.156 63.1016 154.953 63.0625C154.75 63.0234 154.508 62.9688 154.227 62.8984V60.4258C154.312 60.4258 154.402 60.4258 154.496 60.4258C154.59 60.4336 154.68 60.4375 154.766 60.4375C155.211 60.4375 155.574 60.3867 155.855 60.2852C156.137 60.1836 156.363 60.0273 156.535 59.8164C156.707 59.6133 156.844 59.3477 156.945 59.0195L157.895 56.5703ZM156.488 45.3203L159.242 54.5078L159.723 58.082L157.426 58.3281L152.867 45.3203H156.488ZM183.793 47.8867V50.6289H174.887V47.8867H183.793ZM175.93 40.9375V58H172.414V40.9375H175.93ZM186.301 40.9375V58H182.797V40.9375H186.301ZM188.609 51.7891V51.543C188.609 50.6133 188.742 49.7578 189.008 48.9766C189.273 48.1875 189.66 47.5039 190.168 46.9258C190.676 46.3477 191.301 45.8984 192.043 45.5781C192.785 45.25 193.637 45.0859 194.598 45.0859C195.559 45.0859 196.414 45.25 197.164 45.5781C197.914 45.8984 198.543 46.3477 199.051 46.9258C199.566 47.5039 199.957 48.1875 200.223 48.9766C200.488 49.7578 200.621 50.6133 200.621 51.543V51.7891C200.621 52.7109 200.488 53.5664 200.223 54.3555C199.957 55.1367 199.566 55.8203 199.051 56.4062C198.543 56.9844 197.918 57.4336 197.176 57.7539C196.434 58.0742 195.582 58.2344 194.621 58.2344C193.66 58.2344 192.805 58.0742 192.055 57.7539C191.312 57.4336 190.684 56.9844 190.168 56.4062C189.66 55.8203 189.273 55.1367 189.008 54.3555C188.742 53.5664 188.609 52.7109 188.609 51.7891ZM191.984 51.543V51.7891C191.984 52.3203 192.031 52.8164 192.125 53.2773C192.219 53.7383 192.367 54.1445 192.57 54.4961C192.781 54.8398 193.055 55.1094 193.391 55.3047C193.727 55.5 194.137 55.5977 194.621 55.5977C195.09 55.5977 195.492 55.5 195.828 55.3047C196.164 55.1094 196.434 54.8398 196.637 54.4961C196.84 54.1445 196.988 53.7383 197.082 53.2773C197.184 52.8164 197.234 52.3203 197.234 51.7891V51.543C197.234 51.0273 197.184 50.543 197.082 50.0898C196.988 49.6289 196.836 49.2227 196.625 48.8711C196.422 48.5117 196.152 48.2305 195.816 48.0273C195.48 47.8242 195.074 47.7227 194.598 47.7227C194.121 47.7227 193.715 47.8242 193.379 48.0273C193.051 48.2305 192.781 48.5117 192.57 48.8711C192.367 49.2227 192.219 49.6289 192.125 50.0898C192.031 50.543 191.984 51.0273 191.984 51.543ZM210.195 54.9648V45.3203H213.57V58H210.395L210.195 54.9648ZM210.57 52.3633L211.566 52.3398C211.566 53.1836 211.469 53.9688 211.273 54.6953C211.078 55.4141 210.785 56.0391 210.395 56.5703C210.004 57.0938 209.512 57.5039 208.918 57.8008C208.324 58.0898 207.625 58.2344 206.82 58.2344C206.203 58.2344 205.633 58.1484 205.109 57.9766C204.594 57.7969 204.148 57.5195 203.773 57.1445C203.406 56.7617 203.117 56.2734 202.906 55.6797C202.703 55.0781 202.602 54.3555 202.602 53.5117V45.3203H205.977V53.5352C205.977 53.9102 206.02 54.2266 206.105 54.4844C206.199 54.7422 206.328 54.9531 206.492 55.1172C206.656 55.2812 206.848 55.3984 207.066 55.4688C207.293 55.5391 207.543 55.5742 207.816 55.5742C208.512 55.5742 209.059 55.4336 209.457 55.1523C209.863 54.8711 210.148 54.4883 210.312 54.0039C210.484 53.5117 210.57 52.9648 210.57 52.3633ZM219.453 48.0273V58H216.078V45.3203H219.242L219.453 48.0273ZM218.961 51.2148H218.047C218.047 50.2773 218.168 49.4336 218.41 48.6836C218.652 47.9258 218.992 47.2812 219.43 46.75C219.867 46.2109 220.387 45.8008 220.988 45.5195C221.598 45.2305 222.277 45.0859 223.027 45.0859C223.621 45.0859 224.164 45.1719 224.656 45.3438C225.148 45.5156 225.57 45.7891 225.922 46.1641C226.281 46.5391 226.555 47.0352 226.742 47.6523C226.938 48.2695 227.035 49.0234 227.035 49.9141V58H223.637V49.9023C223.637 49.3398 223.559 48.9023 223.402 48.5898C223.246 48.2773 223.016 48.0586 222.711 47.9336C222.414 47.8008 222.047 47.7344 221.609 47.7344C221.156 47.7344 220.762 47.8242 220.426 48.0039C220.098 48.1836 219.824 48.4336 219.605 48.7539C219.395 49.0664 219.234 49.4336 219.125 49.8555C219.016 50.2773 218.961 50.7305 218.961 51.2148ZM237.09 55.2344V40H240.488V58H237.43L237.09 55.2344ZM229.074 51.8125V51.5664C229.074 50.5977 229.184 49.7188 229.402 48.9297C229.621 48.1328 229.941 47.4492 230.363 46.8789C230.785 46.3086 231.305 45.8672 231.922 45.5547C232.539 45.2422 233.242 45.0859 234.031 45.0859C234.773 45.0859 235.422 45.2422 235.977 45.5547C236.539 45.8672 237.016 46.3125 237.406 46.8906C237.805 47.4609 238.125 48.1367 238.367 48.918C238.609 49.6914 238.785 50.5391 238.895 51.4609V52C238.785 52.8828 238.609 53.7031 238.367 54.4609C238.125 55.2188 237.805 55.8828 237.406 56.4531C237.016 57.0156 236.539 57.4531 235.977 57.7656C235.414 58.0781 234.758 58.2344 234.008 58.2344C233.219 58.2344 232.516 58.0742 231.898 57.7539C231.289 57.4336 230.773 56.9844 230.352 56.4062C229.938 55.8281 229.621 55.1484 229.402 54.3672C229.184 53.5859 229.074 52.7344 229.074 51.8125ZM232.449 51.5664V51.8125C232.449 52.3359 232.488 52.8242 232.566 53.2773C232.652 53.7305 232.789 54.1328 232.977 54.4844C233.172 54.8281 233.422 55.0977 233.727 55.293C234.039 55.4805 234.418 55.5742 234.863 55.5742C235.441 55.5742 235.918 55.4453 236.293 55.1875C236.668 54.9219 236.953 54.5586 237.148 54.0977C237.352 53.6367 237.469 53.1055 237.5 52.5039V50.9688C237.477 50.4766 237.406 50.0352 237.289 49.6445C237.18 49.2461 237.016 48.9062 236.797 48.625C236.586 48.3438 236.32 48.125 236 47.9688C235.688 47.8125 235.316 47.7344 234.887 47.7344C234.449 47.7344 234.074 47.8359 233.762 48.0391C233.449 48.2344 233.195 48.5039 233 48.8477C232.812 49.1914 232.672 49.5977 232.578 50.0664C232.492 50.5273 232.449 51.0273 232.449 51.5664Z" fill="white" fill-opacity="0.5"/>
</g>
<g style="mix-blend-mode:exclusion">
<path d="M115.994 98.708V104.641H99.5806V98.708H115.994ZM102.151 86.0078V118H94.439V86.0078H102.151ZM121.18 86.0078V118H113.489V86.0078H121.18ZM124.805 106.354V105.893C124.805 104.15 125.054 102.546 125.552 101.081C126.05 99.6016 126.783 98.3198 127.75 97.2358C128.716 96.1519 129.91 95.3096 131.331 94.709C132.752 94.0938 134.393 93.7861 136.253 93.7861C138.128 93.7861 139.776 94.0938 141.197 94.709C142.632 95.3096 143.833 96.1519 144.8 97.2358C145.767 98.3198 146.5 99.6016 146.998 101.081C147.496 102.546 147.745 104.15 147.745 105.893V106.354C147.745 108.083 147.496 109.687 146.998 111.167C146.5 112.631 145.767 113.913 144.8 115.012C143.833 116.096 142.64 116.938 141.219 117.539C139.798 118.139 138.157 118.439 136.297 118.439C134.437 118.439 132.789 118.139 131.353 117.539C129.917 116.938 128.716 116.096 127.75 115.012C126.783 113.913 126.05 112.631 125.552 111.167C125.054 109.687 124.805 108.083 124.805 106.354ZM132.21 105.893V106.354C132.21 107.248 132.276 108.083 132.408 108.859C132.54 109.636 132.759 110.317 133.067 110.903C133.375 111.474 133.792 111.921 134.319 112.243C134.847 112.565 135.506 112.727 136.297 112.727C137.073 112.727 137.718 112.565 138.23 112.243C138.758 111.921 139.175 111.474 139.483 110.903C139.791 110.317 140.01 109.636 140.142 108.859C140.274 108.083 140.34 107.248 140.34 106.354V105.893C140.34 105.029 140.274 104.216 140.142 103.454C140.01 102.678 139.791 101.997 139.483 101.411C139.175 100.81 138.758 100.341 138.23 100.004C137.703 99.6675 137.044 99.499 136.253 99.499C135.477 99.499 134.825 99.6675 134.297 100.004C133.785 100.341 133.375 100.81 133.067 101.411C132.759 101.997 132.54 102.678 132.408 103.454C132.276 104.216 132.21 105.029 132.21 105.893ZM158.27 110.925L162.664 94.2256H167.3L165.652 102.597L161.302 118H157.588L158.27 110.925ZM156.534 94.2256L159.258 110.793L159.566 118H155.062L149.437 94.2256H156.534ZM171.211 110.441L173.958 94.2256H181.055L175.474 118H170.97L171.211 110.441ZM167.828 94.2256L172.266 110.881L172.947 118H169.19L164.927 102.641L163.345 94.2256H167.828ZM209.466 86.0078V118H201.753V86.0078H209.466ZM219.09 86.0078V91.9624H192.349V86.0078H219.09ZM216.475 106.354V105.893C216.475 104.15 216.724 102.546 217.222 101.081C217.72 99.6016 218.453 98.3198 219.419 97.2358C220.386 96.1519 221.58 95.3096 223.001 94.709C224.422 94.0938 226.062 93.7861 227.923 93.7861C229.798 93.7861 231.446 94.0938 232.867 94.709C234.302 95.3096 235.503 96.1519 236.47 97.2358C237.437 98.3198 238.169 99.6016 238.667 101.081C239.166 102.546 239.415 104.15 239.415 105.893V106.354C239.415 108.083 239.166 109.687 238.667 111.167C238.169 112.631 237.437 113.913 236.47 115.012C235.503 116.096 234.31 116.938 232.889 117.539C231.468 118.139 229.827 118.439 227.967 118.439C226.106 118.439 224.458 118.139 223.023 117.539C221.587 116.938 220.386 116.096 219.419 115.012C218.453 113.913 217.72 112.631 217.222 111.167C216.724 109.687 216.475 108.083 216.475 106.354ZM223.88 105.893V106.354C223.88 107.248 223.946 108.083 224.078 108.859C224.209 109.636 224.429 110.317 224.737 110.903C225.044 111.474 225.462 111.921 225.989 112.243C226.517 112.565 227.176 112.727 227.967 112.727C228.743 112.727 229.388 112.565 229.9 112.243C230.428 111.921 230.845 111.474 231.153 110.903C231.46 110.317 231.68 109.636 231.812 108.859C231.944 108.083 232.01 107.248 232.01 106.354V105.893C232.01 105.029 231.944 104.216 231.812 103.454C231.68 102.678 231.46 101.997 231.153 101.411C230.845 100.81 230.428 100.341 229.9 100.004C229.373 99.6675 228.714 99.499 227.923 99.499C227.146 99.499 226.495 99.6675 225.967 100.004C225.455 100.341 225.044 100.81 224.737 101.411C224.429 101.997 224.209 102.678 224.078 103.454C223.946 104.216 223.88 105.029 223.88 105.893ZM254.268 86.0078H266.858C269.319 86.0078 271.458 86.374 273.274 87.1064C275.091 87.8389 276.49 88.9229 277.471 90.3584C278.467 91.7939 278.965 93.5664 278.965 95.6758C278.965 97.5068 278.68 99.0376 278.108 100.268C277.537 101.499 276.739 102.517 275.713 103.322C274.703 104.113 273.523 104.765 272.176 105.278L269.649 106.706H259.08L259.036 100.751H266.858C267.84 100.751 268.653 100.576 269.297 100.224C269.942 99.8726 270.425 99.3745 270.748 98.73C271.084 98.0708 271.253 97.2871 271.253 96.3789C271.253 95.4561 271.084 94.665 270.748 94.0059C270.411 93.3467 269.913 92.8413 269.253 92.4897C268.609 92.1382 267.811 91.9624 266.858 91.9624H261.98V118H254.268V86.0078ZM271.78 118L264.705 103.85L272.879 103.806L280.042 117.67V118H271.78ZM297.159 112.221V94.2256H304.585V118H297.642L297.159 112.221ZM297.862 107.387L299.795 107.343C299.795 108.94 299.605 110.419 299.224 111.782C298.843 113.129 298.279 114.301 297.532 115.297C296.8 116.293 295.892 117.07 294.808 117.626C293.738 118.168 292.5 118.439 291.094 118.439C289.922 118.439 288.846 118.278 287.864 117.956C286.897 117.619 286.062 117.099 285.359 116.396C284.656 115.678 284.107 114.763 283.711 113.649C283.331 112.521 283.14 111.174 283.14 109.606V94.2256H290.545V109.65C290.545 110.178 290.611 110.632 290.743 111.013C290.875 111.394 291.065 111.716 291.314 111.979C291.563 112.229 291.871 112.419 292.237 112.551C292.618 112.668 293.05 112.727 293.533 112.727C294.646 112.727 295.518 112.492 296.148 112.023C296.778 111.555 297.217 110.917 297.466 110.112C297.73 109.306 297.862 108.398 297.862 107.387ZM315.945 99.3013V118H308.541V94.2256H315.484L315.945 99.3013ZM315.066 105.3L313.331 105.344C313.331 103.527 313.55 101.909 313.99 100.488C314.429 99.0522 315.052 97.8364 315.857 96.8403C316.663 95.8442 317.623 95.0898 318.736 94.5771C319.864 94.0498 321.116 93.7861 322.493 93.7861C323.592 93.7861 324.595 93.9473 325.503 94.2695C326.426 94.5918 327.217 95.1118 327.876 95.8296C328.55 96.5474 329.063 97.4995 329.415 98.686C329.781 99.8579 329.964 101.308 329.964 103.037V118H322.515V103.015C322.515 102.062 322.383 101.337 322.12 100.839C321.856 100.327 321.475 99.9751 320.977 99.7847C320.479 99.5942 319.871 99.499 319.153 99.499C318.392 99.499 317.747 99.6455 317.22 99.9385C316.692 100.231 316.268 100.642 315.945 101.169C315.638 101.682 315.411 102.29 315.264 102.993C315.132 103.696 315.066 104.465 315.066 105.3ZM345.85 107.871H339.544C339.544 106.582 339.632 105.446 339.808 104.465C339.998 103.469 340.32 102.575 340.774 101.784C341.229 100.993 341.844 100.261 342.62 99.5869C343.309 99.0156 343.902 98.4663 344.4 97.939C344.898 97.4116 345.279 96.877 345.542 96.335C345.806 95.793 345.938 95.2144 345.938 94.5991C345.938 93.8374 345.828 93.2148 345.608 92.7314C345.403 92.248 345.088 91.8892 344.664 91.6548C344.253 91.4058 343.733 91.2812 343.104 91.2812C342.591 91.2812 342.107 91.4058 341.653 91.6548C341.214 91.9038 340.855 92.292 340.577 92.8193C340.298 93.332 340.145 94.0132 340.115 94.8628H332.667C332.71 92.6802 333.194 90.9077 334.117 89.5454C335.054 88.1685 336.299 87.165 337.852 86.5352C339.419 85.8906 341.17 85.5684 343.104 85.5684C345.242 85.5684 347.081 85.8979 348.619 86.5571C350.157 87.2163 351.336 88.1978 352.156 89.5015C352.977 90.7905 353.387 92.3799 353.387 94.2695C353.387 95.5293 353.145 96.6279 352.662 97.5654C352.193 98.4883 351.556 99.3525 350.75 100.158C349.959 100.949 349.073 101.799 348.091 102.707C347.242 103.454 346.663 104.216 346.355 104.992C346.048 105.754 345.879 106.713 345.85 107.871ZM338.643 114.55C338.643 113.496 339.024 112.617 339.786 111.914C340.547 111.196 341.536 110.837 342.752 110.837C343.968 110.837 344.957 111.196 345.718 111.914C346.48 112.617 346.861 113.496 346.861 114.55C346.861 115.605 346.48 116.491 345.718 117.209C344.957 117.912 343.968 118.264 342.752 118.264C341.536 118.264 340.547 117.912 339.786 117.209C339.024 116.491 338.643 115.605 338.643 114.55Z" fill="white"/>
</g>
<path d="M1363 15C1363 6.71573 1356.28 0 1348 0H1134V167H1348C1356.28 167 1363 160.284 1363 152V15Z" fill="#026A75"/>
<path d="M1260.77 81.3079C1263.96 81.3079 1267.09 82.2553 1269.74 84.0303C1272.4 85.8053 1274.47 88.3282 1275.69 91.2799C1276.92 94.2316 1277.24 97.4796 1276.61 100.613C1275.99 103.747 1274.45 106.625 1272.19 108.884C1269.93 111.143 1267.05 112.682 1263.92 113.305C1260.79 113.928 1257.54 113.608 1254.59 112.386C1251.64 111.163 1249.11 109.093 1247.34 106.436C1245.56 103.78 1244.62 100.657 1244.62 97.4617C1244.62 93.1774 1246.32 89.0686 1249.35 86.0392C1252.38 83.0098 1256.48 81.3079 1260.77 81.3079ZM1260.77 75.9233C1256.51 75.9233 1252.35 77.1865 1248.8 79.5532C1245.26 81.9198 1242.5 85.2837 1240.87 89.2193C1239.24 93.1549 1238.81 97.4856 1239.64 101.664C1240.48 105.842 1242.53 109.679 1245.54 112.692C1248.55 115.704 1252.39 117.755 1256.57 118.586C1260.75 119.417 1265.08 118.991 1269.01 117.361C1272.95 115.73 1276.31 112.97 1278.68 109.428C1281.04 105.886 1282.31 101.722 1282.31 97.4617C1282.31 91.7493 1280.04 86.271 1276 82.2317C1271.96 78.1925 1266.48 75.9233 1260.77 75.9233Z" fill="white"/>
<path d="M1274.23 49H1220.38C1218.96 49 1217.59 49.5673 1216.58 50.5771C1215.57 51.5869 1215 52.9565 1215 54.3846V108.231C1215 109.659 1215.57 111.028 1216.58 112.038C1217.59 113.048 1218.96 113.615 1220.38 113.615H1231.15V108.231H1220.38V70.5384H1279.62V54.3846C1279.62 52.9565 1279.05 51.5869 1278.04 50.5771C1277.03 49.5673 1275.66 49 1274.23 49ZM1220.38 65.1538V54.3846H1274.23V65.1538H1220.38Z" fill="white"/>
<path d="M1255.39 89.3849V105.539L1268.85 97.4618L1255.39 89.3849Z" fill="white"/>
</svg>
