<svg width="1363" height="167" viewBox="0 0 1363 167" fill="none" xmlns="http://www.w3.org/2000/svg">
<rect width="1363" height="167" rx="15" fill="#F0F0F0"/>
<path d="M0 15C0 6.71573 6.71573 0 15 0H37V167H15C6.71573 167 0 160.284 0 152V15Z" fill="#424241"/>
<path d="M100.906 54.9219L93.3945 52.2383V49.0859L103.602 53.375V55.6367L100.906 54.9219ZM93.3945 57.1719L100.918 54.4297L103.602 53.7852V56.0352L93.3945 60.3242V57.1719ZM113.504 44.9375H116.48L120.863 57.4648L125.246 44.9375H128.223L122.059 62H119.668L113.504 44.9375ZM111.898 44.9375H114.863L115.402 57.1484V62H111.898V44.9375ZM126.863 44.9375H129.84V62H126.324V57.1484L126.863 44.9375ZM132.172 55.7891V55.543C132.172 54.6133 132.305 53.7578 132.57 52.9766C132.836 52.1875 133.223 51.5039 133.73 50.9258C134.238 50.3477 134.863 49.8984 135.605 49.5781C136.348 49.25 137.199 49.0859 138.16 49.0859C139.121 49.0859 139.977 49.25 140.727 49.5781C141.477 49.8984 142.105 50.3477 142.613 50.9258C143.129 51.5039 143.52 52.1875 143.785 52.9766C144.051 53.7578 144.184 54.6133 144.184 55.543V55.7891C144.184 56.7109 144.051 57.5664 143.785 58.3555C143.52 59.1367 143.129 59.8203 142.613 60.4062C142.105 60.9844 141.48 61.4336 140.738 61.7539C139.996 62.0742 139.145 62.2344 138.184 62.2344C137.223 62.2344 136.367 62.0742 135.617 61.7539C134.875 61.4336 134.246 60.9844 133.73 60.4062C133.223 59.8203 132.836 59.1367 132.57 58.3555C132.305 57.5664 132.172 56.7109 132.172 55.7891ZM135.547 55.543V55.7891C135.547 56.3203 135.594 56.8164 135.688 57.2773C135.781 57.7383 135.93 58.1445 136.133 58.4961C136.344 58.8398 136.617 59.1094 136.953 59.3047C137.289 59.5 137.699 59.5977 138.184 59.5977C138.652 59.5977 139.055 59.5 139.391 59.3047C139.727 59.1094 139.996 58.8398 140.199 58.4961C140.402 58.1445 140.551 57.7383 140.645 57.2773C140.746 56.8164 140.797 56.3203 140.797 55.7891V55.543C140.797 55.0273 140.746 54.543 140.645 54.0898C140.551 53.6289 140.398 53.2227 140.188 52.8711C139.984 52.5117 139.715 52.2305 139.379 52.0273C139.043 51.8242 138.637 51.7227 138.16 51.7227C137.684 51.7227 137.277 51.8242 136.941 52.0273C136.613 52.2305 136.344 52.5117 136.133 52.8711C135.93 53.2227 135.781 53.6289 135.688 54.0898C135.594 54.543 135.547 55.0273 135.547 55.543ZM149.562 52.0273V62H146.188V49.3203H149.352L149.562 52.0273ZM149.07 55.2148H148.156C148.156 54.2773 148.277 53.4336 148.52 52.6836C148.762 51.9258 149.102 51.2812 149.539 50.75C149.977 50.2109 150.496 49.8008 151.098 49.5195C151.707 49.2305 152.387 49.0859 153.137 49.0859C153.73 49.0859 154.273 49.1719 154.766 49.3438C155.258 49.5156 155.68 49.7891 156.031 50.1641C156.391 50.5391 156.664 51.0352 156.852 51.6523C157.047 52.2695 157.145 53.0234 157.145 53.9141V62H153.746V53.9023C153.746 53.3398 153.668 52.9023 153.512 52.5898C153.355 52.2773 153.125 52.0586 152.82 51.9336C152.523 51.8008 152.156 51.7344 151.719 51.7344C151.266 51.7344 150.871 51.8242 150.535 52.0039C150.207 52.1836 149.934 52.4336 149.715 52.7539C149.504 53.0664 149.344 53.4336 149.234 53.8555C149.125 54.2773 149.07 54.7305 149.07 55.2148ZM165.547 62.2344C164.562 62.2344 163.68 62.0781 162.898 61.7656C162.117 61.4453 161.453 61.0039 160.906 60.4414C160.367 59.8789 159.953 59.2266 159.664 58.4844C159.375 57.7344 159.23 56.9375 159.23 56.0938V55.625C159.23 54.6641 159.367 53.7852 159.641 52.9883C159.914 52.1914 160.305 51.5 160.812 50.9141C161.328 50.3281 161.953 49.8789 162.688 49.5664C163.422 49.2461 164.25 49.0859 165.172 49.0859C166.07 49.0859 166.867 49.2344 167.562 49.5312C168.258 49.8281 168.84 50.25 169.309 50.7969C169.785 51.3438 170.145 52 170.387 52.7656C170.629 53.5234 170.75 54.3672 170.75 55.2969V56.7031H160.672V54.4531H167.434V54.1953C167.434 53.7266 167.348 53.3086 167.176 52.9414C167.012 52.5664 166.762 52.2695 166.426 52.0508C166.09 51.832 165.66 51.7227 165.137 51.7227C164.691 51.7227 164.309 51.8203 163.988 52.0156C163.668 52.2109 163.406 52.4844 163.203 52.8359C163.008 53.1875 162.859 53.6016 162.758 54.0781C162.664 54.5469 162.617 55.0625 162.617 55.625V56.0938C162.617 56.6016 162.688 57.0703 162.828 57.5C162.977 57.9297 163.184 58.3008 163.449 58.6133C163.723 58.9258 164.051 59.168 164.434 59.3398C164.824 59.5117 165.266 59.5977 165.758 59.5977C166.367 59.5977 166.934 59.4805 167.457 59.2461C167.988 59.0039 168.445 58.6406 168.828 58.1562L170.469 59.9375C170.203 60.3203 169.84 60.6875 169.379 61.0391C168.926 61.3906 168.379 61.6797 167.738 61.9062C167.098 62.125 166.367 62.2344 165.547 62.2344ZM176.27 60.5703L179.633 49.3203H183.254L178.156 63.9102C178.047 64.2305 177.898 64.5742 177.711 64.9414C177.531 65.3086 177.285 65.6562 176.973 65.9844C176.668 66.3203 176.281 66.5938 175.812 66.8047C175.352 67.0156 174.785 67.1211 174.113 67.1211C173.793 67.1211 173.531 67.1016 173.328 67.0625C173.125 67.0234 172.883 66.9688 172.602 66.8984V64.4258C172.688 64.4258 172.777 64.4258 172.871 64.4258C172.965 64.4336 173.055 64.4375 173.141 64.4375C173.586 64.4375 173.949 64.3867 174.23 64.2852C174.512 64.1836 174.738 64.0273 174.91 63.8164C175.082 63.6133 175.219 63.3477 175.32 63.0195L176.27 60.5703ZM174.863 49.3203L177.617 58.5078L178.098 62.082L175.801 62.3281L171.242 49.3203H174.863ZM202.168 51.8867V54.6289H193.262V51.8867H202.168ZM194.305 44.9375V62H190.789V44.9375H194.305ZM204.676 44.9375V62H201.172V44.9375H204.676ZM206.984 55.7891V55.543C206.984 54.6133 207.117 53.7578 207.383 52.9766C207.648 52.1875 208.035 51.5039 208.543 50.9258C209.051 50.3477 209.676 49.8984 210.418 49.5781C211.16 49.25 212.012 49.0859 212.973 49.0859C213.934 49.0859 214.789 49.25 215.539 49.5781C216.289 49.8984 216.918 50.3477 217.426 50.9258C217.941 51.5039 218.332 52.1875 218.598 52.9766C218.863 53.7578 218.996 54.6133 218.996 55.543V55.7891C218.996 56.7109 218.863 57.5664 218.598 58.3555C218.332 59.1367 217.941 59.8203 217.426 60.4062C216.918 60.9844 216.293 61.4336 215.551 61.7539C214.809 62.0742 213.957 62.2344 212.996 62.2344C212.035 62.2344 211.18 62.0742 210.43 61.7539C209.688 61.4336 209.059 60.9844 208.543 60.4062C208.035 59.8203 207.648 59.1367 207.383 58.3555C207.117 57.5664 206.984 56.7109 206.984 55.7891ZM210.359 55.543V55.7891C210.359 56.3203 210.406 56.8164 210.5 57.2773C210.594 57.7383 210.742 58.1445 210.945 58.4961C211.156 58.8398 211.43 59.1094 211.766 59.3047C212.102 59.5 212.512 59.5977 212.996 59.5977C213.465 59.5977 213.867 59.5 214.203 59.3047C214.539 59.1094 214.809 58.8398 215.012 58.4961C215.215 58.1445 215.363 57.7383 215.457 57.2773C215.559 56.8164 215.609 56.3203 215.609 55.7891V55.543C215.609 55.0273 215.559 54.543 215.457 54.0898C215.363 53.6289 215.211 53.2227 215 52.8711C214.797 52.5117 214.527 52.2305 214.191 52.0273C213.855 51.8242 213.449 51.7227 212.973 51.7227C212.496 51.7227 212.09 51.8242 211.754 52.0273C211.426 52.2305 211.156 52.5117 210.945 52.8711C210.742 53.2227 210.594 53.6289 210.5 54.0898C210.406 54.543 210.359 55.0273 210.359 55.543ZM228.57 58.9648V49.3203H231.945V62H228.77L228.57 58.9648ZM228.945 56.3633L229.941 56.3398C229.941 57.1836 229.844 57.9688 229.648 58.6953C229.453 59.4141 229.16 60.0391 228.77 60.5703C228.379 61.0938 227.887 61.5039 227.293 61.8008C226.699 62.0898 226 62.2344 225.195 62.2344C224.578 62.2344 224.008 62.1484 223.484 61.9766C222.969 61.7969 222.523 61.5195 222.148 61.1445C221.781 60.7617 221.492 60.2734 221.281 59.6797C221.078 59.0781 220.977 58.3555 220.977 57.5117V49.3203H224.352V57.5352C224.352 57.9102 224.395 58.2266 224.48 58.4844C224.574 58.7422 224.703 58.9531 224.867 59.1172C225.031 59.2812 225.223 59.3984 225.441 59.4688C225.668 59.5391 225.918 59.5742 226.191 59.5742C226.887 59.5742 227.434 59.4336 227.832 59.1523C228.238 58.8711 228.523 58.4883 228.688 58.0039C228.859 57.5117 228.945 56.9648 228.945 56.3633ZM237.828 52.0273V62H234.453V49.3203H237.617L237.828 52.0273ZM237.336 55.2148H236.422C236.422 54.2773 236.543 53.4336 236.785 52.6836C237.027 51.9258 237.367 51.2812 237.805 50.75C238.242 50.2109 238.762 49.8008 239.363 49.5195C239.973 49.2305 240.652 49.0859 241.402 49.0859C241.996 49.0859 242.539 49.1719 243.031 49.3438C243.523 49.5156 243.945 49.7891 244.297 50.1641C244.656 50.5391 244.93 51.0352 245.117 51.6523C245.312 52.2695 245.41 53.0234 245.41 53.9141V62H242.012V53.9023C242.012 53.3398 241.934 52.9023 241.777 52.5898C241.621 52.2773 241.391 52.0586 241.086 51.9336C240.789 51.8008 240.422 51.7344 239.984 51.7344C239.531 51.7344 239.137 51.8242 238.801 52.0039C238.473 52.1836 238.199 52.4336 237.98 52.7539C237.77 53.0664 237.609 53.4336 237.5 53.8555C237.391 54.2773 237.336 54.7305 237.336 55.2148ZM255.465 59.2344V44H258.863V62H255.805L255.465 59.2344ZM247.449 55.8125V55.5664C247.449 54.5977 247.559 53.7188 247.777 52.9297C247.996 52.1328 248.316 51.4492 248.738 50.8789C249.16 50.3086 249.68 49.8672 250.297 49.5547C250.914 49.2422 251.617 49.0859 252.406 49.0859C253.148 49.0859 253.797 49.2422 254.352 49.5547C254.914 49.8672 255.391 50.3125 255.781 50.8906C256.18 51.4609 256.5 52.1367 256.742 52.918C256.984 53.6914 257.16 54.5391 257.27 55.4609V56C257.16 56.8828 256.984 57.7031 256.742 58.4609C256.5 59.2188 256.18 59.8828 255.781 60.4531C255.391 61.0156 254.914 61.4531 254.352 61.7656C253.789 62.0781 253.133 62.2344 252.383 62.2344C251.594 62.2344 250.891 62.0742 250.273 61.7539C249.664 61.4336 249.148 60.9844 248.727 60.4062C248.312 59.8281 247.996 59.1484 247.777 58.3672C247.559 57.5859 247.449 56.7344 247.449 55.8125ZM250.824 55.5664V55.8125C250.824 56.3359 250.863 56.8242 250.941 57.2773C251.027 57.7305 251.164 58.1328 251.352 58.4844C251.547 58.8281 251.797 59.0977 252.102 59.293C252.414 59.4805 252.793 59.5742 253.238 59.5742C253.816 59.5742 254.293 59.4453 254.668 59.1875C255.043 58.9219 255.328 58.5586 255.523 58.0977C255.727 57.6367 255.844 57.1055 255.875 56.5039V54.9688C255.852 54.4766 255.781 54.0352 255.664 53.6445C255.555 53.2461 255.391 52.9062 255.172 52.625C254.961 52.3438 254.695 52.125 254.375 51.9688C254.062 51.8125 253.691 51.7344 253.262 51.7344C252.824 51.7344 252.449 51.8359 252.137 52.0391C251.824 52.2344 251.57 52.5039 251.375 52.8477C251.188 53.1914 251.047 53.5977 250.953 54.0664C250.867 54.5273 250.824 55.0273 250.824 55.5664Z" fill="#888888"/>
<path d="M102.635 86.0078V118H94.9443V86.0078H102.635ZM115.181 99.2573V118H107.776V94.2256H114.72L115.181 99.2573ZM114.28 105.3L112.588 105.344C112.588 103.674 112.786 102.136 113.182 100.729C113.577 99.3232 114.163 98.1001 114.939 97.0601C115.716 96.02 116.668 95.2144 117.796 94.6431C118.938 94.0718 120.257 93.7861 121.751 93.7861C122.791 93.7861 123.736 93.9473 124.585 94.2695C125.435 94.5771 126.167 95.0679 126.783 95.7417C127.398 96.4009 127.867 97.2651 128.189 98.3345C128.526 99.3892 128.694 100.656 128.694 102.136V118H121.29V103.081C121.29 102.07 121.172 101.308 120.938 100.795C120.718 100.283 120.396 99.9385 119.971 99.7627C119.546 99.5869 119.026 99.499 118.411 99.499C117.767 99.499 117.188 99.6455 116.675 99.9385C116.163 100.231 115.723 100.642 115.357 101.169C115.005 101.682 114.734 102.29 114.544 102.993C114.368 103.696 114.28 104.465 114.28 105.3ZM127.859 105.3L125.794 105.344C125.794 103.674 125.977 102.136 126.343 100.729C126.724 99.3232 127.288 98.1001 128.035 97.0601C128.797 96.02 129.742 95.2144 130.87 94.6431C131.998 94.0718 133.309 93.7861 134.803 93.7861C135.887 93.7861 136.883 93.9473 137.791 94.2695C138.699 94.5918 139.483 95.1118 140.142 95.8296C140.801 96.5474 141.314 97.4995 141.68 98.686C142.046 99.8579 142.229 101.308 142.229 103.037V118H134.803V103.037C134.803 102.055 134.686 101.315 134.451 100.817C134.231 100.305 133.909 99.9604 133.484 99.7847C133.06 99.5942 132.554 99.499 131.968 99.499C131.265 99.499 130.657 99.6455 130.145 99.9385C129.632 100.231 129.2 100.642 128.848 101.169C128.511 101.682 128.262 102.29 128.101 102.993C127.94 103.696 127.859 104.465 127.859 105.3ZM153.941 98.7959V127.141H146.536V94.2256H153.436L153.941 98.7959ZM168.531 105.827V106.289C168.531 108.017 168.333 109.621 167.938 111.101C167.542 112.58 166.956 113.869 166.18 114.968C165.403 116.066 164.437 116.923 163.279 117.539C162.137 118.139 160.811 118.439 159.302 118.439C157.881 118.439 156.658 118.125 155.633 117.495C154.607 116.865 153.75 115.993 153.062 114.88C152.374 113.767 151.817 112.492 151.392 111.057C150.967 109.621 150.63 108.105 150.381 106.508V105.915C150.63 104.201 150.967 102.612 151.392 101.147C151.817 99.6675 152.374 98.3784 153.062 97.2798C153.75 96.1812 154.6 95.3242 155.611 94.709C156.636 94.0938 157.859 93.7861 159.28 93.7861C160.789 93.7861 162.115 94.0718 163.257 94.6431C164.415 95.2144 165.381 96.0347 166.158 97.104C166.949 98.1587 167.542 99.4258 167.938 100.905C168.333 102.385 168.531 104.025 168.531 105.827ZM161.126 106.289V105.827C161.126 104.904 161.06 104.062 160.928 103.3C160.796 102.524 160.584 101.85 160.291 101.279C160.013 100.708 159.639 100.268 159.17 99.9604C158.702 99.6528 158.123 99.499 157.435 99.499C156.644 99.499 155.977 99.6235 155.435 99.8726C154.908 100.107 154.483 100.473 154.161 100.971C153.853 101.455 153.633 102.062 153.501 102.795C153.384 103.513 153.333 104.355 153.348 105.322V107.124C153.318 108.237 153.428 109.218 153.677 110.068C153.926 110.903 154.358 111.555 154.974 112.023C155.589 112.492 156.424 112.727 157.479 112.727C158.182 112.727 158.768 112.565 159.236 112.243C159.705 111.906 160.079 111.445 160.357 110.859C160.635 110.258 160.833 109.57 160.95 108.793C161.067 108.017 161.126 107.182 161.126 106.289ZM179.649 84.25V118H172.222V84.25H179.649ZM195.733 118.439C193.799 118.439 192.071 118.139 190.547 117.539C189.024 116.923 187.735 116.081 186.68 115.012C185.64 113.942 184.842 112.712 184.285 111.32C183.743 109.929 183.472 108.457 183.472 106.904V106.069C183.472 104.326 183.714 102.714 184.197 101.235C184.681 99.7407 185.398 98.437 186.351 97.3237C187.303 96.2104 188.497 95.3462 189.932 94.731C191.368 94.1011 193.038 93.7861 194.942 93.7861C196.626 93.7861 198.135 94.0571 199.468 94.5991C200.801 95.1411 201.929 95.9175 202.852 96.9282C203.79 97.939 204.5 99.1621 204.983 100.598C205.481 102.033 205.73 103.645 205.73 105.432V108.442H186.307V103.806H198.501V103.234C198.516 102.443 198.377 101.77 198.084 101.213C197.806 100.656 197.396 100.231 196.854 99.9385C196.312 99.6455 195.652 99.499 194.876 99.499C194.07 99.499 193.404 99.6748 192.876 100.026C192.364 100.378 191.961 100.861 191.668 101.477C191.39 102.077 191.192 102.773 191.075 103.564C190.958 104.355 190.899 105.19 190.899 106.069V106.904C190.899 107.783 191.016 108.581 191.25 109.299C191.5 110.017 191.851 110.632 192.305 111.145C192.774 111.643 193.331 112.031 193.975 112.309C194.634 112.587 195.381 112.727 196.216 112.727C197.227 112.727 198.223 112.536 199.205 112.155C200.186 111.774 201.028 111.145 201.731 110.266L205.093 114.265C204.61 114.953 203.921 115.62 203.028 116.264C202.149 116.909 201.094 117.436 199.864 117.846C198.633 118.242 197.256 118.439 195.733 118.439ZM216.211 99.2573V118H208.807V94.2256H215.75L216.211 99.2573ZM215.311 105.3L213.619 105.344C213.619 103.674 213.816 102.136 214.212 100.729C214.607 99.3232 215.193 98.1001 215.97 97.0601C216.746 96.02 217.698 95.2144 218.826 94.6431C219.969 94.0718 221.287 93.7861 222.781 93.7861C223.821 93.7861 224.766 93.9473 225.616 94.2695C226.465 94.5771 227.198 95.0679 227.813 95.7417C228.428 96.4009 228.897 97.2651 229.219 98.3345C229.556 99.3892 229.725 100.656 229.725 102.136V118H222.32V103.081C222.32 102.07 222.203 101.308 221.968 100.795C221.749 100.283 221.426 99.9385 221.001 99.7627C220.577 99.5869 220.057 99.499 219.441 99.499C218.797 99.499 218.218 99.6455 217.706 99.9385C217.193 100.231 216.753 100.642 216.387 101.169C216.036 101.682 215.765 102.29 215.574 102.993C215.398 103.696 215.311 104.465 215.311 105.3ZM228.89 105.3L226.824 105.344C226.824 103.674 227.007 102.136 227.374 100.729C227.754 99.3232 228.318 98.1001 229.065 97.0601C229.827 96.02 230.772 95.2144 231.9 94.6431C233.028 94.0718 234.339 93.7861 235.833 93.7861C236.917 93.7861 237.913 93.9473 238.821 94.2695C239.729 94.5918 240.513 95.1118 241.172 95.8296C241.832 96.5474 242.344 97.4995 242.71 98.686C243.077 99.8579 243.26 101.308 243.26 103.037V118H235.833V103.037C235.833 102.055 235.716 101.315 235.481 100.817C235.262 100.305 234.939 99.9604 234.515 99.7847C234.09 99.5942 233.584 99.499 232.999 99.499C232.295 99.499 231.688 99.6455 231.175 99.9385C230.662 100.231 230.23 100.642 229.878 101.169C229.542 101.682 229.292 102.29 229.131 102.993C228.97 103.696 228.89 104.465 228.89 105.3ZM259.014 118.439C257.081 118.439 255.352 118.139 253.829 117.539C252.305 116.923 251.016 116.081 249.961 115.012C248.921 113.942 248.123 112.712 247.566 111.32C247.024 109.929 246.753 108.457 246.753 106.904V106.069C246.753 104.326 246.995 102.714 247.479 101.235C247.962 99.7407 248.68 98.437 249.632 97.3237C250.584 96.2104 251.778 95.3462 253.213 94.731C254.649 94.1011 256.319 93.7861 258.223 93.7861C259.908 93.7861 261.417 94.0571 262.75 94.5991C264.083 95.1411 265.21 95.9175 266.133 96.9282C267.071 97.939 267.781 99.1621 268.265 100.598C268.763 102.033 269.012 103.645 269.012 105.432V108.442H249.588V103.806H261.783V103.234C261.797 102.443 261.658 101.77 261.365 101.213C261.087 100.656 260.677 100.231 260.135 99.9385C259.593 99.6455 258.934 99.499 258.157 99.499C257.352 99.499 256.685 99.6748 256.158 100.026C255.645 100.378 255.242 100.861 254.949 101.477C254.671 102.077 254.473 102.773 254.356 103.564C254.239 104.355 254.18 105.19 254.18 106.069V106.904C254.18 107.783 254.297 108.581 254.532 109.299C254.781 110.017 255.132 110.632 255.586 111.145C256.055 111.643 256.612 112.031 257.256 112.309C257.916 112.587 258.663 112.727 259.498 112.727C260.508 112.727 261.504 112.536 262.486 112.155C263.467 111.774 264.31 111.145 265.013 110.266L268.375 114.265C267.891 114.953 267.203 115.62 266.309 116.264C265.43 116.909 264.375 117.436 263.145 117.846C261.915 118.242 260.538 118.439 259.014 118.439ZM279.295 99.3013V118H271.89V94.2256H278.833L279.295 99.3013ZM278.416 105.3L276.68 105.344C276.68 103.527 276.9 101.909 277.339 100.488C277.779 99.0522 278.401 97.8364 279.207 96.8403C280.013 95.8442 280.972 95.0898 282.085 94.5771C283.213 94.0498 284.466 93.7861 285.843 93.7861C286.941 93.7861 287.945 93.9473 288.853 94.2695C289.776 94.5918 290.567 95.1118 291.226 95.8296C291.9 96.5474 292.413 97.4995 292.764 98.686C293.13 99.8579 293.313 101.308 293.313 103.037V118H285.865V103.015C285.865 102.062 285.733 101.337 285.469 100.839C285.206 100.327 284.825 99.9751 284.327 99.7847C283.829 99.5942 283.221 99.499 282.503 99.499C281.741 99.499 281.097 99.6455 280.569 99.9385C280.042 100.231 279.617 100.642 279.295 101.169C278.987 101.682 278.76 102.29 278.614 102.993C278.482 103.696 278.416 104.465 278.416 105.3ZM309.947 94.2256V99.3672H295.621V94.2256H309.947ZM298.631 88.3149H306.036V110.244C306.036 110.874 306.109 111.364 306.255 111.716C306.402 112.053 306.651 112.294 307.002 112.441C307.369 112.573 307.852 112.639 308.453 112.639C308.877 112.639 309.229 112.631 309.507 112.617C309.786 112.587 310.049 112.551 310.298 112.507V117.802C309.668 118.007 309.009 118.161 308.321 118.264C307.632 118.381 306.9 118.439 306.124 118.439C304.542 118.439 303.187 118.19 302.059 117.692C300.945 117.194 300.096 116.411 299.51 115.341C298.924 114.272 298.631 112.88 298.631 111.167V88.3149ZM325.24 112.023V102.224C325.24 101.55 325.145 100.971 324.954 100.488C324.764 100.004 324.463 99.6309 324.053 99.3672C323.643 99.0889 323.094 98.9497 322.405 98.9497C321.849 98.9497 321.373 99.0449 320.977 99.2354C320.582 99.4258 320.281 99.7114 320.076 100.092C319.871 100.473 319.769 100.957 319.769 101.542H312.364C312.364 100.444 312.605 99.4258 313.089 98.4883C313.587 97.5361 314.29 96.7085 315.198 96.0054C316.121 95.3022 317.22 94.7603 318.494 94.3794C319.783 93.9839 321.219 93.7861 322.801 93.7861C324.69 93.7861 326.375 94.1011 327.854 94.731C329.349 95.3608 330.528 96.3057 331.392 97.5654C332.256 98.8105 332.688 100.378 332.688 102.268V112.001C332.688 113.554 332.776 114.733 332.952 115.539C333.128 116.33 333.377 117.026 333.699 117.626V118H326.272C325.921 117.268 325.657 116.374 325.481 115.319C325.32 114.25 325.24 113.151 325.24 112.023ZM326.141 103.476L326.185 107.431H322.911C322.222 107.431 321.636 107.526 321.153 107.717C320.684 107.907 320.303 108.171 320.01 108.508C319.732 108.83 319.527 109.196 319.395 109.606C319.278 110.017 319.219 110.449 319.219 110.903C319.219 111.342 319.322 111.738 319.527 112.089C319.747 112.426 320.04 112.69 320.406 112.88C320.772 113.071 321.182 113.166 321.636 113.166C322.457 113.166 323.152 113.012 323.724 112.705C324.31 112.382 324.756 111.994 325.064 111.54C325.372 111.086 325.525 110.661 325.525 110.266L327.151 113.298C326.858 113.884 326.521 114.477 326.141 115.078C325.774 115.678 325.313 116.235 324.756 116.748C324.214 117.246 323.548 117.656 322.757 117.978C321.966 118.286 321.006 118.439 319.878 118.439C318.414 118.439 317.066 118.139 315.835 117.539C314.62 116.938 313.646 116.103 312.913 115.034C312.181 113.95 311.814 112.705 311.814 111.298C311.814 110.068 312.034 108.969 312.474 108.002C312.928 107.036 313.609 106.215 314.517 105.542C315.425 104.868 316.583 104.355 317.989 104.003C319.395 103.652 321.05 103.476 322.955 103.476H326.141ZM349.322 94.2256V99.3672H334.996V94.2256H349.322ZM338.006 88.3149H345.411V110.244C345.411 110.874 345.484 111.364 345.63 111.716C345.777 112.053 346.026 112.294 346.377 112.441C346.744 112.573 347.227 112.639 347.828 112.639C348.252 112.639 348.604 112.631 348.882 112.617C349.161 112.587 349.424 112.551 349.673 112.507V117.802C349.043 118.007 348.384 118.161 347.696 118.264C347.007 118.381 346.275 118.439 345.499 118.439C343.917 118.439 342.562 118.19 341.434 117.692C340.32 117.194 339.471 116.411 338.885 115.341C338.299 114.272 338.006 112.88 338.006 111.167V88.3149ZM360.088 94.2256V118H352.662V94.2256H360.088ZM352.222 88.0952C352.222 87.0405 352.603 86.1763 353.365 85.5024C354.126 84.8286 355.115 84.4917 356.331 84.4917C357.547 84.4917 358.536 84.8286 359.297 85.5024C360.059 86.1763 360.44 87.0405 360.44 88.0952C360.44 89.1499 360.059 90.0142 359.297 90.688C358.536 91.3618 357.547 91.6987 356.331 91.6987C355.115 91.6987 354.126 91.3618 353.365 90.688C352.603 90.0142 352.222 89.1499 352.222 88.0952ZM363.736 106.354V105.893C363.736 104.15 363.985 102.546 364.483 101.081C364.981 99.6016 365.713 98.3198 366.68 97.2358C367.647 96.1519 368.841 95.3096 370.262 94.709C371.683 94.0938 373.323 93.7861 375.184 93.7861C377.059 93.7861 378.707 94.0938 380.127 94.709C381.563 95.3096 382.764 96.1519 383.731 97.2358C384.698 98.3198 385.43 99.6016 385.928 101.081C386.426 102.546 386.675 104.15 386.675 105.893V106.354C386.675 108.083 386.426 109.687 385.928 111.167C385.43 112.631 384.698 113.913 383.731 115.012C382.764 116.096 381.57 116.938 380.149 117.539C378.729 118.139 377.088 118.439 375.228 118.439C373.367 118.439 371.719 118.139 370.284 117.539C368.848 116.938 367.647 116.096 366.68 115.012C365.713 113.913 364.981 112.631 364.483 111.167C363.985 109.687 363.736 108.083 363.736 106.354ZM371.141 105.893V106.354C371.141 107.248 371.207 108.083 371.338 108.859C371.47 109.636 371.69 110.317 371.998 110.903C372.305 111.474 372.723 111.921 373.25 112.243C373.777 112.565 374.437 112.727 375.228 112.727C376.004 112.727 376.648 112.565 377.161 112.243C377.688 111.921 378.106 111.474 378.414 110.903C378.721 110.317 378.941 109.636 379.073 108.859C379.205 108.083 379.271 107.248 379.271 106.354V105.893C379.271 105.029 379.205 104.216 379.073 103.454C378.941 102.678 378.721 101.997 378.414 101.411C378.106 100.81 377.688 100.341 377.161 100.004C376.634 99.6675 375.975 99.499 375.184 99.499C374.407 99.499 373.755 99.6675 373.228 100.004C372.715 100.341 372.305 100.81 371.998 101.411C371.69 101.997 371.47 102.678 371.338 103.454C371.207 104.216 371.141 105.029 371.141 105.893ZM397.244 99.3013V118H389.839V94.2256H396.783L397.244 99.3013ZM396.365 105.3L394.629 105.344C394.629 103.527 394.849 101.909 395.289 100.488C395.728 99.0522 396.351 97.8364 397.156 96.8403C397.962 95.8442 398.921 95.0898 400.035 94.5771C401.163 94.0498 402.415 93.7861 403.792 93.7861C404.891 93.7861 405.894 93.9473 406.802 94.2695C407.725 94.5918 408.516 95.1118 409.175 95.8296C409.849 96.5474 410.362 97.4995 410.713 98.686C411.08 99.8579 411.263 101.308 411.263 103.037V118H403.814V103.015C403.814 102.062 403.682 101.337 403.418 100.839C403.155 100.327 402.774 99.9751 402.276 99.7847C401.778 99.5942 401.17 99.499 400.452 99.499C399.69 99.499 399.046 99.6455 398.519 99.9385C397.991 100.231 397.566 100.642 397.244 101.169C396.937 101.682 396.709 102.29 396.563 102.993C396.431 103.696 396.365 104.465 396.365 105.3Z" fill="#424241"/>
<path d="M1363 15C1363 6.71573 1356.28 0 1348 0H1134V167H1348C1356.28 167 1363 160.284 1363 152V15Z" fill="#026A75"/>
<path d="M1281.5 49H1216.5L1214 51.5V116.5L1216.5 119H1281.5L1284 116.5V51.5L1281.5 49ZM1279 114H1234V104H1245.5C1247 107 1250.5 109 1254 109C1259.5 109 1264 104.5 1264 99C1264 93.5 1259.5 89 1254 89C1248.5 89 1244 93.5 1244 99H1229V114H1219V54H1229V65.5C1226 67 1224 70.5 1224 74C1224 79.5 1228.5 84 1234 84C1239.5 84 1244 79.5 1244 74H1254C1254 79.5 1258.5 84 1264 84C1269.5 84 1274 79.5 1274 74C1274 68.5 1269.5 64 1264 64C1260.5 64 1257 66 1255.5 69H1242.5C1241 66 1237.5 64 1234 64V54H1279V114ZM1249 99C1249 96 1251 94 1254 94C1257 94 1259 96 1259 99C1259 102 1257 104 1254 104C1251 104 1249 102 1249 99ZM1234 69C1237 69 1239 71 1239 74C1239 77 1237 79 1234 79C1231 79 1229 77 1229 74C1229 71 1231 69 1234 69ZM1264 69C1267 69 1269 71 1269 74C1269 77 1267 79 1264 79C1261 79 1259 77 1259 74C1259 71 1261 69 1264 69Z" fill="white"/>
</svg>
