<svg width="1363" height="167" viewBox="0 0 1363 167" fill="none" xmlns="http://www.w3.org/2000/svg">
<rect width="1363" height="167" rx="15" fill="#F0F0F0"/>
<path d="M0 15C0 6.71573 6.71573 0 15 0H37V167H15C6.71573 167 0 160.284 0 152V15Z" fill="#424241"/>
<path d="M100.906 54.9219L93.3945 52.2383V49.0859L103.602 53.375V55.6367L100.906 54.9219ZM93.3945 57.1719L100.918 54.4297L103.602 53.7852V56.0352L93.3945 60.3242V57.1719ZM113.504 44.9375H116.48L120.863 57.4648L125.246 44.9375H128.223L122.059 62H119.668L113.504 44.9375ZM111.898 44.9375H114.863L115.402 57.1484V62H111.898V44.9375ZM126.863 44.9375H129.84V62H126.324V57.1484L126.863 44.9375ZM132.172 55.7891V55.543C132.172 54.6133 132.305 53.7578 132.57 52.9766C132.836 52.1875 133.223 51.5039 133.73 50.9258C134.238 50.3477 134.863 49.8984 135.605 49.5781C136.348 49.25 137.199 49.0859 138.16 49.0859C139.121 49.0859 139.977 49.25 140.727 49.5781C141.477 49.8984 142.105 50.3477 142.613 50.9258C143.129 51.5039 143.52 52.1875 143.785 52.9766C144.051 53.7578 144.184 54.6133 144.184 55.543V55.7891C144.184 56.7109 144.051 57.5664 143.785 58.3555C143.52 59.1367 143.129 59.8203 142.613 60.4062C142.105 60.9844 141.48 61.4336 140.738 61.7539C139.996 62.0742 139.145 62.2344 138.184 62.2344C137.223 62.2344 136.367 62.0742 135.617 61.7539C134.875 61.4336 134.246 60.9844 133.73 60.4062C133.223 59.8203 132.836 59.1367 132.57 58.3555C132.305 57.5664 132.172 56.7109 132.172 55.7891ZM135.547 55.543V55.7891C135.547 56.3203 135.594 56.8164 135.688 57.2773C135.781 57.7383 135.93 58.1445 136.133 58.4961C136.344 58.8398 136.617 59.1094 136.953 59.3047C137.289 59.5 137.699 59.5977 138.184 59.5977C138.652 59.5977 139.055 59.5 139.391 59.3047C139.727 59.1094 139.996 58.8398 140.199 58.4961C140.402 58.1445 140.551 57.7383 140.645 57.2773C140.746 56.8164 140.797 56.3203 140.797 55.7891V55.543C140.797 55.0273 140.746 54.543 140.645 54.0898C140.551 53.6289 140.398 53.2227 140.188 52.8711C139.984 52.5117 139.715 52.2305 139.379 52.0273C139.043 51.8242 138.637 51.7227 138.16 51.7227C137.684 51.7227 137.277 51.8242 136.941 52.0273C136.613 52.2305 136.344 52.5117 136.133 52.8711C135.93 53.2227 135.781 53.6289 135.688 54.0898C135.594 54.543 135.547 55.0273 135.547 55.543ZM149.562 52.0273V62H146.188V49.3203H149.352L149.562 52.0273ZM149.07 55.2148H148.156C148.156 54.2773 148.277 53.4336 148.52 52.6836C148.762 51.9258 149.102 51.2812 149.539 50.75C149.977 50.2109 150.496 49.8008 151.098 49.5195C151.707 49.2305 152.387 49.0859 153.137 49.0859C153.73 49.0859 154.273 49.1719 154.766 49.3438C155.258 49.5156 155.68 49.7891 156.031 50.1641C156.391 50.5391 156.664 51.0352 156.852 51.6523C157.047 52.2695 157.145 53.0234 157.145 53.9141V62H153.746V53.9023C153.746 53.3398 153.668 52.9023 153.512 52.5898C153.355 52.2773 153.125 52.0586 152.82 51.9336C152.523 51.8008 152.156 51.7344 151.719 51.7344C151.266 51.7344 150.871 51.8242 150.535 52.0039C150.207 52.1836 149.934 52.4336 149.715 52.7539C149.504 53.0664 149.344 53.4336 149.234 53.8555C149.125 54.2773 149.07 54.7305 149.07 55.2148ZM165.547 62.2344C164.562 62.2344 163.68 62.0781 162.898 61.7656C162.117 61.4453 161.453 61.0039 160.906 60.4414C160.367 59.8789 159.953 59.2266 159.664 58.4844C159.375 57.7344 159.23 56.9375 159.23 56.0938V55.625C159.23 54.6641 159.367 53.7852 159.641 52.9883C159.914 52.1914 160.305 51.5 160.812 50.9141C161.328 50.3281 161.953 49.8789 162.688 49.5664C163.422 49.2461 164.25 49.0859 165.172 49.0859C166.07 49.0859 166.867 49.2344 167.562 49.5312C168.258 49.8281 168.84 50.25 169.309 50.7969C169.785 51.3438 170.145 52 170.387 52.7656C170.629 53.5234 170.75 54.3672 170.75 55.2969V56.7031H160.672V54.4531H167.434V54.1953C167.434 53.7266 167.348 53.3086 167.176 52.9414C167.012 52.5664 166.762 52.2695 166.426 52.0508C166.09 51.832 165.66 51.7227 165.137 51.7227C164.691 51.7227 164.309 51.8203 163.988 52.0156C163.668 52.2109 163.406 52.4844 163.203 52.8359C163.008 53.1875 162.859 53.6016 162.758 54.0781C162.664 54.5469 162.617 55.0625 162.617 55.625V56.0938C162.617 56.6016 162.688 57.0703 162.828 57.5C162.977 57.9297 163.184 58.3008 163.449 58.6133C163.723 58.9258 164.051 59.168 164.434 59.3398C164.824 59.5117 165.266 59.5977 165.758 59.5977C166.367 59.5977 166.934 59.4805 167.457 59.2461C167.988 59.0039 168.445 58.6406 168.828 58.1562L170.469 59.9375C170.203 60.3203 169.84 60.6875 169.379 61.0391C168.926 61.3906 168.379 61.6797 167.738 61.9062C167.098 62.125 166.367 62.2344 165.547 62.2344ZM176.27 60.5703L179.633 49.3203H183.254L178.156 63.9102C178.047 64.2305 177.898 64.5742 177.711 64.9414C177.531 65.3086 177.285 65.6562 176.973 65.9844C176.668 66.3203 176.281 66.5938 175.812 66.8047C175.352 67.0156 174.785 67.1211 174.113 67.1211C173.793 67.1211 173.531 67.1016 173.328 67.0625C173.125 67.0234 172.883 66.9688 172.602 66.8984V64.4258C172.688 64.4258 172.777 64.4258 172.871 64.4258C172.965 64.4336 173.055 64.4375 173.141 64.4375C173.586 64.4375 173.949 64.3867 174.23 64.2852C174.512 64.1836 174.738 64.0273 174.91 63.8164C175.082 63.6133 175.219 63.3477 175.32 63.0195L176.27 60.5703ZM174.863 49.3203L177.617 58.5078L178.098 62.082L175.801 62.3281L171.242 49.3203H174.863ZM202.168 51.8867V54.6289H193.262V51.8867H202.168ZM194.305 44.9375V62H190.789V44.9375H194.305ZM204.676 44.9375V62H201.172V44.9375H204.676ZM206.984 55.7891V55.543C206.984 54.6133 207.117 53.7578 207.383 52.9766C207.648 52.1875 208.035 51.5039 208.543 50.9258C209.051 50.3477 209.676 49.8984 210.418 49.5781C211.16 49.25 212.012 49.0859 212.973 49.0859C213.934 49.0859 214.789 49.25 215.539 49.5781C216.289 49.8984 216.918 50.3477 217.426 50.9258C217.941 51.5039 218.332 52.1875 218.598 52.9766C218.863 53.7578 218.996 54.6133 218.996 55.543V55.7891C218.996 56.7109 218.863 57.5664 218.598 58.3555C218.332 59.1367 217.941 59.8203 217.426 60.4062C216.918 60.9844 216.293 61.4336 215.551 61.7539C214.809 62.0742 213.957 62.2344 212.996 62.2344C212.035 62.2344 211.18 62.0742 210.43 61.7539C209.688 61.4336 209.059 60.9844 208.543 60.4062C208.035 59.8203 207.648 59.1367 207.383 58.3555C207.117 57.5664 206.984 56.7109 206.984 55.7891ZM210.359 55.543V55.7891C210.359 56.3203 210.406 56.8164 210.5 57.2773C210.594 57.7383 210.742 58.1445 210.945 58.4961C211.156 58.8398 211.43 59.1094 211.766 59.3047C212.102 59.5 212.512 59.5977 212.996 59.5977C213.465 59.5977 213.867 59.5 214.203 59.3047C214.539 59.1094 214.809 58.8398 215.012 58.4961C215.215 58.1445 215.363 57.7383 215.457 57.2773C215.559 56.8164 215.609 56.3203 215.609 55.7891V55.543C215.609 55.0273 215.559 54.543 215.457 54.0898C215.363 53.6289 215.211 53.2227 215 52.8711C214.797 52.5117 214.527 52.2305 214.191 52.0273C213.855 51.8242 213.449 51.7227 212.973 51.7227C212.496 51.7227 212.09 51.8242 211.754 52.0273C211.426 52.2305 211.156 52.5117 210.945 52.8711C210.742 53.2227 210.594 53.6289 210.5 54.0898C210.406 54.543 210.359 55.0273 210.359 55.543ZM228.57 58.9648V49.3203H231.945V62H228.77L228.57 58.9648ZM228.945 56.3633L229.941 56.3398C229.941 57.1836 229.844 57.9688 229.648 58.6953C229.453 59.4141 229.16 60.0391 228.77 60.5703C228.379 61.0938 227.887 61.5039 227.293 61.8008C226.699 62.0898 226 62.2344 225.195 62.2344C224.578 62.2344 224.008 62.1484 223.484 61.9766C222.969 61.7969 222.523 61.5195 222.148 61.1445C221.781 60.7617 221.492 60.2734 221.281 59.6797C221.078 59.0781 220.977 58.3555 220.977 57.5117V49.3203H224.352V57.5352C224.352 57.9102 224.395 58.2266 224.48 58.4844C224.574 58.7422 224.703 58.9531 224.867 59.1172C225.031 59.2812 225.223 59.3984 225.441 59.4688C225.668 59.5391 225.918 59.5742 226.191 59.5742C226.887 59.5742 227.434 59.4336 227.832 59.1523C228.238 58.8711 228.523 58.4883 228.688 58.0039C228.859 57.5117 228.945 56.9648 228.945 56.3633ZM237.828 52.0273V62H234.453V49.3203H237.617L237.828 52.0273ZM237.336 55.2148H236.422C236.422 54.2773 236.543 53.4336 236.785 52.6836C237.027 51.9258 237.367 51.2812 237.805 50.75C238.242 50.2109 238.762 49.8008 239.363 49.5195C239.973 49.2305 240.652 49.0859 241.402 49.0859C241.996 49.0859 242.539 49.1719 243.031 49.3438C243.523 49.5156 243.945 49.7891 244.297 50.1641C244.656 50.5391 244.93 51.0352 245.117 51.6523C245.312 52.2695 245.41 53.0234 245.41 53.9141V62H242.012V53.9023C242.012 53.3398 241.934 52.9023 241.777 52.5898C241.621 52.2773 241.391 52.0586 241.086 51.9336C240.789 51.8008 240.422 51.7344 239.984 51.7344C239.531 51.7344 239.137 51.8242 238.801 52.0039C238.473 52.1836 238.199 52.4336 237.98 52.7539C237.77 53.0664 237.609 53.4336 237.5 53.8555C237.391 54.2773 237.336 54.7305 237.336 55.2148ZM255.465 59.2344V44H258.863V62H255.805L255.465 59.2344ZM247.449 55.8125V55.5664C247.449 54.5977 247.559 53.7188 247.777 52.9297C247.996 52.1328 248.316 51.4492 248.738 50.8789C249.16 50.3086 249.68 49.8672 250.297 49.5547C250.914 49.2422 251.617 49.0859 252.406 49.0859C253.148 49.0859 253.797 49.2422 254.352 49.5547C254.914 49.8672 255.391 50.3125 255.781 50.8906C256.18 51.4609 256.5 52.1367 256.742 52.918C256.984 53.6914 257.16 54.5391 257.27 55.4609V56C257.16 56.8828 256.984 57.7031 256.742 58.4609C256.5 59.2188 256.18 59.8828 255.781 60.4531C255.391 61.0156 254.914 61.4531 254.352 61.7656C253.789 62.0781 253.133 62.2344 252.383 62.2344C251.594 62.2344 250.891 62.0742 250.273 61.7539C249.664 61.4336 249.148 60.9844 248.727 60.4062C248.312 59.8281 247.996 59.1484 247.777 58.3672C247.559 57.5859 247.449 56.7344 247.449 55.8125ZM250.824 55.5664V55.8125C250.824 56.3359 250.863 56.8242 250.941 57.2773C251.027 57.7305 251.164 58.1328 251.352 58.4844C251.547 58.8281 251.797 59.0977 252.102 59.293C252.414 59.4805 252.793 59.5742 253.238 59.5742C253.816 59.5742 254.293 59.4453 254.668 59.1875C255.043 58.9219 255.328 58.5586 255.523 58.0977C255.727 57.6367 255.844 57.1055 255.875 56.5039V54.9688C255.852 54.4766 255.781 54.0352 255.664 53.6445C255.555 53.2461 255.391 52.9062 255.172 52.625C254.961 52.3438 254.695 52.125 254.375 51.9688C254.062 51.8125 253.691 51.7344 253.262 51.7344C252.824 51.7344 252.449 51.8359 252.137 52.0391C251.824 52.2344 251.57 52.5039 251.375 52.8477C251.188 53.1914 251.047 53.5977 250.953 54.0664C250.867 54.5273 250.824 55.0273 250.824 55.5664Z" fill="#888888"/>
<path d="M109.93 86.0078V118H102.217V86.0078H109.93ZM119.554 86.0078V91.9624H92.813V86.0078H119.554ZM132.012 118.439C130.079 118.439 128.35 118.139 126.827 117.539C125.303 116.923 124.014 116.081 122.959 115.012C121.919 113.942 121.121 112.712 120.564 111.32C120.022 109.929 119.751 108.457 119.751 106.904V106.069C119.751 104.326 119.993 102.714 120.477 101.235C120.96 99.7407 121.678 98.437 122.63 97.3237C123.582 96.2104 124.776 95.3462 126.211 94.731C127.647 94.1011 129.317 93.7861 131.221 93.7861C132.906 93.7861 134.415 94.0571 135.748 94.5991C137.081 95.1411 138.208 95.9175 139.131 96.9282C140.069 97.939 140.779 99.1621 141.263 100.598C141.761 102.033 142.01 103.645 142.01 105.432V108.442H122.586V103.806H134.781V103.234C134.795 102.443 134.656 101.77 134.363 101.213C134.085 100.656 133.675 100.231 133.133 99.9385C132.591 99.6455 131.932 99.499 131.155 99.499C130.35 99.499 129.683 99.6748 129.156 100.026C128.643 100.378 128.24 100.861 127.947 101.477C127.669 102.077 127.471 102.773 127.354 103.564C127.237 104.355 127.178 105.19 127.178 106.069V106.904C127.178 107.783 127.295 108.581 127.53 109.299C127.779 110.017 128.13 110.632 128.584 111.145C129.053 111.643 129.61 112.031 130.254 112.309C130.914 112.587 131.661 112.727 132.496 112.727C133.506 112.727 134.502 112.536 135.484 112.155C136.465 111.774 137.308 111.145 138.011 110.266L141.373 114.265C140.889 114.953 140.201 115.62 139.307 116.264C138.428 116.909 137.374 117.436 136.143 117.846C134.913 118.242 133.536 118.439 132.012 118.439ZM155.062 112.727C155.75 112.727 156.336 112.602 156.819 112.353C157.317 112.089 157.691 111.723 157.94 111.254C158.204 110.771 158.328 110.192 158.313 109.519H165.279C165.293 111.306 164.854 112.873 163.96 114.221C163.082 115.554 161.88 116.594 160.357 117.341C158.848 118.073 157.142 118.439 155.237 118.439C153.377 118.439 151.751 118.139 150.359 117.539C148.968 116.923 147.803 116.074 146.866 114.99C145.943 113.891 145.247 112.609 144.778 111.145C144.324 109.68 144.097 108.09 144.097 106.376V105.871C144.097 104.157 144.324 102.568 144.778 101.103C145.247 99.6235 145.943 98.3418 146.866 97.2578C147.803 96.1592 148.96 95.3096 150.337 94.709C151.729 94.0938 153.348 93.7861 155.193 93.7861C157.171 93.7861 158.914 94.1597 160.423 94.9067C161.946 95.6538 163.14 96.7378 164.004 98.1587C164.869 99.5796 165.293 101.301 165.279 103.322H158.313C158.328 102.604 158.218 101.96 157.984 101.389C157.75 100.817 157.383 100.363 156.885 100.026C156.402 99.6748 155.779 99.499 155.018 99.499C154.256 99.499 153.641 99.6675 153.172 100.004C152.703 100.341 152.344 100.81 152.095 101.411C151.861 101.997 151.7 102.67 151.612 103.432C151.539 104.194 151.502 105.007 151.502 105.871V106.376C151.502 107.255 151.539 108.083 151.612 108.859C151.7 109.621 151.868 110.295 152.117 110.881C152.366 111.452 152.725 111.906 153.194 112.243C153.663 112.565 154.285 112.727 155.062 112.727ZM175.694 84.25V118H168.289V84.25H175.694ZM174.815 105.3L173.079 105.344C173.079 103.674 173.284 102.136 173.694 100.729C174.104 99.3232 174.69 98.1001 175.452 97.0601C176.214 96.02 177.129 95.2144 178.199 94.6431C179.268 94.0718 180.455 93.7861 181.758 93.7861C182.93 93.7861 184 93.9546 184.966 94.2915C185.948 94.6284 186.79 95.1704 187.493 95.9175C188.211 96.6646 188.76 97.6387 189.141 98.8398C189.537 100.041 189.734 101.506 189.734 103.234V118H182.286V103.19C182.286 102.224 182.146 101.477 181.868 100.949C181.604 100.407 181.224 100.034 180.726 99.8286C180.228 99.6089 179.62 99.499 178.902 99.499C178.038 99.499 177.334 99.6455 176.792 99.9385C176.25 100.231 175.833 100.642 175.54 101.169C175.262 101.682 175.071 102.29 174.969 102.993C174.866 103.696 174.815 104.465 174.815 105.3ZM221.88 109.497C221.88 108.999 221.807 108.552 221.661 108.156C221.514 107.746 221.243 107.365 220.848 107.014C220.452 106.662 219.881 106.311 219.134 105.959C218.401 105.593 217.435 105.212 216.233 104.816C214.827 104.348 213.472 103.82 212.168 103.234C210.865 102.634 209.7 101.938 208.675 101.147C207.649 100.341 206.836 99.4038 206.236 98.3345C205.635 97.2505 205.335 95.9907 205.335 94.5552C205.335 93.1782 205.643 91.9404 206.258 90.8418C206.873 89.7285 207.73 88.7837 208.829 88.0073C209.942 87.2163 211.246 86.6157 212.74 86.2056C214.234 85.7808 215.867 85.5684 217.64 85.5684C219.983 85.5684 222.049 85.9785 223.836 86.7988C225.638 87.6045 227.044 88.7544 228.055 90.2485C229.08 91.728 229.593 93.4785 229.593 95.5H221.924C221.924 94.6943 221.756 93.9839 221.419 93.3687C221.097 92.7534 220.606 92.27 219.947 91.9185C219.288 91.5669 218.46 91.3911 217.464 91.3911C216.497 91.3911 215.684 91.5376 215.025 91.8306C214.366 92.1235 213.868 92.519 213.531 93.0171C213.194 93.5005 213.025 94.0352 213.025 94.6211C213.025 95.1045 213.157 95.5439 213.421 95.9395C213.699 96.3203 214.087 96.6792 214.585 97.0161C215.098 97.353 215.713 97.6753 216.431 97.9829C217.164 98.2905 217.984 98.5908 218.892 98.8838C220.591 99.4258 222.1 100.034 223.418 100.708C224.751 101.367 225.872 102.121 226.78 102.971C227.703 103.806 228.399 104.758 228.868 105.827C229.351 106.896 229.593 108.105 229.593 109.453C229.593 110.888 229.314 112.163 228.758 113.276C228.201 114.389 227.403 115.334 226.363 116.11C225.323 116.872 224.078 117.451 222.627 117.846C221.177 118.242 219.559 118.439 217.771 118.439C216.131 118.439 214.512 118.234 212.916 117.824C211.333 117.399 209.898 116.755 208.609 115.891C207.32 115.012 206.287 113.891 205.511 112.529C204.749 111.152 204.368 109.519 204.368 107.629H212.103C212.103 108.566 212.227 109.357 212.476 110.002C212.725 110.646 213.091 111.167 213.575 111.562C214.058 111.943 214.651 112.221 215.354 112.397C216.058 112.558 216.863 112.639 217.771 112.639C218.753 112.639 219.544 112.5 220.145 112.221C220.745 111.928 221.185 111.547 221.463 111.079C221.741 110.595 221.88 110.068 221.88 109.497ZM245.743 94.2256V99.3672H231.417V94.2256H245.743ZM234.427 88.3149H241.832V110.244C241.832 110.874 241.905 111.364 242.051 111.716C242.198 112.053 242.447 112.294 242.798 112.441C243.165 112.573 243.648 112.639 244.249 112.639C244.673 112.639 245.025 112.631 245.303 112.617C245.582 112.587 245.845 112.551 246.094 112.507V117.802C245.464 118.007 244.805 118.161 244.117 118.264C243.428 118.381 242.696 118.439 241.919 118.439C240.337 118.439 238.982 118.19 237.854 117.692C236.741 117.194 235.892 116.411 235.306 115.341C234.72 114.272 234.427 112.88 234.427 111.167V88.3149ZM261.036 112.023V102.224C261.036 101.55 260.94 100.971 260.75 100.488C260.56 100.004 260.259 99.6309 259.849 99.3672C259.439 99.0889 258.89 98.9497 258.201 98.9497C257.645 98.9497 257.168 99.0449 256.773 99.2354C256.377 99.4258 256.077 99.7114 255.872 100.092C255.667 100.473 255.564 100.957 255.564 101.542H248.16C248.16 100.444 248.401 99.4258 248.885 98.4883C249.383 97.5361 250.086 96.7085 250.994 96.0054C251.917 95.3022 253.016 94.7603 254.29 94.3794C255.579 93.9839 257.015 93.7861 258.597 93.7861C260.486 93.7861 262.171 94.1011 263.65 94.731C265.145 95.3608 266.324 96.3057 267.188 97.5654C268.052 98.8105 268.484 100.378 268.484 102.268V112.001C268.484 113.554 268.572 114.733 268.748 115.539C268.924 116.33 269.173 117.026 269.495 117.626V118H262.068C261.717 117.268 261.453 116.374 261.277 115.319C261.116 114.25 261.036 113.151 261.036 112.023ZM261.937 103.476L261.98 107.431H258.707C258.018 107.431 257.432 107.526 256.949 107.717C256.48 107.907 256.099 108.171 255.806 108.508C255.528 108.83 255.323 109.196 255.191 109.606C255.074 110.017 255.015 110.449 255.015 110.903C255.015 111.342 255.118 111.738 255.323 112.089C255.542 112.426 255.835 112.69 256.202 112.88C256.568 113.071 256.978 113.166 257.432 113.166C258.252 113.166 258.948 113.012 259.52 112.705C260.105 112.382 260.552 111.994 260.86 111.54C261.167 111.086 261.321 110.661 261.321 110.266L262.947 113.298C262.654 113.884 262.317 114.477 261.937 115.078C261.57 115.678 261.109 116.235 260.552 116.748C260.01 117.246 259.344 117.656 258.553 117.978C257.762 118.286 256.802 118.439 255.674 118.439C254.209 118.439 252.862 118.139 251.631 117.539C250.416 116.938 249.441 116.103 248.709 115.034C247.977 113.95 247.61 112.705 247.61 111.298C247.61 110.068 247.83 108.969 248.27 108.002C248.724 107.036 249.405 106.215 250.313 105.542C251.221 104.868 252.378 104.355 253.785 104.003C255.191 103.652 256.846 103.476 258.75 103.476H261.937ZM282.635 112.727C283.323 112.727 283.909 112.602 284.393 112.353C284.891 112.089 285.264 111.723 285.513 111.254C285.777 110.771 285.901 110.192 285.887 109.519H292.852C292.867 111.306 292.427 112.873 291.534 114.221C290.655 115.554 289.454 116.594 287.93 117.341C286.421 118.073 284.715 118.439 282.811 118.439C280.95 118.439 279.324 118.139 277.933 117.539C276.541 116.923 275.376 116.074 274.439 114.99C273.516 113.891 272.82 112.609 272.352 111.145C271.897 109.68 271.67 108.09 271.67 106.376V105.871C271.67 104.157 271.897 102.568 272.352 101.103C272.82 99.6235 273.516 98.3418 274.439 97.2578C275.376 96.1592 276.534 95.3096 277.911 94.709C279.302 94.0938 280.921 93.7861 282.767 93.7861C284.744 93.7861 286.487 94.1597 287.996 94.9067C289.52 95.6538 290.713 96.7378 291.578 98.1587C292.442 99.5796 292.867 101.301 292.852 103.322H285.887C285.901 102.604 285.792 101.96 285.557 101.389C285.323 100.817 284.957 100.363 284.458 100.026C283.975 99.6748 283.353 99.499 282.591 99.499C281.829 99.499 281.214 99.6675 280.745 100.004C280.276 100.341 279.917 100.81 279.668 101.411C279.434 101.997 279.273 102.67 279.185 103.432C279.112 104.194 279.075 105.007 279.075 105.871V106.376C279.075 107.255 279.112 108.083 279.185 108.859C279.273 109.621 279.441 110.295 279.69 110.881C279.939 111.452 280.298 111.906 280.767 112.243C281.236 112.565 281.858 112.727 282.635 112.727ZM303.487 84.228V118H296.082V84.228H303.487ZM318.692 94.2256L308.365 106.333L302.959 111.738L299.729 107.036L304.234 101.169L309.815 94.2256H318.692ZM310.76 118L304.41 107.167L309.881 103.278L319.241 118H310.76Z" fill="#424241"/>
<path d="M1363 15C1363 6.71573 1356.28 0 1348 0H1134V167H1348C1356.28 167 1363 160.284 1363 152V15Z" fill="#026A75"/>
<path fill-rule="evenodd" clip-rule="evenodd" d="M1218.5 55C1218.37 55 1218.24 55.0527 1218.15 55.1464C1218.05 55.2402 1218 55.3674 1218 55.5V111.5C1218 111.633 1218.05 111.76 1218.15 111.854C1218.24 111.947 1218.37 112 1218.5 112H1278C1278.13 112 1278.26 111.947 1278.35 111.854C1278.45 111.76 1278.5 111.633 1278.5 111.5V66C1278.5 65.8674 1278.45 65.7402 1278.35 65.6464C1278.26 65.5527 1278.13 65.5 1278 65.5H1248.25C1247.36 65.5 1246.52 65.1045 1245.95 64.4206L1238.09 55H1218.5ZM1213.9 50.9038C1215.12 49.6848 1216.78 49 1218.5 49H1239.5C1240.39 49 1241.23 49.3955 1241.8 50.0794L1249.66 59.5H1278C1279.72 59.5 1281.38 60.1848 1282.6 61.4038C1283.82 62.6228 1284.5 64.2761 1284.5 66V111.5C1284.5 113.224 1283.82 114.877 1282.6 116.096C1281.38 117.315 1279.72 118 1278 118H1218.5C1216.78 118 1215.12 117.315 1213.9 116.096C1212.68 114.877 1212 113.224 1212 111.5V55.5C1212 53.7761 1212.68 52.1228 1213.9 50.9038Z" fill="white"/>
<path fill-rule="evenodd" clip-rule="evenodd" d="M1243.72 77.5251C1245.09 78.892 1245.09 81.108 1243.72 82.4749L1237.45 88.75L1243.72 95.0251C1245.09 96.392 1245.09 98.608 1243.72 99.9749C1242.36 101.342 1240.14 101.342 1238.78 99.9749L1230.03 91.2249C1228.66 89.858 1228.66 87.642 1230.03 86.2751L1238.78 77.5251C1240.14 76.1583 1242.36 76.1583 1243.72 77.5251Z" fill="white"/>
<path fill-rule="evenodd" clip-rule="evenodd" d="M1252.03 99.9749C1250.66 98.608 1250.66 96.392 1252.03 95.0251L1258.3 88.75L1252.03 82.4749C1250.66 81.108 1250.66 78.892 1252.03 77.5251C1253.39 76.1583 1255.61 76.1583 1256.97 77.5251L1265.72 86.2751C1267.09 87.642 1267.09 89.858 1265.72 91.2249L1256.97 99.9749C1255.61 101.342 1253.39 101.342 1252.03 99.9749Z" fill="white"/>
</svg>
