<svg width="1363" height="167" viewBox="0 0 1363 167" fill="none" xmlns="http://www.w3.org/2000/svg">
<g style="mix-blend-mode:exclusion">
<rect width="1363" height="167" rx="15" fill="white" fill-opacity="0.05"/>
</g>
<g style="mix-blend-mode:exclusion">
<path d="M0 15C0 6.71573 6.71573 0 15 0H37V167H15C6.71573 167 0 160.284 0 152V15Z" fill="white" fill-opacity="0.25"/>
</g>
<g style="mix-blend-mode:exclusion">
<path d="M95.1289 40.9375H98.1055L102.488 53.4648L106.871 40.9375H109.848L103.684 58H101.293L95.1289 40.9375ZM93.5234 40.9375H96.4883L97.0273 53.1484V58H93.5234V40.9375ZM108.488 40.9375H111.465V58H107.949V53.1484L108.488 40.9375ZM113.797 51.7891V51.543C113.797 50.6133 113.93 49.7578 114.195 48.9766C114.461 48.1875 114.848 47.5039 115.355 46.9258C115.863 46.3477 116.488 45.8984 117.23 45.5781C117.973 45.25 118.824 45.0859 119.785 45.0859C120.746 45.0859 121.602 45.25 122.352 45.5781C123.102 45.8984 123.73 46.3477 124.238 46.9258C124.754 47.5039 125.145 48.1875 125.41 48.9766C125.676 49.7578 125.809 50.6133 125.809 51.543V51.7891C125.809 52.7109 125.676 53.5664 125.41 54.3555C125.145 55.1367 124.754 55.8203 124.238 56.4062C123.73 56.9844 123.105 57.4336 122.363 57.7539C121.621 58.0742 120.77 58.2344 119.809 58.2344C118.848 58.2344 117.992 58.0742 117.242 57.7539C116.5 57.4336 115.871 56.9844 115.355 56.4062C114.848 55.8203 114.461 55.1367 114.195 54.3555C113.93 53.5664 113.797 52.7109 113.797 51.7891ZM117.172 51.543V51.7891C117.172 52.3203 117.219 52.8164 117.312 53.2773C117.406 53.7383 117.555 54.1445 117.758 54.4961C117.969 54.8398 118.242 55.1094 118.578 55.3047C118.914 55.5 119.324 55.5977 119.809 55.5977C120.277 55.5977 120.68 55.5 121.016 55.3047C121.352 55.1094 121.621 54.8398 121.824 54.4961C122.027 54.1445 122.176 53.7383 122.27 53.2773C122.371 52.8164 122.422 52.3203 122.422 51.7891V51.543C122.422 51.0273 122.371 50.543 122.27 50.0898C122.176 49.6289 122.023 49.2227 121.812 48.8711C121.609 48.5117 121.34 48.2305 121.004 48.0273C120.668 47.8242 120.262 47.7227 119.785 47.7227C119.309 47.7227 118.902 47.8242 118.566 48.0273C118.238 48.2305 117.969 48.5117 117.758 48.8711C117.555 49.2227 117.406 49.6289 117.312 50.0898C117.219 50.543 117.172 51.0273 117.172 51.543ZM131.188 48.0273V58H127.812V45.3203H130.977L131.188 48.0273ZM130.695 51.2148H129.781C129.781 50.2773 129.902 49.4336 130.145 48.6836C130.387 47.9258 130.727 47.2812 131.164 46.75C131.602 46.2109 132.121 45.8008 132.723 45.5195C133.332 45.2305 134.012 45.0859 134.762 45.0859C135.355 45.0859 135.898 45.1719 136.391 45.3438C136.883 45.5156 137.305 45.7891 137.656 46.1641C138.016 46.5391 138.289 47.0352 138.477 47.6523C138.672 48.2695 138.77 49.0234 138.77 49.9141V58H135.371V49.9023C135.371 49.3398 135.293 48.9023 135.137 48.5898C134.98 48.2773 134.75 48.0586 134.445 47.9336C134.148 47.8008 133.781 47.7344 133.344 47.7344C132.891 47.7344 132.496 47.8242 132.16 48.0039C131.832 48.1836 131.559 48.4336 131.34 48.7539C131.129 49.0664 130.969 49.4336 130.859 49.8555C130.75 50.2773 130.695 50.7305 130.695 51.2148ZM147.172 58.2344C146.188 58.2344 145.305 58.0781 144.523 57.7656C143.742 57.4453 143.078 57.0039 142.531 56.4414C141.992 55.8789 141.578 55.2266 141.289 54.4844C141 53.7344 140.855 52.9375 140.855 52.0938V51.625C140.855 50.6641 140.992 49.7852 141.266 48.9883C141.539 48.1914 141.93 47.5 142.438 46.9141C142.953 46.3281 143.578 45.8789 144.312 45.5664C145.047 45.2461 145.875 45.0859 146.797 45.0859C147.695 45.0859 148.492 45.2344 149.188 45.5312C149.883 45.8281 150.465 46.25 150.934 46.7969C151.41 47.3438 151.77 48 152.012 48.7656C152.254 49.5234 152.375 50.3672 152.375 51.2969V52.7031H142.297V50.4531H149.059V50.1953C149.059 49.7266 148.973 49.3086 148.801 48.9414C148.637 48.5664 148.387 48.2695 148.051 48.0508C147.715 47.832 147.285 47.7227 146.762 47.7227C146.316 47.7227 145.934 47.8203 145.613 48.0156C145.293 48.2109 145.031 48.4844 144.828 48.8359C144.633 49.1875 144.484 49.6016 144.383 50.0781C144.289 50.5469 144.242 51.0625 144.242 51.625V52.0938C144.242 52.6016 144.312 53.0703 144.453 53.5C144.602 53.9297 144.809 54.3008 145.074 54.6133C145.348 54.9258 145.676 55.168 146.059 55.3398C146.449 55.5117 146.891 55.5977 147.383 55.5977C147.992 55.5977 148.559 55.4805 149.082 55.2461C149.613 55.0039 150.07 54.6406 150.453 54.1562L152.094 55.9375C151.828 56.3203 151.465 56.6875 151.004 57.0391C150.551 57.3906 150.004 57.6797 149.363 57.9062C148.723 58.125 147.992 58.2344 147.172 58.2344ZM157.895 56.5703L161.258 45.3203H164.879L159.781 59.9102C159.672 60.2305 159.523 60.5742 159.336 60.9414C159.156 61.3086 158.91 61.6562 158.598 61.9844C158.293 62.3203 157.906 62.5938 157.438 62.8047C156.977 63.0156 156.41 63.1211 155.738 63.1211C155.418 63.1211 155.156 63.1016 154.953 63.0625C154.75 63.0234 154.508 62.9688 154.227 62.8984V60.4258C154.312 60.4258 154.402 60.4258 154.496 60.4258C154.59 60.4336 154.68 60.4375 154.766 60.4375C155.211 60.4375 155.574 60.3867 155.855 60.2852C156.137 60.1836 156.363 60.0273 156.535 59.8164C156.707 59.6133 156.844 59.3477 156.945 59.0195L157.895 56.5703ZM156.488 45.3203L159.242 54.5078L159.723 58.082L157.426 58.3281L152.867 45.3203H156.488ZM183.793 47.8867V50.6289H174.887V47.8867H183.793ZM175.93 40.9375V58H172.414V40.9375H175.93ZM186.301 40.9375V58H182.797V40.9375H186.301ZM188.609 51.7891V51.543C188.609 50.6133 188.742 49.7578 189.008 48.9766C189.273 48.1875 189.66 47.5039 190.168 46.9258C190.676 46.3477 191.301 45.8984 192.043 45.5781C192.785 45.25 193.637 45.0859 194.598 45.0859C195.559 45.0859 196.414 45.25 197.164 45.5781C197.914 45.8984 198.543 46.3477 199.051 46.9258C199.566 47.5039 199.957 48.1875 200.223 48.9766C200.488 49.7578 200.621 50.6133 200.621 51.543V51.7891C200.621 52.7109 200.488 53.5664 200.223 54.3555C199.957 55.1367 199.566 55.8203 199.051 56.4062C198.543 56.9844 197.918 57.4336 197.176 57.7539C196.434 58.0742 195.582 58.2344 194.621 58.2344C193.66 58.2344 192.805 58.0742 192.055 57.7539C191.312 57.4336 190.684 56.9844 190.168 56.4062C189.66 55.8203 189.273 55.1367 189.008 54.3555C188.742 53.5664 188.609 52.7109 188.609 51.7891ZM191.984 51.543V51.7891C191.984 52.3203 192.031 52.8164 192.125 53.2773C192.219 53.7383 192.367 54.1445 192.57 54.4961C192.781 54.8398 193.055 55.1094 193.391 55.3047C193.727 55.5 194.137 55.5977 194.621 55.5977C195.09 55.5977 195.492 55.5 195.828 55.3047C196.164 55.1094 196.434 54.8398 196.637 54.4961C196.84 54.1445 196.988 53.7383 197.082 53.2773C197.184 52.8164 197.234 52.3203 197.234 51.7891V51.543C197.234 51.0273 197.184 50.543 197.082 50.0898C196.988 49.6289 196.836 49.2227 196.625 48.8711C196.422 48.5117 196.152 48.2305 195.816 48.0273C195.48 47.8242 195.074 47.7227 194.598 47.7227C194.121 47.7227 193.715 47.8242 193.379 48.0273C193.051 48.2305 192.781 48.5117 192.57 48.8711C192.367 49.2227 192.219 49.6289 192.125 50.0898C192.031 50.543 191.984 51.0273 191.984 51.543ZM210.195 54.9648V45.3203H213.57V58H210.395L210.195 54.9648ZM210.57 52.3633L211.566 52.3398C211.566 53.1836 211.469 53.9688 211.273 54.6953C211.078 55.4141 210.785 56.0391 210.395 56.5703C210.004 57.0938 209.512 57.5039 208.918 57.8008C208.324 58.0898 207.625 58.2344 206.82 58.2344C206.203 58.2344 205.633 58.1484 205.109 57.9766C204.594 57.7969 204.148 57.5195 203.773 57.1445C203.406 56.7617 203.117 56.2734 202.906 55.6797C202.703 55.0781 202.602 54.3555 202.602 53.5117V45.3203H205.977V53.5352C205.977 53.9102 206.02 54.2266 206.105 54.4844C206.199 54.7422 206.328 54.9531 206.492 55.1172C206.656 55.2812 206.848 55.3984 207.066 55.4688C207.293 55.5391 207.543 55.5742 207.816 55.5742C208.512 55.5742 209.059 55.4336 209.457 55.1523C209.863 54.8711 210.148 54.4883 210.312 54.0039C210.484 53.5117 210.57 52.9648 210.57 52.3633ZM219.453 48.0273V58H216.078V45.3203H219.242L219.453 48.0273ZM218.961 51.2148H218.047C218.047 50.2773 218.168 49.4336 218.41 48.6836C218.652 47.9258 218.992 47.2812 219.43 46.75C219.867 46.2109 220.387 45.8008 220.988 45.5195C221.598 45.2305 222.277 45.0859 223.027 45.0859C223.621 45.0859 224.164 45.1719 224.656 45.3438C225.148 45.5156 225.57 45.7891 225.922 46.1641C226.281 46.5391 226.555 47.0352 226.742 47.6523C226.938 48.2695 227.035 49.0234 227.035 49.9141V58H223.637V49.9023C223.637 49.3398 223.559 48.9023 223.402 48.5898C223.246 48.2773 223.016 48.0586 222.711 47.9336C222.414 47.8008 222.047 47.7344 221.609 47.7344C221.156 47.7344 220.762 47.8242 220.426 48.0039C220.098 48.1836 219.824 48.4336 219.605 48.7539C219.395 49.0664 219.234 49.4336 219.125 49.8555C219.016 50.2773 218.961 50.7305 218.961 51.2148ZM237.09 55.2344V40H240.488V58H237.43L237.09 55.2344ZM229.074 51.8125V51.5664C229.074 50.5977 229.184 49.7188 229.402 48.9297C229.621 48.1328 229.941 47.4492 230.363 46.8789C230.785 46.3086 231.305 45.8672 231.922 45.5547C232.539 45.2422 233.242 45.0859 234.031 45.0859C234.773 45.0859 235.422 45.2422 235.977 45.5547C236.539 45.8672 237.016 46.3125 237.406 46.8906C237.805 47.4609 238.125 48.1367 238.367 48.918C238.609 49.6914 238.785 50.5391 238.895 51.4609V52C238.785 52.8828 238.609 53.7031 238.367 54.4609C238.125 55.2188 237.805 55.8828 237.406 56.4531C237.016 57.0156 236.539 57.4531 235.977 57.7656C235.414 58.0781 234.758 58.2344 234.008 58.2344C233.219 58.2344 232.516 58.0742 231.898 57.7539C231.289 57.4336 230.773 56.9844 230.352 56.4062C229.938 55.8281 229.621 55.1484 229.402 54.3672C229.184 53.5859 229.074 52.7344 229.074 51.8125ZM232.449 51.5664V51.8125C232.449 52.3359 232.488 52.8242 232.566 53.2773C232.652 53.7305 232.789 54.1328 232.977 54.4844C233.172 54.8281 233.422 55.0977 233.727 55.293C234.039 55.4805 234.418 55.5742 234.863 55.5742C235.441 55.5742 235.918 55.4453 236.293 55.1875C236.668 54.9219 236.953 54.5586 237.148 54.0977C237.352 53.6367 237.469 53.1055 237.5 52.5039V50.9688C237.477 50.4766 237.406 50.0352 237.289 49.6445C237.18 49.2461 237.016 48.9062 236.797 48.625C236.586 48.3438 236.32 48.125 236 47.9688C235.688 47.8125 235.316 47.7344 234.887 47.7344C234.449 47.7344 234.074 47.8359 233.762 48.0391C233.449 48.2344 233.195 48.5039 233 48.8477C232.812 49.1914 232.672 49.5977 232.578 50.0664C232.492 50.5273 232.449 51.0273 232.449 51.5664Z" fill="white" fill-opacity="0.5"/>
</g>
<g style="mix-blend-mode:exclusion">
<path d="M107.205 107.146H99.251V101.191H107.205C108.289 101.191 109.168 101.008 109.842 100.642C110.516 100.275 111.006 99.77 111.314 99.1255C111.636 98.4663 111.797 97.7266 111.797 96.9062C111.797 96.0273 111.636 95.2144 111.314 94.4673C111.006 93.7202 110.516 93.1196 109.842 92.6655C109.168 92.1968 108.289 91.9624 107.205 91.9624H102.151V118H94.439V86.0078H107.205C109.769 86.0078 111.973 86.4766 113.819 87.4141C115.679 88.3516 117.107 89.6406 118.104 91.2812C119.1 92.9072 119.598 94.7676 119.598 96.8623C119.598 98.9277 119.1 100.729 118.104 102.268C117.107 103.806 115.679 105.007 113.819 105.871C111.973 106.721 109.769 107.146 107.205 107.146ZM130.87 100.114V118H123.465V94.2256H130.386L130.87 100.114ZM137.901 94.0498L137.769 100.927C137.476 100.898 137.081 100.861 136.583 100.817C136.084 100.773 135.667 100.751 135.33 100.751C134.466 100.751 133.719 100.854 133.089 101.059C132.474 101.25 131.961 101.542 131.551 101.938C131.155 102.319 130.862 102.802 130.672 103.388C130.496 103.974 130.416 104.655 130.43 105.432L129.09 104.553C129.09 102.956 129.244 101.506 129.551 100.202C129.874 98.8838 130.328 97.7485 130.914 96.7964C131.5 95.8296 132.21 95.0898 133.045 94.5771C133.88 94.0498 134.817 93.7861 135.857 93.7861C136.224 93.7861 136.583 93.8081 136.934 93.8521C137.3 93.896 137.623 93.9619 137.901 94.0498ZM138.736 106.354V105.893C138.736 104.15 138.985 102.546 139.483 101.081C139.981 99.6016 140.713 98.3198 141.68 97.2358C142.647 96.1519 143.841 95.3096 145.262 94.709C146.683 94.0938 148.323 93.7861 150.184 93.7861C152.059 93.7861 153.707 94.0938 155.127 94.709C156.563 95.3096 157.764 96.1519 158.731 97.2358C159.698 98.3198 160.43 99.6016 160.928 101.081C161.426 102.546 161.675 104.15 161.675 105.893V106.354C161.675 108.083 161.426 109.687 160.928 111.167C160.43 112.631 159.698 113.913 158.731 115.012C157.764 116.096 156.57 116.938 155.149 117.539C153.729 118.139 152.088 118.439 150.228 118.439C148.367 118.439 146.719 118.139 145.284 117.539C143.848 116.938 142.647 116.096 141.68 115.012C140.713 113.913 139.981 112.631 139.483 111.167C138.985 109.687 138.736 108.083 138.736 106.354ZM146.141 105.893V106.354C146.141 107.248 146.207 108.083 146.338 108.859C146.47 109.636 146.69 110.317 146.998 110.903C147.305 111.474 147.723 111.921 148.25 112.243C148.777 112.565 149.437 112.727 150.228 112.727C151.004 112.727 151.648 112.565 152.161 112.243C152.688 111.921 153.106 111.474 153.414 110.903C153.721 110.317 153.941 109.636 154.073 108.859C154.205 108.083 154.271 107.248 154.271 106.354V105.893C154.271 105.029 154.205 104.216 154.073 103.454C153.941 102.678 153.721 101.997 153.414 101.411C153.106 100.81 152.688 100.341 152.161 100.004C151.634 99.6675 150.975 99.499 150.184 99.499C149.407 99.499 148.755 99.6675 148.228 100.004C147.715 100.341 147.305 100.81 146.998 101.411C146.69 101.997 146.47 102.678 146.338 103.454C146.207 104.216 146.141 105.029 146.141 105.893ZM177.496 94.2256V99.3672H163.169V94.2256H177.496ZM166.18 88.3149H173.584V110.244C173.584 110.874 173.658 111.364 173.804 111.716C173.951 112.053 174.2 112.294 174.551 112.441C174.917 112.573 175.401 112.639 176.001 112.639C176.426 112.639 176.778 112.631 177.056 112.617C177.334 112.587 177.598 112.551 177.847 112.507V117.802C177.217 118.007 176.558 118.161 175.87 118.264C175.181 118.381 174.449 118.439 173.672 118.439C172.09 118.439 170.735 118.19 169.607 117.692C168.494 117.194 167.645 116.411 167.059 115.341C166.473 114.272 166.18 112.88 166.18 111.167V88.3149ZM178.858 106.354V105.893C178.858 104.15 179.107 102.546 179.605 101.081C180.103 99.6016 180.835 98.3198 181.802 97.2358C182.769 96.1519 183.963 95.3096 185.384 94.709C186.805 94.0938 188.445 93.7861 190.306 93.7861C192.181 93.7861 193.829 94.0938 195.25 94.709C196.685 95.3096 197.886 96.1519 198.853 97.2358C199.82 98.3198 200.552 99.6016 201.05 101.081C201.548 102.546 201.797 104.15 201.797 105.893V106.354C201.797 108.083 201.548 109.687 201.05 111.167C200.552 112.631 199.82 113.913 198.853 115.012C197.886 116.096 196.692 116.938 195.271 117.539C193.851 118.139 192.21 118.439 190.35 118.439C188.489 118.439 186.841 118.139 185.406 117.539C183.97 116.938 182.769 116.096 181.802 115.012C180.835 113.913 180.103 112.631 179.605 111.167C179.107 109.687 178.858 108.083 178.858 106.354ZM186.263 105.893V106.354C186.263 107.248 186.329 108.083 186.46 108.859C186.592 109.636 186.812 110.317 187.12 110.903C187.427 111.474 187.845 111.921 188.372 112.243C188.899 112.565 189.559 112.727 190.35 112.727C191.126 112.727 191.771 112.565 192.283 112.243C192.811 111.921 193.228 111.474 193.536 110.903C193.843 110.317 194.063 109.636 194.195 108.859C194.327 108.083 194.393 107.248 194.393 106.354V105.893C194.393 105.029 194.327 104.216 194.195 103.454C194.063 102.678 193.843 101.997 193.536 101.411C193.228 100.81 192.811 100.341 192.283 100.004C191.756 99.6675 191.097 99.499 190.306 99.499C189.529 99.499 188.877 99.6675 188.35 100.004C187.837 100.341 187.427 100.81 187.12 101.411C186.812 101.997 186.592 102.678 186.46 103.454C186.329 104.216 186.263 105.029 186.263 105.893ZM217.618 94.2256V99.3672H203.292V94.2256H217.618ZM206.302 88.3149H213.707V110.244C213.707 110.874 213.78 111.364 213.926 111.716C214.073 112.053 214.322 112.294 214.673 112.441C215.04 112.573 215.523 112.639 216.124 112.639C216.548 112.639 216.9 112.631 217.178 112.617C217.457 112.587 217.72 112.551 217.969 112.507V117.802C217.339 118.007 216.68 118.161 215.992 118.264C215.303 118.381 214.571 118.439 213.794 118.439C212.212 118.439 210.857 118.19 209.729 117.692C208.616 117.194 207.767 116.411 207.181 115.341C206.595 114.272 206.302 112.88 206.302 111.167V88.3149ZM227.857 115.209L234.009 94.2256H241.963L232.405 121.538C232.2 122.138 231.929 122.783 231.592 123.471C231.255 124.174 230.794 124.841 230.208 125.471C229.622 126.101 228.868 126.613 227.945 127.009C227.037 127.404 225.909 127.602 224.561 127.602C223.843 127.602 223.316 127.565 222.979 127.492C222.657 127.434 222.159 127.324 221.485 127.163V121.867C221.675 121.867 221.836 121.867 221.968 121.867C222.115 121.867 222.276 121.867 222.452 121.867C223.243 121.867 223.873 121.787 224.341 121.625C224.825 121.464 225.191 121.23 225.44 120.922C225.704 120.615 225.909 120.241 226.055 119.802L227.857 115.209ZM226.297 94.2256L230.977 110.859L231.79 118.703H226.824L218.365 94.2256H226.297ZM251.368 98.7959V127.141H243.963V94.2256H250.862L251.368 98.7959ZM265.958 105.827V106.289C265.958 108.017 265.76 109.621 265.364 111.101C264.969 112.58 264.383 113.869 263.606 114.968C262.83 116.066 261.863 116.923 260.706 117.539C259.563 118.139 258.238 118.439 256.729 118.439C255.308 118.439 254.085 118.125 253.06 117.495C252.034 116.865 251.177 115.993 250.489 114.88C249.8 113.767 249.244 112.492 248.819 111.057C248.394 109.621 248.057 108.105 247.808 106.508V105.915C248.057 104.201 248.394 102.612 248.819 101.147C249.244 99.6675 249.8 98.3784 250.489 97.2798C251.177 96.1812 252.027 95.3242 253.038 94.709C254.063 94.0938 255.286 93.7861 256.707 93.7861C258.216 93.7861 259.542 94.0718 260.684 94.6431C261.841 95.2144 262.808 96.0347 263.584 97.104C264.375 98.1587 264.969 99.4258 265.364 100.905C265.76 102.385 265.958 104.025 265.958 105.827ZM258.553 106.289V105.827C258.553 104.904 258.487 104.062 258.355 103.3C258.223 102.524 258.011 101.85 257.718 101.279C257.439 100.708 257.066 100.268 256.597 99.9604C256.128 99.6528 255.55 99.499 254.861 99.499C254.07 99.499 253.404 99.6235 252.862 99.8726C252.334 100.107 251.91 100.473 251.587 100.971C251.28 101.455 251.06 102.062 250.928 102.795C250.811 103.513 250.76 104.355 250.774 105.322V107.124C250.745 108.237 250.855 109.218 251.104 110.068C251.353 110.903 251.785 111.555 252.4 112.023C253.016 112.492 253.851 112.727 254.905 112.727C255.608 112.727 256.194 112.565 256.663 112.243C257.132 111.906 257.505 111.445 257.784 110.859C258.062 110.258 258.26 109.57 258.377 108.793C258.494 108.017 258.553 107.182 258.553 106.289ZM277.076 94.2256V118H269.649V94.2256H277.076ZM269.209 88.0952C269.209 87.0405 269.59 86.1763 270.352 85.5024C271.114 84.8286 272.103 84.4917 273.318 84.4917C274.534 84.4917 275.523 84.8286 276.285 85.5024C277.046 86.1763 277.427 87.0405 277.427 88.0952C277.427 89.1499 277.046 90.0142 276.285 90.688C275.523 91.3618 274.534 91.6987 273.318 91.6987C272.103 91.6987 271.114 91.3618 270.352 90.688C269.59 90.0142 269.209 89.1499 269.209 88.0952ZM288.919 99.3013V118H281.514V94.2256H288.458L288.919 99.3013ZM288.04 105.3L286.304 105.344C286.304 103.527 286.524 101.909 286.963 100.488C287.403 99.0522 288.025 97.8364 288.831 96.8403C289.637 95.8442 290.596 95.0898 291.709 94.5771C292.837 94.0498 294.09 93.7861 295.467 93.7861C296.565 93.7861 297.569 93.9473 298.477 94.2695C299.4 94.5918 300.191 95.1118 300.85 95.8296C301.524 96.5474 302.037 97.4995 302.388 98.686C302.754 99.8579 302.938 101.308 302.938 103.037V118H295.489V103.015C295.489 102.062 295.357 101.337 295.093 100.839C294.83 100.327 294.449 99.9751 293.951 99.7847C293.453 99.5942 292.845 99.499 292.127 99.499C291.365 99.499 290.721 99.6455 290.193 99.9385C289.666 100.231 289.241 100.642 288.919 101.169C288.611 101.682 288.384 102.29 288.238 102.993C288.106 103.696 288.04 104.465 288.04 105.3ZM321.988 94.2256H328.711V117.077C328.711 119.274 328.206 121.135 327.195 122.658C326.185 124.196 324.771 125.361 322.955 126.152C321.153 126.958 319.043 127.36 316.626 127.36C315.557 127.36 314.466 127.221 313.353 126.943C312.239 126.679 311.199 126.284 310.232 125.756C309.266 125.229 308.453 124.577 307.793 123.801L310.892 119.45C311.492 120.124 312.247 120.695 313.155 121.164C314.063 121.647 315.132 121.889 316.363 121.889C317.432 121.889 318.326 121.699 319.043 121.318C319.776 120.937 320.333 120.38 320.713 119.648C321.094 118.93 321.285 118.059 321.285 117.033V99.8506L321.988 94.2256ZM306.189 106.398V105.937C306.189 104.135 306.409 102.495 306.849 101.015C307.303 99.521 307.947 98.2393 308.782 97.1699C309.632 96.0859 310.657 95.251 311.858 94.665C313.06 94.0791 314.415 93.7861 315.923 93.7861C317.549 93.7861 318.882 94.1011 319.922 94.731C320.977 95.3462 321.819 96.2104 322.449 97.3237C323.094 98.437 323.592 99.7407 323.943 101.235C324.31 102.714 324.617 104.311 324.866 106.025V106.574C324.617 108.186 324.273 109.709 323.833 111.145C323.409 112.565 322.852 113.825 322.164 114.924C321.475 116.022 320.611 116.887 319.571 117.517C318.545 118.132 317.315 118.439 315.879 118.439C314.385 118.439 313.038 118.139 311.836 117.539C310.65 116.938 309.632 116.096 308.782 115.012C307.947 113.928 307.303 112.653 306.849 111.188C306.409 109.724 306.189 108.127 306.189 106.398ZM313.594 105.937V106.398C313.594 107.292 313.675 108.12 313.836 108.881C314.012 109.643 314.275 110.317 314.627 110.903C314.979 111.474 315.411 111.921 315.923 112.243C316.451 112.565 317.066 112.727 317.769 112.727C318.838 112.727 319.703 112.5 320.362 112.045C321.021 111.591 321.497 110.947 321.79 110.112C322.083 109.277 322.208 108.295 322.164 107.167V105.432C322.193 104.465 322.127 103.615 321.966 102.883C321.805 102.136 321.548 101.513 321.197 101.015C320.86 100.517 320.406 100.144 319.834 99.8945C319.278 99.6309 318.604 99.499 317.813 99.499C317.125 99.499 316.517 99.6602 315.989 99.9824C315.462 100.305 315.022 100.759 314.671 101.345C314.319 101.916 314.048 102.597 313.858 103.388C313.682 104.165 313.594 105.014 313.594 105.937Z" fill="white"/>
</g>
<path d="M1363 15C1363 6.71573 1356.28 0 1348 0H1134V167H1348C1356.28 167 1363 160.284 1363 152V15Z" fill="#026A75"/>
<path fill-rule="evenodd" clip-rule="evenodd" d="M1203 49C1203 47.8954 1203.9 47 1205 47H1292.5C1293.6 47 1294.5 47.8954 1294.5 49V118.996C1294.5 120.101 1293.6 120.996 1292.5 120.996H1205C1203.9 120.996 1203 120.101 1203 118.996V49ZM1207 51V55.4945H1290.5V51H1207ZM1290.5 59.4945H1235.44V116.996H1290.5V59.4945ZM1231.44 116.996V59.4945H1207V116.996H1231.44Z" fill="white"/>
<path fill-rule="evenodd" clip-rule="evenodd" d="M1209.97 64.8004C1209.97 63.6958 1210.87 62.8004 1211.97 62.8004H1225.97C1227.08 62.8004 1227.97 63.6958 1227.97 64.8004V84.1956C1227.97 85.3001 1227.08 86.1956 1225.97 86.1956H1211.97C1210.87 86.1956 1209.97 85.3001 1209.97 84.1956V64.8004ZM1213.97 66.8004V82.1956H1223.97V66.8004H1213.97ZM1239.58 65.6964C1239.58 64.5918 1240.47 63.6964 1241.58 63.6964H1284.5C1285.61 63.6964 1286.5 64.5918 1286.5 65.6964V111.905C1286.5 113.01 1285.61 113.905 1284.5 113.905H1241.58C1240.47 113.905 1239.58 113.01 1239.58 111.905V65.6964ZM1243.58 67.6964V109.905H1282.5V67.6964H1243.58ZM1209.81 95.9363C1209.81 94.8317 1210.71 93.9363 1211.81 93.9363H1220.73C1221.84 93.9363 1222.73 94.8317 1222.73 95.9363C1222.73 97.0409 1221.84 97.9363 1220.73 97.9363H1211.81C1210.71 97.9363 1209.81 97.0409 1209.81 95.9363ZM1209.81 102.936C1209.81 101.832 1210.71 100.936 1211.81 100.936H1226.35C1227.46 100.936 1228.35 101.832 1228.35 102.936C1228.35 104.041 1227.46 104.936 1226.35 104.936H1211.81C1210.71 104.936 1209.81 104.041 1209.81 102.936ZM1209.81 109.936C1209.81 108.832 1210.71 107.936 1211.81 107.936H1220.73C1221.84 107.936 1222.73 108.832 1222.73 109.936C1222.73 111.041 1221.84 111.936 1220.73 111.936H1211.81C1210.71 111.936 1209.81 111.041 1209.81 109.936Z" fill="white"/>
</svg>
