<svg width="1363" height="167" viewBox="0 0 1363 167" fill="none" xmlns="http://www.w3.org/2000/svg">
<rect width="1363" height="167" rx="15" fill="#F0F0F0"/>
<path d="M0 15C0 6.71573 6.71573 0 15 0H37V167H15C6.71573 167 0 160.284 0 152V15Z" fill="#424241"/>
<path d="M100.906 54.9219L93.3945 52.2383V49.0859L103.602 53.375V55.6367L100.906 54.9219ZM93.3945 57.1719L100.918 54.4297L103.602 53.7852V56.0352L93.3945 60.3242V57.1719ZM113.504 44.9375H116.48L120.863 57.4648L125.246 44.9375H128.223L122.059 62H119.668L113.504 44.9375ZM111.898 44.9375H114.863L115.402 57.1484V62H111.898V44.9375ZM126.863 44.9375H129.84V62H126.324V57.1484L126.863 44.9375ZM132.172 55.7891V55.543C132.172 54.6133 132.305 53.7578 132.57 52.9766C132.836 52.1875 133.223 51.5039 133.73 50.9258C134.238 50.3477 134.863 49.8984 135.605 49.5781C136.348 49.25 137.199 49.0859 138.16 49.0859C139.121 49.0859 139.977 49.25 140.727 49.5781C141.477 49.8984 142.105 50.3477 142.613 50.9258C143.129 51.5039 143.52 52.1875 143.785 52.9766C144.051 53.7578 144.184 54.6133 144.184 55.543V55.7891C144.184 56.7109 144.051 57.5664 143.785 58.3555C143.52 59.1367 143.129 59.8203 142.613 60.4062C142.105 60.9844 141.48 61.4336 140.738 61.7539C139.996 62.0742 139.145 62.2344 138.184 62.2344C137.223 62.2344 136.367 62.0742 135.617 61.7539C134.875 61.4336 134.246 60.9844 133.73 60.4062C133.223 59.8203 132.836 59.1367 132.57 58.3555C132.305 57.5664 132.172 56.7109 132.172 55.7891ZM135.547 55.543V55.7891C135.547 56.3203 135.594 56.8164 135.688 57.2773C135.781 57.7383 135.93 58.1445 136.133 58.4961C136.344 58.8398 136.617 59.1094 136.953 59.3047C137.289 59.5 137.699 59.5977 138.184 59.5977C138.652 59.5977 139.055 59.5 139.391 59.3047C139.727 59.1094 139.996 58.8398 140.199 58.4961C140.402 58.1445 140.551 57.7383 140.645 57.2773C140.746 56.8164 140.797 56.3203 140.797 55.7891V55.543C140.797 55.0273 140.746 54.543 140.645 54.0898C140.551 53.6289 140.398 53.2227 140.188 52.8711C139.984 52.5117 139.715 52.2305 139.379 52.0273C139.043 51.8242 138.637 51.7227 138.16 51.7227C137.684 51.7227 137.277 51.8242 136.941 52.0273C136.613 52.2305 136.344 52.5117 136.133 52.8711C135.93 53.2227 135.781 53.6289 135.688 54.0898C135.594 54.543 135.547 55.0273 135.547 55.543ZM149.562 52.0273V62H146.188V49.3203H149.352L149.562 52.0273ZM149.07 55.2148H148.156C148.156 54.2773 148.277 53.4336 148.52 52.6836C148.762 51.9258 149.102 51.2812 149.539 50.75C149.977 50.2109 150.496 49.8008 151.098 49.5195C151.707 49.2305 152.387 49.0859 153.137 49.0859C153.73 49.0859 154.273 49.1719 154.766 49.3438C155.258 49.5156 155.68 49.7891 156.031 50.1641C156.391 50.5391 156.664 51.0352 156.852 51.6523C157.047 52.2695 157.145 53.0234 157.145 53.9141V62H153.746V53.9023C153.746 53.3398 153.668 52.9023 153.512 52.5898C153.355 52.2773 153.125 52.0586 152.82 51.9336C152.523 51.8008 152.156 51.7344 151.719 51.7344C151.266 51.7344 150.871 51.8242 150.535 52.0039C150.207 52.1836 149.934 52.4336 149.715 52.7539C149.504 53.0664 149.344 53.4336 149.234 53.8555C149.125 54.2773 149.07 54.7305 149.07 55.2148ZM165.547 62.2344C164.562 62.2344 163.68 62.0781 162.898 61.7656C162.117 61.4453 161.453 61.0039 160.906 60.4414C160.367 59.8789 159.953 59.2266 159.664 58.4844C159.375 57.7344 159.23 56.9375 159.23 56.0938V55.625C159.23 54.6641 159.367 53.7852 159.641 52.9883C159.914 52.1914 160.305 51.5 160.812 50.9141C161.328 50.3281 161.953 49.8789 162.688 49.5664C163.422 49.2461 164.25 49.0859 165.172 49.0859C166.07 49.0859 166.867 49.2344 167.562 49.5312C168.258 49.8281 168.84 50.25 169.309 50.7969C169.785 51.3438 170.145 52 170.387 52.7656C170.629 53.5234 170.75 54.3672 170.75 55.2969V56.7031H160.672V54.4531H167.434V54.1953C167.434 53.7266 167.348 53.3086 167.176 52.9414C167.012 52.5664 166.762 52.2695 166.426 52.0508C166.09 51.832 165.66 51.7227 165.137 51.7227C164.691 51.7227 164.309 51.8203 163.988 52.0156C163.668 52.2109 163.406 52.4844 163.203 52.8359C163.008 53.1875 162.859 53.6016 162.758 54.0781C162.664 54.5469 162.617 55.0625 162.617 55.625V56.0938C162.617 56.6016 162.688 57.0703 162.828 57.5C162.977 57.9297 163.184 58.3008 163.449 58.6133C163.723 58.9258 164.051 59.168 164.434 59.3398C164.824 59.5117 165.266 59.5977 165.758 59.5977C166.367 59.5977 166.934 59.4805 167.457 59.2461C167.988 59.0039 168.445 58.6406 168.828 58.1562L170.469 59.9375C170.203 60.3203 169.84 60.6875 169.379 61.0391C168.926 61.3906 168.379 61.6797 167.738 61.9062C167.098 62.125 166.367 62.2344 165.547 62.2344ZM176.27 60.5703L179.633 49.3203H183.254L178.156 63.9102C178.047 64.2305 177.898 64.5742 177.711 64.9414C177.531 65.3086 177.285 65.6562 176.973 65.9844C176.668 66.3203 176.281 66.5938 175.812 66.8047C175.352 67.0156 174.785 67.1211 174.113 67.1211C173.793 67.1211 173.531 67.1016 173.328 67.0625C173.125 67.0234 172.883 66.9688 172.602 66.8984V64.4258C172.688 64.4258 172.777 64.4258 172.871 64.4258C172.965 64.4336 173.055 64.4375 173.141 64.4375C173.586 64.4375 173.949 64.3867 174.23 64.2852C174.512 64.1836 174.738 64.0273 174.91 63.8164C175.082 63.6133 175.219 63.3477 175.32 63.0195L176.27 60.5703ZM174.863 49.3203L177.617 58.5078L178.098 62.082L175.801 62.3281L171.242 49.3203H174.863ZM202.168 51.8867V54.6289H193.262V51.8867H202.168ZM194.305 44.9375V62H190.789V44.9375H194.305ZM204.676 44.9375V62H201.172V44.9375H204.676ZM206.984 55.7891V55.543C206.984 54.6133 207.117 53.7578 207.383 52.9766C207.648 52.1875 208.035 51.5039 208.543 50.9258C209.051 50.3477 209.676 49.8984 210.418 49.5781C211.16 49.25 212.012 49.0859 212.973 49.0859C213.934 49.0859 214.789 49.25 215.539 49.5781C216.289 49.8984 216.918 50.3477 217.426 50.9258C217.941 51.5039 218.332 52.1875 218.598 52.9766C218.863 53.7578 218.996 54.6133 218.996 55.543V55.7891C218.996 56.7109 218.863 57.5664 218.598 58.3555C218.332 59.1367 217.941 59.8203 217.426 60.4062C216.918 60.9844 216.293 61.4336 215.551 61.7539C214.809 62.0742 213.957 62.2344 212.996 62.2344C212.035 62.2344 211.18 62.0742 210.43 61.7539C209.688 61.4336 209.059 60.9844 208.543 60.4062C208.035 59.8203 207.648 59.1367 207.383 58.3555C207.117 57.5664 206.984 56.7109 206.984 55.7891ZM210.359 55.543V55.7891C210.359 56.3203 210.406 56.8164 210.5 57.2773C210.594 57.7383 210.742 58.1445 210.945 58.4961C211.156 58.8398 211.43 59.1094 211.766 59.3047C212.102 59.5 212.512 59.5977 212.996 59.5977C213.465 59.5977 213.867 59.5 214.203 59.3047C214.539 59.1094 214.809 58.8398 215.012 58.4961C215.215 58.1445 215.363 57.7383 215.457 57.2773C215.559 56.8164 215.609 56.3203 215.609 55.7891V55.543C215.609 55.0273 215.559 54.543 215.457 54.0898C215.363 53.6289 215.211 53.2227 215 52.8711C214.797 52.5117 214.527 52.2305 214.191 52.0273C213.855 51.8242 213.449 51.7227 212.973 51.7227C212.496 51.7227 212.09 51.8242 211.754 52.0273C211.426 52.2305 211.156 52.5117 210.945 52.8711C210.742 53.2227 210.594 53.6289 210.5 54.0898C210.406 54.543 210.359 55.0273 210.359 55.543ZM228.57 58.9648V49.3203H231.945V62H228.77L228.57 58.9648ZM228.945 56.3633L229.941 56.3398C229.941 57.1836 229.844 57.9688 229.648 58.6953C229.453 59.4141 229.16 60.0391 228.77 60.5703C228.379 61.0938 227.887 61.5039 227.293 61.8008C226.699 62.0898 226 62.2344 225.195 62.2344C224.578 62.2344 224.008 62.1484 223.484 61.9766C222.969 61.7969 222.523 61.5195 222.148 61.1445C221.781 60.7617 221.492 60.2734 221.281 59.6797C221.078 59.0781 220.977 58.3555 220.977 57.5117V49.3203H224.352V57.5352C224.352 57.9102 224.395 58.2266 224.48 58.4844C224.574 58.7422 224.703 58.9531 224.867 59.1172C225.031 59.2812 225.223 59.3984 225.441 59.4688C225.668 59.5391 225.918 59.5742 226.191 59.5742C226.887 59.5742 227.434 59.4336 227.832 59.1523C228.238 58.8711 228.523 58.4883 228.688 58.0039C228.859 57.5117 228.945 56.9648 228.945 56.3633ZM237.828 52.0273V62H234.453V49.3203H237.617L237.828 52.0273ZM237.336 55.2148H236.422C236.422 54.2773 236.543 53.4336 236.785 52.6836C237.027 51.9258 237.367 51.2812 237.805 50.75C238.242 50.2109 238.762 49.8008 239.363 49.5195C239.973 49.2305 240.652 49.0859 241.402 49.0859C241.996 49.0859 242.539 49.1719 243.031 49.3438C243.523 49.5156 243.945 49.7891 244.297 50.1641C244.656 50.5391 244.93 51.0352 245.117 51.6523C245.312 52.2695 245.41 53.0234 245.41 53.9141V62H242.012V53.9023C242.012 53.3398 241.934 52.9023 241.777 52.5898C241.621 52.2773 241.391 52.0586 241.086 51.9336C240.789 51.8008 240.422 51.7344 239.984 51.7344C239.531 51.7344 239.137 51.8242 238.801 52.0039C238.473 52.1836 238.199 52.4336 237.98 52.7539C237.77 53.0664 237.609 53.4336 237.5 53.8555C237.391 54.2773 237.336 54.7305 237.336 55.2148ZM255.465 59.2344V44H258.863V62H255.805L255.465 59.2344ZM247.449 55.8125V55.5664C247.449 54.5977 247.559 53.7188 247.777 52.9297C247.996 52.1328 248.316 51.4492 248.738 50.8789C249.16 50.3086 249.68 49.8672 250.297 49.5547C250.914 49.2422 251.617 49.0859 252.406 49.0859C253.148 49.0859 253.797 49.2422 254.352 49.5547C254.914 49.8672 255.391 50.3125 255.781 50.8906C256.18 51.4609 256.5 52.1367 256.742 52.918C256.984 53.6914 257.16 54.5391 257.27 55.4609V56C257.16 56.8828 256.984 57.7031 256.742 58.4609C256.5 59.2188 256.18 59.8828 255.781 60.4531C255.391 61.0156 254.914 61.4531 254.352 61.7656C253.789 62.0781 253.133 62.2344 252.383 62.2344C251.594 62.2344 250.891 62.0742 250.273 61.7539C249.664 61.4336 249.148 60.9844 248.727 60.4062C248.312 59.8281 247.996 59.1484 247.777 58.3672C247.559 57.5859 247.449 56.7344 247.449 55.8125ZM250.824 55.5664V55.8125C250.824 56.3359 250.863 56.8242 250.941 57.2773C251.027 57.7305 251.164 58.1328 251.352 58.4844C251.547 58.8281 251.797 59.0977 252.102 59.293C252.414 59.4805 252.793 59.5742 253.238 59.5742C253.816 59.5742 254.293 59.4453 254.668 59.1875C255.043 58.9219 255.328 58.5586 255.523 58.0977C255.727 57.6367 255.844 57.1055 255.875 56.5039V54.9688C255.852 54.4766 255.781 54.0352 255.664 53.6445C255.555 53.2461 255.391 52.9062 255.172 52.625C254.961 52.3438 254.695 52.125 254.375 51.9688C254.062 51.8125 253.691 51.7344 253.262 51.7344C252.824 51.7344 252.449 51.8359 252.137 52.0391C251.824 52.2344 251.57 52.5039 251.375 52.8477C251.188 53.1914 251.047 53.5977 250.953 54.0664C250.867 54.5273 250.824 55.0273 250.824 55.5664Z" fill="#888888"/>
<path d="M115.994 98.708V104.641H99.5806V98.708H115.994ZM102.151 86.0078V118H94.439V86.0078H102.151ZM121.18 86.0078V118H113.489V86.0078H121.18ZM124.805 106.354V105.893C124.805 104.15 125.054 102.546 125.552 101.081C126.05 99.6016 126.783 98.3198 127.75 97.2358C128.716 96.1519 129.91 95.3096 131.331 94.709C132.752 94.0938 134.393 93.7861 136.253 93.7861C138.128 93.7861 139.776 94.0938 141.197 94.709C142.632 95.3096 143.833 96.1519 144.8 97.2358C145.767 98.3198 146.5 99.6016 146.998 101.081C147.496 102.546 147.745 104.15 147.745 105.893V106.354C147.745 108.083 147.496 109.687 146.998 111.167C146.5 112.631 145.767 113.913 144.8 115.012C143.833 116.096 142.64 116.938 141.219 117.539C139.798 118.139 138.157 118.439 136.297 118.439C134.437 118.439 132.789 118.139 131.353 117.539C129.917 116.938 128.716 116.096 127.75 115.012C126.783 113.913 126.05 112.631 125.552 111.167C125.054 109.687 124.805 108.083 124.805 106.354ZM132.21 105.893V106.354C132.21 107.248 132.276 108.083 132.408 108.859C132.54 109.636 132.759 110.317 133.067 110.903C133.375 111.474 133.792 111.921 134.319 112.243C134.847 112.565 135.506 112.727 136.297 112.727C137.073 112.727 137.718 112.565 138.23 112.243C138.758 111.921 139.175 111.474 139.483 110.903C139.791 110.317 140.01 109.636 140.142 108.859C140.274 108.083 140.34 107.248 140.34 106.354V105.893C140.34 105.029 140.274 104.216 140.142 103.454C140.01 102.678 139.791 101.997 139.483 101.411C139.175 100.81 138.758 100.341 138.23 100.004C137.703 99.6675 137.044 99.499 136.253 99.499C135.477 99.499 134.825 99.6675 134.297 100.004C133.785 100.341 133.375 100.81 133.067 101.411C132.759 101.997 132.54 102.678 132.408 103.454C132.276 104.216 132.21 105.029 132.21 105.893ZM158.27 110.925L162.664 94.2256H167.3L165.652 102.597L161.302 118H157.588L158.27 110.925ZM156.534 94.2256L159.258 110.793L159.566 118H155.062L149.437 94.2256H156.534ZM171.211 110.441L173.958 94.2256H181.055L175.474 118H170.97L171.211 110.441ZM167.828 94.2256L172.266 110.881L172.947 118H169.19L164.927 102.641L163.345 94.2256H167.828ZM209.466 86.0078V118H201.753V86.0078H209.466ZM219.09 86.0078V91.9624H192.349V86.0078H219.09ZM216.475 106.354V105.893C216.475 104.15 216.724 102.546 217.222 101.081C217.72 99.6016 218.453 98.3198 219.419 97.2358C220.386 96.1519 221.58 95.3096 223.001 94.709C224.422 94.0938 226.062 93.7861 227.923 93.7861C229.798 93.7861 231.446 94.0938 232.867 94.709C234.302 95.3096 235.503 96.1519 236.47 97.2358C237.437 98.3198 238.169 99.6016 238.667 101.081C239.166 102.546 239.415 104.15 239.415 105.893V106.354C239.415 108.083 239.166 109.687 238.667 111.167C238.169 112.631 237.437 113.913 236.47 115.012C235.503 116.096 234.31 116.938 232.889 117.539C231.468 118.139 229.827 118.439 227.967 118.439C226.106 118.439 224.458 118.139 223.023 117.539C221.587 116.938 220.386 116.096 219.419 115.012C218.453 113.913 217.72 112.631 217.222 111.167C216.724 109.687 216.475 108.083 216.475 106.354ZM223.88 105.893V106.354C223.88 107.248 223.946 108.083 224.078 108.859C224.209 109.636 224.429 110.317 224.737 110.903C225.044 111.474 225.462 111.921 225.989 112.243C226.517 112.565 227.176 112.727 227.967 112.727C228.743 112.727 229.388 112.565 229.9 112.243C230.428 111.921 230.845 111.474 231.153 110.903C231.46 110.317 231.68 109.636 231.812 108.859C231.944 108.083 232.01 107.248 232.01 106.354V105.893C232.01 105.029 231.944 104.216 231.812 103.454C231.68 102.678 231.46 101.997 231.153 101.411C230.845 100.81 230.428 100.341 229.9 100.004C229.373 99.6675 228.714 99.499 227.923 99.499C227.146 99.499 226.495 99.6675 225.967 100.004C225.455 100.341 225.044 100.81 224.737 101.411C224.429 101.997 224.209 102.678 224.078 103.454C223.946 104.216 223.88 105.029 223.88 105.893ZM254.268 86.0078H266.858C269.319 86.0078 271.458 86.374 273.274 87.1064C275.091 87.8389 276.49 88.9229 277.471 90.3584C278.467 91.7939 278.965 93.5664 278.965 95.6758C278.965 97.5068 278.68 99.0376 278.108 100.268C277.537 101.499 276.739 102.517 275.713 103.322C274.703 104.113 273.523 104.765 272.176 105.278L269.649 106.706H259.08L259.036 100.751H266.858C267.84 100.751 268.653 100.576 269.297 100.224C269.942 99.8726 270.425 99.3745 270.748 98.73C271.084 98.0708 271.253 97.2871 271.253 96.3789C271.253 95.4561 271.084 94.665 270.748 94.0059C270.411 93.3467 269.913 92.8413 269.253 92.4897C268.609 92.1382 267.811 91.9624 266.858 91.9624H261.98V118H254.268V86.0078ZM271.78 118L264.705 103.85L272.879 103.806L280.042 117.67V118H271.78ZM297.159 112.221V94.2256H304.585V118H297.642L297.159 112.221ZM297.862 107.387L299.795 107.343C299.795 108.94 299.605 110.419 299.224 111.782C298.843 113.129 298.279 114.301 297.532 115.297C296.8 116.293 295.892 117.07 294.808 117.626C293.738 118.168 292.5 118.439 291.094 118.439C289.922 118.439 288.846 118.278 287.864 117.956C286.897 117.619 286.062 117.099 285.359 116.396C284.656 115.678 284.107 114.763 283.711 113.649C283.331 112.521 283.14 111.174 283.14 109.606V94.2256H290.545V109.65C290.545 110.178 290.611 110.632 290.743 111.013C290.875 111.394 291.065 111.716 291.314 111.979C291.563 112.229 291.871 112.419 292.237 112.551C292.618 112.668 293.05 112.727 293.533 112.727C294.646 112.727 295.518 112.492 296.148 112.023C296.778 111.555 297.217 110.917 297.466 110.112C297.73 109.306 297.862 108.398 297.862 107.387ZM315.945 99.3013V118H308.541V94.2256H315.484L315.945 99.3013ZM315.066 105.3L313.331 105.344C313.331 103.527 313.55 101.909 313.99 100.488C314.429 99.0522 315.052 97.8364 315.857 96.8403C316.663 95.8442 317.623 95.0898 318.736 94.5771C319.864 94.0498 321.116 93.7861 322.493 93.7861C323.592 93.7861 324.595 93.9473 325.503 94.2695C326.426 94.5918 327.217 95.1118 327.876 95.8296C328.55 96.5474 329.063 97.4995 329.415 98.686C329.781 99.8579 329.964 101.308 329.964 103.037V118H322.515V103.015C322.515 102.062 322.383 101.337 322.12 100.839C321.856 100.327 321.475 99.9751 320.977 99.7847C320.479 99.5942 319.871 99.499 319.153 99.499C318.392 99.499 317.747 99.6455 317.22 99.9385C316.692 100.231 316.268 100.642 315.945 101.169C315.638 101.682 315.411 102.29 315.264 102.993C315.132 103.696 315.066 104.465 315.066 105.3ZM345.85 107.871H339.544C339.544 106.582 339.632 105.446 339.808 104.465C339.998 103.469 340.32 102.575 340.774 101.784C341.229 100.993 341.844 100.261 342.62 99.5869C343.309 99.0156 343.902 98.4663 344.4 97.939C344.898 97.4116 345.279 96.877 345.542 96.335C345.806 95.793 345.938 95.2144 345.938 94.5991C345.938 93.8374 345.828 93.2148 345.608 92.7314C345.403 92.248 345.088 91.8892 344.664 91.6548C344.253 91.4058 343.733 91.2812 343.104 91.2812C342.591 91.2812 342.107 91.4058 341.653 91.6548C341.214 91.9038 340.855 92.292 340.577 92.8193C340.298 93.332 340.145 94.0132 340.115 94.8628H332.667C332.71 92.6802 333.194 90.9077 334.117 89.5454C335.054 88.1685 336.299 87.165 337.852 86.5352C339.419 85.8906 341.17 85.5684 343.104 85.5684C345.242 85.5684 347.081 85.8979 348.619 86.5571C350.157 87.2163 351.336 88.1978 352.156 89.5015C352.977 90.7905 353.387 92.3799 353.387 94.2695C353.387 95.5293 353.145 96.6279 352.662 97.5654C352.193 98.4883 351.556 99.3525 350.75 100.158C349.959 100.949 349.073 101.799 348.091 102.707C347.242 103.454 346.663 104.216 346.355 104.992C346.048 105.754 345.879 106.713 345.85 107.871ZM338.643 114.55C338.643 113.496 339.024 112.617 339.786 111.914C340.547 111.196 341.536 110.837 342.752 110.837C343.968 110.837 344.957 111.196 345.718 111.914C346.48 112.617 346.861 113.496 346.861 114.55C346.861 115.605 346.48 116.491 345.718 117.209C344.957 117.912 343.968 118.264 342.752 118.264C341.536 118.264 340.547 117.912 339.786 117.209C339.024 116.491 338.643 115.605 338.643 114.55Z" fill="#424241"/>
<path d="M1363 15C1363 6.71573 1356.28 0 1348 0H1134V167H1348C1356.28 167 1363 160.284 1363 152V15Z" fill="#026A75"/>
<path d="M1260.77 81.3079C1263.96 81.3079 1267.09 82.2553 1269.74 84.0303C1272.4 85.8053 1274.47 88.3282 1275.69 91.2799C1276.92 94.2316 1277.24 97.4796 1276.61 100.613C1275.99 103.747 1274.45 106.625 1272.19 108.884C1269.93 111.143 1267.05 112.682 1263.92 113.305C1260.79 113.928 1257.54 113.608 1254.59 112.386C1251.64 111.163 1249.11 109.093 1247.34 106.436C1245.56 103.78 1244.62 100.657 1244.62 97.4617C1244.62 93.1774 1246.32 89.0686 1249.35 86.0392C1252.38 83.0098 1256.48 81.3079 1260.77 81.3079ZM1260.77 75.9233C1256.51 75.9233 1252.35 77.1865 1248.8 79.5532C1245.26 81.9198 1242.5 85.2837 1240.87 89.2193C1239.24 93.1549 1238.81 97.4856 1239.64 101.664C1240.48 105.842 1242.53 109.679 1245.54 112.692C1248.55 115.704 1252.39 117.755 1256.57 118.586C1260.75 119.417 1265.08 118.991 1269.01 117.361C1272.95 115.73 1276.31 112.97 1278.68 109.428C1281.04 105.886 1282.31 101.722 1282.31 97.4617C1282.31 91.7493 1280.04 86.271 1276 82.2317C1271.96 78.1925 1266.48 75.9233 1260.77 75.9233Z" fill="white"/>
<path d="M1274.23 49H1220.38C1218.96 49 1217.59 49.5673 1216.58 50.5771C1215.57 51.5869 1215 52.9565 1215 54.3846V108.231C1215 109.659 1215.57 111.028 1216.58 112.038C1217.59 113.048 1218.96 113.615 1220.38 113.615H1231.15V108.231H1220.38V70.5384H1279.62V54.3846C1279.62 52.9565 1279.05 51.5869 1278.04 50.5771C1277.03 49.5673 1275.66 49 1274.23 49ZM1220.38 65.1538V54.3846H1274.23V65.1538H1220.38Z" fill="white"/>
<path d="M1255.38 89.3849V105.539L1268.85 97.4618L1255.38 89.3849Z" fill="white"/>
</svg>
