<svg width="1363" height="301" viewBox="0 0 1363 301" fill="none" xmlns="http://www.w3.org/2000/svg">
<g style="mix-blend-mode:exclusion">
<rect width="1363" height="301" rx="15" fill="white" fill-opacity="0.05"/>
</g>
<path d="M0 15C0 6.71573 6.71573 0 15 0H37V301H15C6.71573 301 0 294.284 0 286V15Z" fill="#026A75"/>
<g style="mix-blend-mode:exclusion">
<path d="M99.6538 104.898H107.334L116.062 132.103L124.791 104.898H132.471L119.178 144H112.947L99.6538 104.898ZM94.981 104.898H102.93L104.407 134.869V144H94.981V104.898ZM129.195 104.898H137.171V144H127.718V134.869L129.195 104.898ZM141.656 129.767V129.203C141.656 127.072 141.96 125.112 142.569 123.321C143.178 121.513 144.073 119.946 145.254 118.622C146.436 117.297 147.895 116.267 149.632 115.533C151.368 114.781 153.374 114.405 155.647 114.405C157.939 114.405 159.953 114.781 161.69 115.533C163.444 116.267 164.913 117.297 166.094 118.622C167.276 119.946 168.171 121.513 168.78 123.321C169.389 125.112 169.693 127.072 169.693 129.203V129.767C169.693 131.879 169.389 133.84 168.78 135.648C168.171 137.438 167.276 139.005 166.094 140.348C164.913 141.673 163.453 142.702 161.717 143.436C159.98 144.17 157.975 144.537 155.701 144.537C153.427 144.537 151.413 144.17 149.659 143.436C147.904 142.702 146.436 141.673 145.254 140.348C144.073 139.005 143.178 137.438 142.569 135.648C141.96 133.84 141.656 131.879 141.656 129.767ZM150.706 129.203V129.767C150.706 130.859 150.787 131.879 150.948 132.828C151.109 133.777 151.377 134.61 151.753 135.326C152.129 136.024 152.64 136.57 153.284 136.964C153.929 137.358 154.734 137.555 155.701 137.555C156.65 137.555 157.438 137.358 158.064 136.964C158.709 136.57 159.219 136.024 159.595 135.326C159.971 134.61 160.24 133.777 160.401 132.828C160.562 131.879 160.643 130.859 160.643 129.767V129.203C160.643 128.146 160.562 127.153 160.401 126.222C160.24 125.273 159.971 124.44 159.595 123.724C159.219 122.99 158.709 122.417 158.064 122.005C157.42 121.594 156.614 121.388 155.647 121.388C154.699 121.388 153.902 121.594 153.257 122.005C152.631 122.417 152.129 122.99 151.753 123.724C151.377 124.44 151.109 125.273 150.948 126.222C150.787 127.153 150.706 128.146 150.706 129.203ZM182.61 121.146V144H173.56V114.942H182.046L182.61 121.146ZM181.536 128.478L179.415 128.531C179.415 126.311 179.683 124.333 180.22 122.596C180.757 120.842 181.518 119.356 182.503 118.138C183.488 116.921 184.66 115.999 186.021 115.372C187.4 114.728 188.93 114.405 190.613 114.405C191.956 114.405 193.182 114.602 194.292 114.996C195.42 115.39 196.387 116.026 197.193 116.903C198.016 117.78 198.643 118.944 199.073 120.394C199.52 121.826 199.744 123.599 199.744 125.711V144H190.64V125.685C190.64 124.521 190.479 123.635 190.157 123.026C189.834 122.399 189.369 121.97 188.76 121.737C188.152 121.504 187.409 121.388 186.531 121.388C185.6 121.388 184.812 121.567 184.168 121.925C183.523 122.283 183.004 122.784 182.61 123.429C182.234 124.055 181.957 124.798 181.778 125.658C181.617 126.517 181.536 127.457 181.536 128.478ZM218.838 144.537C216.475 144.537 214.362 144.17 212.5 143.436C210.639 142.684 209.063 141.655 207.774 140.348C206.503 139.041 205.527 137.537 204.847 135.836C204.184 134.135 203.853 132.336 203.853 130.438V129.417C203.853 127.287 204.148 125.318 204.739 123.509C205.33 121.683 206.207 120.09 207.371 118.729C208.535 117.368 209.994 116.312 211.749 115.56C213.503 114.79 215.544 114.405 217.872 114.405C219.931 114.405 221.775 114.736 223.404 115.399C225.033 116.061 226.412 117.01 227.54 118.246C228.685 119.481 229.554 120.976 230.145 122.73C230.753 124.485 231.058 126.454 231.058 128.639V132.318H207.317V126.651H222.222V125.953C222.24 124.986 222.07 124.163 221.712 123.482C221.372 122.802 220.87 122.283 220.208 121.925C219.546 121.567 218.74 121.388 217.791 121.388C216.806 121.388 215.992 121.603 215.347 122.032C214.721 122.462 214.228 123.053 213.87 123.805C213.53 124.539 213.288 125.389 213.145 126.356C213.002 127.323 212.93 128.343 212.93 129.417V130.438C212.93 131.512 213.073 132.488 213.36 133.365C213.664 134.243 214.094 134.994 214.649 135.621C215.222 136.23 215.902 136.704 216.69 137.044C217.496 137.385 218.409 137.555 219.429 137.555C220.665 137.555 221.882 137.322 223.082 136.856C224.281 136.391 225.311 135.621 226.17 134.547L230.279 139.435C229.688 140.276 228.847 141.091 227.754 141.878C226.68 142.666 225.391 143.311 223.887 143.812C222.383 144.295 220.7 144.537 218.838 144.537ZM243.277 140.589L250.796 114.942H260.518L248.836 148.324C248.585 149.058 248.254 149.846 247.842 150.687C247.431 151.546 246.867 152.361 246.15 153.131C245.434 153.901 244.512 154.527 243.384 155.011C242.274 155.494 240.896 155.736 239.249 155.736C238.371 155.736 237.727 155.691 237.315 155.602C236.921 155.53 236.312 155.396 235.489 155.199V148.727C235.722 148.727 235.918 148.727 236.08 148.727C236.259 148.727 236.456 148.727 236.67 148.727C237.637 148.727 238.407 148.628 238.98 148.431C239.571 148.234 240.018 147.948 240.323 147.572C240.645 147.196 240.896 146.739 241.075 146.202L243.277 140.589ZM241.37 114.942L247.09 135.272L248.084 144.859H242.015L231.675 114.942H241.37ZM303.353 120.421V127.672H283.292V120.421H303.353ZM286.434 104.898V144H277.007V104.898H286.434ZM309.69 104.898V144H300.291V104.898H309.69ZM314.122 129.767V129.203C314.122 127.072 314.426 125.112 315.035 123.321C315.643 121.513 316.539 119.946 317.72 118.622C318.902 117.297 320.361 116.267 322.098 115.533C323.834 114.781 325.84 114.405 328.113 114.405C330.405 114.405 332.419 114.781 334.156 115.533C335.91 116.267 337.378 117.297 338.56 118.622C339.742 119.946 340.637 121.513 341.246 123.321C341.854 125.112 342.159 127.072 342.159 129.203V129.767C342.159 131.879 341.854 133.84 341.246 135.648C340.637 137.438 339.742 139.005 338.56 140.348C337.378 141.673 335.919 142.702 334.183 143.436C332.446 144.17 330.441 144.537 328.167 144.537C325.893 144.537 323.879 144.17 322.125 143.436C320.37 142.702 318.902 141.673 317.72 140.348C316.539 139.005 315.643 137.438 315.035 135.648C314.426 133.84 314.122 131.879 314.122 129.767ZM323.172 129.203V129.767C323.172 130.859 323.252 131.879 323.414 132.828C323.575 133.777 323.843 134.61 324.219 135.326C324.595 136.024 325.105 136.57 325.75 136.964C326.395 137.358 327.2 137.555 328.167 137.555C329.116 137.555 329.904 137.358 330.53 136.964C331.175 136.57 331.685 136.024 332.061 135.326C332.437 134.61 332.706 133.777 332.867 132.828C333.028 131.879 333.108 130.859 333.108 129.767V129.203C333.108 128.146 333.028 127.153 332.867 126.222C332.706 125.273 332.437 124.44 332.061 123.724C331.685 122.99 331.175 122.417 330.53 122.005C329.886 121.594 329.08 121.388 328.113 121.388C327.164 121.388 326.368 121.594 325.723 122.005C325.097 122.417 324.595 122.99 324.219 123.724C323.843 124.44 323.575 125.273 323.414 126.222C323.252 127.153 323.172 128.146 323.172 129.203ZM363.16 136.937V114.942H372.237V144H363.75L363.16 136.937ZM364.019 131.029L366.382 130.975C366.382 132.927 366.15 134.735 365.684 136.4C365.219 138.047 364.529 139.479 363.616 140.697C362.721 141.914 361.611 142.863 360.286 143.543C358.979 144.206 357.466 144.537 355.748 144.537C354.315 144.537 352.999 144.34 351.8 143.946C350.618 143.535 349.598 142.899 348.738 142.04C347.879 141.162 347.208 140.043 346.724 138.683C346.259 137.304 346.026 135.657 346.026 133.741V114.942H355.076V133.795C355.076 134.439 355.157 134.994 355.318 135.46C355.479 135.925 355.712 136.319 356.016 136.642C356.32 136.946 356.696 137.179 357.144 137.34C357.61 137.483 358.138 137.555 358.729 137.555C360.089 137.555 361.154 137.268 361.924 136.695C362.694 136.122 363.231 135.344 363.536 134.359C363.858 133.374 364.019 132.264 364.019 131.029ZM386.121 121.146V144H377.071V114.942H385.557L386.121 121.146ZM385.047 128.478L382.925 128.531C382.925 126.311 383.194 124.333 383.731 122.596C384.268 120.842 385.029 119.356 386.014 118.138C386.998 116.921 388.171 115.999 389.532 115.372C390.91 114.728 392.441 114.405 394.124 114.405C395.467 114.405 396.693 114.602 397.803 114.996C398.931 115.39 399.898 116.026 400.704 116.903C401.527 117.78 402.154 118.944 402.583 120.394C403.031 121.826 403.255 123.599 403.255 125.711V144H394.151V125.685C394.151 124.521 393.99 123.635 393.667 123.026C393.345 122.399 392.88 121.97 392.271 121.737C391.662 121.504 390.919 121.388 390.042 121.388C389.111 121.388 388.323 121.567 387.679 121.925C387.034 122.283 386.515 122.784 386.121 123.429C385.745 124.055 385.468 124.798 385.289 125.658C385.127 126.517 385.047 127.457 385.047 128.478ZM424.981 137.34V102.75H434.085V144H425.921L424.981 137.34ZM407.149 129.82V129.256C407.149 127.054 407.391 125.049 407.874 123.241C408.357 121.415 409.074 119.848 410.022 118.541C410.971 117.216 412.153 116.196 413.567 115.479C414.982 114.763 416.611 114.405 418.455 114.405C420.102 114.405 421.543 114.79 422.779 115.56C424.014 116.312 425.07 117.368 425.948 118.729C426.825 120.09 427.541 121.683 428.096 123.509C428.651 125.318 429.072 127.269 429.358 129.364V130.035C429.072 132.005 428.651 133.867 428.096 135.621C427.541 137.358 426.825 138.897 425.948 140.24C425.07 141.583 424.005 142.639 422.752 143.409C421.517 144.161 420.066 144.537 418.401 144.537C416.557 144.537 414.928 144.17 413.514 143.436C412.117 142.702 410.944 141.673 409.996 140.348C409.065 139.023 408.357 137.465 407.874 135.675C407.391 133.884 407.149 131.933 407.149 129.82ZM416.199 129.256V129.82C416.199 130.912 416.271 131.924 416.414 132.855C416.557 133.786 416.799 134.61 417.139 135.326C417.497 136.024 417.963 136.57 418.536 136.964C419.126 137.358 419.852 137.555 420.711 137.555C421.875 137.555 422.833 137.277 423.584 136.722C424.354 136.167 424.918 135.379 425.276 134.359C425.652 133.338 425.813 132.139 425.76 130.76V128.639C425.796 127.457 425.715 126.419 425.518 125.523C425.321 124.61 425.008 123.849 424.578 123.241C424.166 122.632 423.638 122.175 422.994 121.871C422.367 121.549 421.624 121.388 420.765 121.388C419.923 121.388 419.207 121.585 418.616 121.979C418.043 122.372 417.578 122.927 417.22 123.644C416.862 124.342 416.602 125.174 416.441 126.141C416.28 127.09 416.199 128.128 416.199 129.256Z" fill="white"/>
</g>
<g style="mix-blend-mode:exclusion">
<path d="M99.3486 55.1172V80H94.2217V55.1172H99.3486ZM114.251 55.1172L104.39 67.4048L98.6992 73.5229L97.7764 68.6694L101.622 63.4058L107.962 55.1172H114.251ZM108.423 80L101.092 68.4985L104.886 65.3198L114.49 80H108.423ZM120.967 53.75V80H116.045V53.75H120.967ZM120.267 70.105H118.917C118.928 68.8175 119.099 67.6326 119.429 66.5503C119.76 65.4565 120.232 64.5109 120.848 63.7134C121.463 62.9045 122.198 62.2778 123.052 61.8335C123.918 61.3892 124.875 61.167 125.923 61.167C126.835 61.167 127.661 61.298 128.401 61.5601C129.153 61.8107 129.797 62.2209 130.333 62.7905C130.879 63.3488 131.301 64.0837 131.597 64.9951C131.893 65.9066 132.042 67.0117 132.042 68.3105V80H127.085V68.2764C127.085 67.4561 126.966 66.8123 126.727 66.3452C126.499 65.8667 126.163 65.5306 125.718 65.3369C125.285 65.1318 124.75 65.0293 124.112 65.0293C123.405 65.0293 122.802 65.1603 122.3 65.4224C121.81 65.6844 121.417 66.049 121.121 66.5161C120.825 66.9718 120.608 67.5073 120.472 68.1226C120.335 68.7378 120.267 69.3986 120.267 70.105ZM134.998 70.9424V70.5835C134.998 69.2277 135.192 67.9801 135.579 66.8408C135.966 65.6901 136.53 64.6932 137.271 63.8501C138.012 63.007 138.923 62.3519 140.005 61.8848C141.088 61.4062 142.33 61.167 143.731 61.167C145.132 61.167 146.38 61.4062 147.474 61.8848C148.567 62.3519 149.485 63.007 150.225 63.8501C150.977 64.6932 151.547 65.6901 151.934 66.8408C152.321 67.9801 152.515 69.2277 152.515 70.5835V70.9424C152.515 72.2868 152.321 73.5343 151.934 74.6851C151.547 75.8244 150.977 76.8213 150.225 77.6758C149.485 78.5189 148.573 79.174 147.491 79.6411C146.408 80.1082 145.167 80.3418 143.765 80.3418C142.364 80.3418 141.116 80.1082 140.022 79.6411C138.94 79.174 138.023 78.5189 137.271 77.6758C136.53 76.8213 135.966 75.8244 135.579 74.6851C135.192 73.5343 134.998 72.2868 134.998 70.9424ZM139.92 70.5835V70.9424C139.92 71.7171 139.988 72.4406 140.125 73.1128C140.262 73.785 140.478 74.3774 140.774 74.8901C141.082 75.3914 141.481 75.7845 141.971 76.0693C142.461 76.3542 143.059 76.4966 143.765 76.4966C144.449 76.4966 145.035 76.3542 145.525 76.0693C146.015 75.7845 146.408 75.3914 146.705 74.8901C147.001 74.3774 147.217 73.785 147.354 73.1128C147.502 72.4406 147.576 71.7171 147.576 70.9424V70.5835C147.576 69.8315 147.502 69.1252 147.354 68.4644C147.217 67.7922 146.995 67.1997 146.688 66.687C146.391 66.1629 145.998 65.7528 145.508 65.4565C145.018 65.1603 144.426 65.0122 143.731 65.0122C143.036 65.0122 142.444 65.1603 141.954 65.4565C141.475 65.7528 141.082 66.1629 140.774 66.687C140.478 67.1997 140.262 67.7922 140.125 68.4644C139.988 69.1252 139.92 69.8315 139.92 70.5835ZM166.46 75.9668V53.75H171.417V80H166.956L166.46 75.9668ZM154.771 70.9766V70.6177C154.771 69.2049 154.931 67.9232 155.25 66.7725C155.569 65.6104 156.036 64.6134 156.651 63.7817C157.266 62.95 158.024 62.3063 158.924 61.8506C159.824 61.3949 160.849 61.167 162 61.167C163.082 61.167 164.028 61.3949 164.837 61.8506C165.657 62.3063 166.352 62.9557 166.922 63.7988C167.503 64.6305 167.97 65.616 168.323 66.7554C168.676 67.8833 168.933 69.1195 169.092 70.4639V71.25C168.933 72.5374 168.676 73.7337 168.323 74.8389C167.97 75.944 167.503 76.9124 166.922 77.7441C166.352 78.5645 165.657 79.2025 164.837 79.6582C164.017 80.1139 163.06 80.3418 161.966 80.3418C160.815 80.3418 159.79 80.1082 158.89 79.6411C158.001 79.174 157.249 78.5189 156.634 77.6758C156.03 76.8327 155.569 75.8415 155.25 74.7021C154.931 73.5628 154.771 72.321 154.771 70.9766ZM159.693 70.6177V70.9766C159.693 71.7399 159.75 72.452 159.864 73.1128C159.989 73.7736 160.188 74.3604 160.462 74.873C160.747 75.3743 161.111 75.7674 161.556 76.0522C162.011 76.3257 162.564 76.4624 163.213 76.4624C164.056 76.4624 164.751 76.2744 165.298 75.8984C165.845 75.5111 166.261 74.9813 166.546 74.3091C166.842 73.6369 167.013 72.8621 167.059 71.9849V69.7461C167.024 69.0283 166.922 68.3846 166.751 67.8149C166.591 67.2339 166.352 66.7383 166.033 66.3281C165.726 65.918 165.338 65.599 164.871 65.3711C164.415 65.1432 163.874 65.0293 163.248 65.0293C162.61 65.0293 162.063 65.1774 161.607 65.4736C161.151 65.7585 160.781 66.1515 160.496 66.6528C160.223 67.1541 160.018 67.7466 159.881 68.4302C159.756 69.1024 159.693 69.8315 159.693 70.6177ZM174.476 70.9424V70.5835C174.476 69.2277 174.669 67.9801 175.057 66.8408C175.444 65.6901 176.008 64.6932 176.749 63.8501C177.489 63.007 178.401 62.3519 179.483 61.8848C180.565 61.4062 181.807 61.167 183.208 61.167C184.61 61.167 185.857 61.4062 186.951 61.8848C188.045 62.3519 188.962 63.007 189.703 63.8501C190.455 64.6932 191.024 65.6901 191.412 66.8408C191.799 67.9801 191.993 69.2277 191.993 70.5835V70.9424C191.993 72.2868 191.799 73.5343 191.412 74.6851C191.024 75.8244 190.455 76.8213 189.703 77.6758C188.962 78.5189 188.051 79.174 186.968 79.6411C185.886 80.1082 184.644 80.3418 183.243 80.3418C181.841 80.3418 180.594 80.1082 179.5 79.6411C178.418 79.174 177.5 78.5189 176.749 77.6758C176.008 76.8213 175.444 75.8244 175.057 74.6851C174.669 73.5343 174.476 72.2868 174.476 70.9424ZM179.397 70.5835V70.9424C179.397 71.7171 179.466 72.4406 179.603 73.1128C179.739 73.785 179.956 74.3774 180.252 74.8901C180.56 75.3914 180.958 75.7845 181.448 76.0693C181.938 76.3542 182.536 76.4966 183.243 76.4966C183.926 76.4966 184.513 76.3542 185.003 76.0693C185.493 75.7845 185.886 75.3914 186.182 74.8901C186.478 74.3774 186.695 73.785 186.832 73.1128C186.98 72.4406 187.054 71.7171 187.054 70.9424V70.5835C187.054 69.8315 186.98 69.1252 186.832 68.4644C186.695 67.7922 186.473 67.1997 186.165 66.687C185.869 66.1629 185.476 65.7528 184.986 65.4565C184.496 65.1603 183.903 65.0122 183.208 65.0122C182.514 65.0122 181.921 65.1603 181.431 65.4565C180.953 65.7528 180.56 66.1629 180.252 66.687C179.956 67.1997 179.739 67.7922 179.603 68.4644C179.466 69.1252 179.397 69.8315 179.397 70.5835ZM199.939 65.542V80H195.018V61.5088H199.649L199.939 65.542ZM205.511 61.3892L205.425 65.9521C205.186 65.918 204.896 65.8895 204.554 65.8667C204.223 65.8325 203.921 65.8154 203.648 65.8154C202.953 65.8154 202.349 65.9066 201.836 66.0889C201.335 66.2598 200.914 66.5161 200.572 66.8579C200.241 67.1997 199.991 67.6156 199.82 68.1055C199.66 68.5954 199.569 69.1536 199.546 69.7803L198.555 69.4727C198.555 68.2764 198.675 67.1769 198.914 66.1743C199.153 65.1603 199.501 64.2773 199.957 63.5254C200.424 62.7734 200.993 62.1924 201.666 61.7822C202.338 61.3721 203.107 61.167 203.973 61.167C204.246 61.167 204.525 61.1898 204.81 61.2354C205.095 61.2695 205.328 61.3208 205.511 61.3892ZM233.453 65.2515V69.2505H220.464V65.2515H233.453ZM221.985 55.1172V80H216.858V55.1172H221.985ZM237.11 55.1172V80H232V55.1172H237.11ZM251.243 75.8301V67.5928C251.243 67.0003 251.146 66.4933 250.953 66.0718C250.759 65.6388 250.457 65.3027 250.047 65.0635C249.648 64.8242 249.13 64.7046 248.492 64.7046C247.945 64.7046 247.472 64.8014 247.073 64.9951C246.674 65.1774 246.367 65.4451 246.15 65.7983C245.934 66.1401 245.826 66.5446 245.826 67.0117H240.904C240.904 66.2256 241.086 65.4793 241.451 64.7729C241.815 64.0666 242.345 63.4456 243.04 62.9102C243.735 62.3633 244.561 61.936 245.518 61.6284C246.486 61.3208 247.569 61.167 248.765 61.167C250.201 61.167 251.477 61.4062 252.593 61.8848C253.71 62.3633 254.587 63.0811 255.225 64.0381C255.875 64.9951 256.199 66.1914 256.199 67.627V75.5396C256.199 76.5535 256.262 77.3853 256.387 78.0347C256.513 78.6727 256.695 79.231 256.934 79.7095V80H251.961C251.722 79.4987 251.539 78.8721 251.414 78.1201C251.3 77.3568 251.243 76.5934 251.243 75.8301ZM251.893 68.7378L251.927 71.5234H249.175C248.526 71.5234 247.962 71.5975 247.483 71.7456C247.005 71.8937 246.612 72.1045 246.304 72.3779C245.997 72.64 245.769 72.9476 245.621 73.3008C245.484 73.654 245.416 74.0413 245.416 74.4629C245.416 74.8844 245.512 75.2661 245.706 75.6079C245.9 75.9383 246.179 76.2004 246.543 76.394C246.908 76.5763 247.335 76.6675 247.825 76.6675C248.566 76.6675 249.209 76.5194 249.756 76.2231C250.303 75.9269 250.725 75.5623 251.021 75.1294C251.329 74.6965 251.488 74.2863 251.5 73.8989L252.798 75.9839C252.616 76.451 252.365 76.9352 252.046 77.4365C251.739 77.9378 251.346 78.4106 250.867 78.855C250.389 79.2879 249.813 79.6468 249.141 79.9316C248.469 80.2051 247.671 80.3418 246.749 80.3418C245.575 80.3418 244.51 80.1082 243.553 79.6411C242.607 79.1626 241.855 78.5075 241.297 77.6758C240.75 76.8327 240.477 75.8757 240.477 74.8047C240.477 73.8363 240.659 72.9761 241.023 72.2241C241.388 71.4722 241.924 70.8398 242.63 70.3271C243.348 69.8031 244.242 69.41 245.313 69.1479C246.384 68.8745 247.626 68.7378 249.039 68.7378H251.893ZM269.991 74.8901C269.991 74.5369 269.888 74.2179 269.683 73.9331C269.478 73.6483 269.096 73.3862 268.538 73.147C267.991 72.8963 267.199 72.6685 266.163 72.4634C265.228 72.2583 264.357 72.002 263.548 71.6943C262.75 71.3753 262.055 70.9937 261.463 70.5493C260.882 70.105 260.426 69.5809 260.096 68.9771C259.765 68.3618 259.6 67.6611 259.6 66.875C259.6 66.1003 259.765 65.3711 260.096 64.6875C260.438 64.0039 260.922 63.4001 261.548 62.876C262.186 62.3405 262.961 61.9246 263.873 61.6284C264.795 61.3208 265.832 61.167 266.983 61.167C268.589 61.167 269.968 61.4233 271.119 61.936C272.281 62.4487 273.169 63.1551 273.785 64.0552C274.411 64.9438 274.725 65.9578 274.725 67.0972H269.803C269.803 66.6187 269.7 66.1914 269.495 65.8154C269.301 65.4281 268.994 65.1261 268.572 64.9097C268.162 64.6818 267.627 64.5679 266.966 64.5679C266.419 64.5679 265.946 64.6647 265.547 64.8584C265.149 65.0407 264.841 65.2913 264.625 65.6104C264.419 65.918 264.317 66.2598 264.317 66.6357C264.317 66.9206 264.374 67.1769 264.488 67.4048C264.613 67.6213 264.812 67.8206 265.086 68.0029C265.359 68.1852 265.713 68.3561 266.146 68.5156C266.59 68.6637 267.137 68.8005 267.786 68.9258C269.119 69.1992 270.31 69.5581 271.358 70.0024C272.406 70.4354 273.238 71.0278 273.853 71.7798C274.468 72.5203 274.776 73.4945 274.776 74.7021C274.776 75.5225 274.594 76.2744 274.229 76.958C273.864 77.6416 273.34 78.2397 272.657 78.7524C271.973 79.2537 271.153 79.6468 270.196 79.9316C269.25 80.2051 268.185 80.3418 267 80.3418C265.28 80.3418 263.821 80.0342 262.625 79.4189C261.44 78.8037 260.54 78.0233 259.925 77.0776C259.321 76.1206 259.019 75.1408 259.019 74.1382H263.685C263.707 74.8104 263.878 75.3516 264.197 75.7617C264.528 76.1719 264.944 76.4681 265.445 76.6504C265.958 76.8327 266.51 76.9238 267.103 76.9238C267.741 76.9238 268.27 76.8384 268.692 76.6675C269.113 76.4852 269.432 76.2459 269.649 75.9497C269.877 75.6421 269.991 75.2889 269.991 74.8901ZM287.969 74.8901C287.969 74.5369 287.867 74.2179 287.662 73.9331C287.457 73.6483 287.075 73.3862 286.517 73.147C285.97 72.8963 285.178 72.6685 284.141 72.4634C283.207 72.2583 282.335 72.002 281.526 71.6943C280.729 71.3753 280.034 70.9937 279.441 70.5493C278.86 70.105 278.405 69.5809 278.074 68.9771C277.744 68.3618 277.579 67.6611 277.579 66.875C277.579 66.1003 277.744 65.3711 278.074 64.6875C278.416 64.0039 278.9 63.4001 279.527 62.876C280.165 62.3405 280.94 61.9246 281.851 61.6284C282.774 61.3208 283.811 61.167 284.961 61.167C286.568 61.167 287.946 61.4233 289.097 61.936C290.259 62.4487 291.148 63.1551 291.763 64.0552C292.39 64.9438 292.703 65.9578 292.703 67.0972H287.781C287.781 66.6187 287.679 66.1914 287.474 65.8154C287.28 65.4281 286.972 65.1261 286.551 64.9097C286.141 64.6818 285.605 64.5679 284.944 64.5679C284.397 64.5679 283.925 64.6647 283.526 64.8584C283.127 65.0407 282.819 65.2913 282.603 65.6104C282.398 65.918 282.295 66.2598 282.295 66.6357C282.295 66.9206 282.352 67.1769 282.466 67.4048C282.592 67.6213 282.791 67.8206 283.064 68.0029C283.338 68.1852 283.691 68.3561 284.124 68.5156C284.568 68.6637 285.115 68.8005 285.765 68.9258C287.098 69.1992 288.288 69.5581 289.336 70.0024C290.385 70.4354 291.216 71.0278 291.832 71.7798C292.447 72.5203 292.754 73.4945 292.754 74.7021C292.754 75.5225 292.572 76.2744 292.208 76.958C291.843 77.6416 291.319 78.2397 290.635 78.7524C289.952 79.2537 289.131 79.6468 288.174 79.9316C287.229 80.2051 286.163 80.3418 284.979 80.3418C283.258 80.3418 281.8 80.0342 280.604 79.4189C279.419 78.8037 278.519 78.0233 277.903 77.0776C277.299 76.1206 276.998 75.1408 276.998 74.1382H281.663C281.686 74.8104 281.857 75.3516 282.176 75.7617C282.506 76.1719 282.922 76.4681 283.423 76.6504C283.936 76.8327 284.489 76.9238 285.081 76.9238C285.719 76.9238 286.249 76.8384 286.67 76.6675C287.092 76.4852 287.411 76.2459 287.627 75.9497C287.855 75.6421 287.969 75.2889 287.969 74.8901ZM295.164 70.9424V70.5835C295.164 69.2277 295.358 67.9801 295.745 66.8408C296.132 65.6901 296.696 64.6932 297.437 63.8501C298.178 63.007 299.089 62.3519 300.171 61.8848C301.254 61.4062 302.496 61.167 303.897 61.167C305.298 61.167 306.546 61.4062 307.64 61.8848C308.733 62.3519 309.651 63.007 310.391 63.8501C311.143 64.6932 311.713 65.6901 312.1 66.8408C312.487 67.9801 312.681 69.2277 312.681 70.5835V70.9424C312.681 72.2868 312.487 73.5343 312.1 74.6851C311.713 75.8244 311.143 76.8213 310.391 77.6758C309.651 78.5189 308.739 79.174 307.657 79.6411C306.574 80.1082 305.333 80.3418 303.931 80.3418C302.53 80.3418 301.282 80.1082 300.188 79.6411C299.106 79.174 298.189 78.5189 297.437 77.6758C296.696 76.8213 296.132 75.8244 295.745 74.6851C295.358 73.5343 295.164 72.2868 295.164 70.9424ZM300.086 70.5835V70.9424C300.086 71.7171 300.154 72.4406 300.291 73.1128C300.428 73.785 300.644 74.3774 300.94 74.8901C301.248 75.3914 301.647 75.7845 302.137 76.0693C302.627 76.3542 303.225 76.4966 303.931 76.4966C304.615 76.4966 305.201 76.3542 305.691 76.0693C306.181 75.7845 306.574 75.3914 306.871 74.8901C307.167 74.3774 307.383 73.785 307.52 73.1128C307.668 72.4406 307.742 71.7171 307.742 70.9424V70.5835C307.742 69.8315 307.668 69.1252 307.52 68.4644C307.383 67.7922 307.161 67.1997 306.854 66.687C306.557 66.1629 306.164 65.7528 305.674 65.4565C305.184 65.1603 304.592 65.0122 303.897 65.0122C303.202 65.0122 302.61 65.1603 302.12 65.4565C301.641 65.7528 301.248 66.1629 300.94 66.687C300.644 67.1997 300.428 67.7922 300.291 68.4644C300.154 69.1252 300.086 69.8315 300.086 70.5835ZM326.644 75.5737V61.5088H331.565V80H326.934L326.644 75.5737ZM327.19 71.7798L328.643 71.7456C328.643 72.9761 328.501 74.1211 328.216 75.1807C327.931 76.2288 327.504 77.1403 326.934 77.915C326.364 78.6784 325.647 79.2765 324.781 79.7095C323.915 80.131 322.895 80.3418 321.722 80.3418C320.822 80.3418 319.99 80.2165 319.227 79.9658C318.475 79.7038 317.825 79.2993 317.278 78.7524C316.743 78.1942 316.321 77.4821 316.014 76.6162C315.717 75.7389 315.569 74.6851 315.569 73.4546V61.5088H320.491V73.4888C320.491 74.0356 320.554 74.4971 320.679 74.873C320.816 75.249 321.004 75.5566 321.243 75.7959C321.482 76.0352 321.762 76.2061 322.081 76.3086C322.411 76.4111 322.776 76.4624 323.174 76.4624C324.188 76.4624 324.986 76.2573 325.567 75.8472C326.159 75.437 326.575 74.8787 326.814 74.1724C327.065 73.4546 327.19 72.6571 327.19 71.7798ZM340.145 65.4565V80H335.223V61.5088H339.837L340.145 65.4565ZM339.427 70.105H338.094C338.094 68.7378 338.27 67.5073 338.624 66.4136C338.977 65.3084 339.472 64.3685 340.11 63.5938C340.748 62.8076 341.506 62.2095 342.383 61.7993C343.272 61.3778 344.263 61.167 345.357 61.167C346.223 61.167 347.015 61.2923 347.732 61.543C348.45 61.7936 349.065 62.1924 349.578 62.7393C350.102 63.2861 350.501 64.0096 350.774 64.9097C351.059 65.8097 351.202 66.9092 351.202 68.208V80H346.246V68.1909C346.246 67.3706 346.132 66.7326 345.904 66.2769C345.676 65.8211 345.34 65.5021 344.896 65.3198C344.463 65.1261 343.927 65.0293 343.289 65.0293C342.628 65.0293 342.053 65.1603 341.563 65.4224C341.084 65.6844 340.686 66.049 340.367 66.5161C340.059 66.9718 339.826 67.5073 339.666 68.1226C339.507 68.7378 339.427 69.3986 339.427 70.105Z" fill="white" fill-opacity="0.5"/>
</g>
<g style="mix-blend-mode:exclusion">
<rect x="92" y="181" width="1179" height="80" rx="13.3333" fill="white" fill-opacity="0.1"/>
</g>
<g style="mix-blend-mode:exclusion">
<rect x="105" y="194.333" width="212" height="53.3333" rx="6.66667" fill="white" fill-opacity="0.35"/>
</g>
<path d="M171.823 213.167H177.792C178.958 213.167 179.972 213.34 180.833 213.687C181.694 214.035 182.358 214.549 182.823 215.229C183.295 215.91 183.531 216.75 183.531 217.75C183.531 218.618 183.396 219.344 183.125 219.927C182.854 220.51 182.476 220.993 181.99 221.375C181.51 221.75 180.951 222.059 180.312 222.302L179.115 222.979H174.104L174.083 220.156H177.792C178.257 220.156 178.642 220.073 178.948 219.906C179.253 219.74 179.483 219.503 179.635 219.198C179.795 218.885 179.875 218.514 179.875 218.083C179.875 217.646 179.795 217.271 179.635 216.958C179.476 216.646 179.24 216.406 178.927 216.24C178.622 216.073 178.243 215.99 177.792 215.99H175.479V228.333H171.823V213.167ZM180.125 228.333L176.771 221.625L180.646 221.604L184.042 228.177V228.333H180.125ZM191.031 228.542C190.115 228.542 189.295 228.399 188.573 228.115C187.851 227.823 187.24 227.424 186.74 226.917C186.247 226.41 185.868 225.826 185.604 225.167C185.347 224.507 185.219 223.809 185.219 223.073V222.677C185.219 221.851 185.333 221.087 185.562 220.385C185.792 219.677 186.132 219.059 186.583 218.531C187.035 218.003 187.601 217.594 188.281 217.302C188.962 217.003 189.753 216.854 190.656 216.854C191.455 216.854 192.17 216.983 192.802 217.24C193.434 217.497 193.969 217.865 194.406 218.344C194.851 218.823 195.187 219.403 195.417 220.083C195.653 220.764 195.771 221.528 195.771 222.375V223.802H186.562V221.604H192.344V221.333C192.351 220.958 192.285 220.639 192.146 220.375C192.014 220.111 191.819 219.91 191.562 219.771C191.306 219.632 190.993 219.562 190.625 219.562C190.243 219.562 189.927 219.646 189.677 219.812C189.434 219.979 189.243 220.208 189.104 220.5C188.972 220.785 188.878 221.115 188.823 221.49C188.767 221.865 188.74 222.26 188.74 222.677V223.073C188.74 223.49 188.795 223.868 188.906 224.208C189.024 224.549 189.191 224.84 189.406 225.083C189.628 225.319 189.892 225.503 190.198 225.635C190.51 225.767 190.865 225.833 191.26 225.833C191.74 225.833 192.212 225.743 192.677 225.562C193.142 225.382 193.542 225.083 193.875 224.667L195.469 226.562C195.24 226.889 194.913 227.205 194.49 227.51C194.073 227.816 193.573 228.066 192.99 228.26C192.406 228.448 191.753 228.542 191.031 228.542ZM203.052 225.5V220.854C203.052 220.535 203.007 220.26 202.917 220.031C202.826 219.802 202.684 219.625 202.49 219.5C202.295 219.368 202.035 219.302 201.708 219.302C201.444 219.302 201.219 219.347 201.031 219.437C200.844 219.528 200.701 219.663 200.604 219.844C200.507 220.024 200.458 220.253 200.458 220.531H196.948C196.948 220.01 197.062 219.528 197.292 219.083C197.528 218.632 197.861 218.24 198.292 217.906C198.729 217.573 199.25 217.316 199.854 217.135C200.465 216.948 201.146 216.854 201.896 216.854C202.792 216.854 203.59 217.003 204.292 217.302C205 217.601 205.559 218.049 205.969 218.646C206.378 219.236 206.583 219.979 206.583 220.875V225.49C206.583 226.226 206.625 226.785 206.708 227.167C206.792 227.542 206.91 227.872 207.062 228.156V228.333H203.542C203.375 227.986 203.25 227.562 203.167 227.062C203.09 226.556 203.052 226.035 203.052 225.5ZM203.479 221.448L203.5 223.323H201.948C201.622 223.323 201.344 223.368 201.115 223.458C200.892 223.549 200.712 223.674 200.573 223.833C200.441 223.986 200.344 224.16 200.281 224.354C200.226 224.549 200.198 224.753 200.198 224.969C200.198 225.177 200.247 225.365 200.344 225.531C200.448 225.691 200.587 225.816 200.76 225.906C200.934 225.997 201.128 226.042 201.344 226.042C201.733 226.042 202.062 225.969 202.333 225.823C202.611 225.67 202.823 225.486 202.969 225.271C203.115 225.056 203.187 224.854 203.187 224.667L203.958 226.104C203.819 226.382 203.66 226.663 203.479 226.948C203.306 227.233 203.087 227.497 202.823 227.74C202.566 227.976 202.25 228.17 201.875 228.323C201.5 228.469 201.045 228.542 200.51 228.542C199.816 228.542 199.177 228.399 198.594 228.115C198.017 227.83 197.556 227.434 197.208 226.927C196.861 226.413 196.687 225.823 196.687 225.156C196.687 224.573 196.792 224.052 197 223.594C197.215 223.135 197.538 222.747 197.969 222.427C198.399 222.108 198.948 221.865 199.615 221.698C200.281 221.531 201.066 221.448 201.969 221.448H203.479ZM213.292 225.833C213.618 225.833 213.896 225.774 214.125 225.656C214.361 225.531 214.538 225.358 214.656 225.135C214.781 224.906 214.84 224.632 214.833 224.312H218.135C218.142 225.16 217.934 225.903 217.51 226.542C217.094 227.174 216.524 227.667 215.802 228.021C215.087 228.368 214.278 228.542 213.375 228.542C212.493 228.542 211.722 228.399 211.062 228.115C210.403 227.823 209.851 227.42 209.406 226.906C208.969 226.385 208.639 225.778 208.417 225.083C208.201 224.389 208.094 223.635 208.094 222.823V222.583C208.094 221.771 208.201 221.017 208.417 220.323C208.639 219.622 208.969 219.014 209.406 218.5C209.851 217.979 210.399 217.576 211.052 217.292C211.712 217 212.479 216.854 213.354 216.854C214.292 216.854 215.118 217.031 215.833 217.385C216.556 217.74 217.122 218.253 217.531 218.927C217.941 219.601 218.142 220.417 218.135 221.375H214.833C214.84 221.035 214.788 220.729 214.677 220.458C214.566 220.187 214.392 219.972 214.156 219.812C213.927 219.646 213.632 219.562 213.271 219.562C212.91 219.562 212.618 219.642 212.396 219.802C212.174 219.962 212.003 220.184 211.885 220.469C211.774 220.747 211.698 221.066 211.656 221.427C211.622 221.788 211.604 222.174 211.604 222.583V222.823C211.604 223.24 211.622 223.632 211.656 224C211.698 224.361 211.778 224.681 211.896 224.958C212.014 225.229 212.184 225.444 212.406 225.604C212.628 225.757 212.924 225.833 213.292 225.833ZM225.573 217.062V219.5H218.781V217.062H225.573ZM220.208 214.26H223.719V224.656C223.719 224.955 223.753 225.187 223.823 225.354C223.892 225.514 224.01 225.628 224.177 225.698C224.351 225.76 224.58 225.792 224.865 225.792C225.066 225.792 225.233 225.788 225.365 225.781C225.497 225.767 225.622 225.75 225.74 225.729V228.24C225.441 228.337 225.128 228.41 224.802 228.458C224.476 228.514 224.128 228.542 223.76 228.542C223.01 228.542 222.368 228.424 221.833 228.187C221.306 227.951 220.903 227.58 220.625 227.073C220.347 226.566 220.208 225.906 220.208 225.094V214.26ZM233.167 223.573V213.167H236.812V223.573C236.812 224.587 236.58 225.465 236.115 226.208C235.656 226.951 235.031 227.528 234.24 227.937C233.455 228.34 232.573 228.542 231.594 228.542C230.58 228.542 229.677 228.372 228.885 228.031C228.101 227.691 227.483 227.167 227.031 226.458C226.587 225.75 226.365 224.847 226.365 223.75H230.031C230.031 224.264 230.09 224.667 230.208 224.958C230.326 225.243 230.5 225.444 230.729 225.562C230.965 225.674 231.253 225.729 231.594 225.729C231.927 225.729 232.208 225.646 232.437 225.479C232.674 225.306 232.854 225.059 232.979 224.74C233.104 224.413 233.167 224.024 233.167 223.573ZM246.948 224.302C246.948 224.066 246.913 223.854 246.844 223.667C246.774 223.472 246.646 223.292 246.458 223.125C246.271 222.958 246 222.792 245.646 222.625C245.299 222.451 244.84 222.271 244.271 222.083C243.604 221.861 242.962 221.611 242.344 221.333C241.726 221.049 241.174 220.719 240.687 220.344C240.201 219.962 239.816 219.517 239.531 219.01C239.247 218.497 239.104 217.899 239.104 217.219C239.104 216.566 239.25 215.979 239.542 215.458C239.833 214.931 240.24 214.483 240.76 214.115C241.288 213.74 241.906 213.455 242.615 213.26C243.323 213.059 244.097 212.958 244.937 212.958C246.049 212.958 247.028 213.153 247.875 213.542C248.729 213.924 249.396 214.469 249.875 215.177C250.361 215.878 250.604 216.708 250.604 217.667H246.969C246.969 217.285 246.889 216.948 246.729 216.656C246.576 216.365 246.344 216.135 246.031 215.969C245.719 215.802 245.326 215.719 244.854 215.719C244.396 215.719 244.01 215.788 243.698 215.927C243.385 216.066 243.149 216.253 242.99 216.49C242.83 216.719 242.75 216.972 242.75 217.25C242.75 217.479 242.812 217.687 242.937 217.875C243.069 218.056 243.253 218.226 243.49 218.385C243.733 218.545 244.024 218.698 244.365 218.844C244.712 218.99 245.101 219.132 245.531 219.271C246.337 219.528 247.052 219.816 247.677 220.135C248.309 220.448 248.84 220.806 249.271 221.208C249.708 221.604 250.038 222.056 250.26 222.562C250.49 223.069 250.604 223.642 250.604 224.281C250.604 224.962 250.472 225.566 250.208 226.094C249.944 226.622 249.566 227.069 249.073 227.437C248.58 227.799 247.99 228.073 247.302 228.26C246.615 228.448 245.847 228.542 245 228.542C244.222 228.542 243.455 228.444 242.698 228.25C241.948 228.049 241.267 227.743 240.656 227.333C240.045 226.917 239.556 226.385 239.187 225.74C238.826 225.087 238.646 224.312 238.646 223.417H242.312C242.312 223.861 242.372 224.236 242.49 224.542C242.608 224.847 242.781 225.094 243.01 225.281C243.24 225.462 243.521 225.594 243.854 225.677C244.187 225.753 244.569 225.792 245 225.792C245.465 225.792 245.84 225.726 246.125 225.594C246.41 225.455 246.618 225.274 246.75 225.052C246.882 224.823 246.948 224.573 246.948 224.302Z" fill="white"/>
<g style="mix-blend-mode:exclusion">
<rect x="337" y="194.333" width="212" height="53.3333" rx="6.66667" fill="white" fill-opacity="0.35"/>
</g>
<path d="M418.844 213.167V228.333H415.198L409.833 218.896V228.333H406.177V213.167H409.833L415.198 222.604V213.167H418.844ZM420.552 222.812V222.594C420.552 221.767 420.67 221.007 420.906 220.312C421.142 219.611 421.49 219.003 421.948 218.49C422.406 217.976 422.972 217.576 423.646 217.292C424.319 217 425.097 216.854 425.979 216.854C426.868 216.854 427.649 217 428.323 217.292C429.003 217.576 429.573 217.976 430.031 218.49C430.49 219.003 430.837 219.611 431.073 220.312C431.309 221.007 431.427 221.767 431.427 222.594V222.812C431.427 223.632 431.309 224.392 431.073 225.094C430.837 225.788 430.49 226.396 430.031 226.917C429.573 227.431 429.007 227.83 428.333 228.115C427.66 228.399 426.882 228.542 426 228.542C425.118 228.542 424.337 228.399 423.656 228.115C422.976 227.83 422.406 227.431 421.948 226.917C421.49 226.396 421.142 225.788 420.906 225.094C420.67 224.392 420.552 223.632 420.552 222.812ZM424.062 222.594V222.812C424.062 223.236 424.094 223.632 424.156 224C424.219 224.368 424.323 224.691 424.469 224.969C424.615 225.24 424.812 225.451 425.062 225.604C425.312 225.757 425.625 225.833 426 225.833C426.368 225.833 426.674 225.757 426.917 225.604C427.167 225.451 427.365 225.24 427.51 224.969C427.656 224.691 427.76 224.368 427.823 224C427.885 223.632 427.917 223.236 427.917 222.812V222.594C427.917 222.184 427.885 221.799 427.823 221.437C427.76 221.069 427.656 220.747 427.51 220.469C427.365 220.184 427.167 219.962 426.917 219.802C426.667 219.642 426.354 219.562 425.979 219.562C425.611 219.562 425.302 219.642 425.052 219.802C424.809 219.962 424.615 220.184 424.469 220.469C424.323 220.747 424.219 221.069 424.156 221.437C424.094 221.799 424.062 222.184 424.062 222.594ZM439.469 225.75V212.333H443V228.333H439.833L439.469 225.75ZM432.552 222.833V222.615C432.552 221.76 432.646 220.983 432.833 220.281C433.021 219.573 433.299 218.965 433.667 218.458C434.035 217.944 434.493 217.549 435.042 217.271C435.59 216.993 436.222 216.854 436.938 216.854C437.576 216.854 438.135 217.003 438.615 217.302C439.094 217.594 439.503 218.003 439.844 218.531C440.184 219.059 440.462 219.677 440.677 220.385C440.892 221.087 441.056 221.844 441.167 222.656V222.917C441.056 223.681 440.892 224.403 440.677 225.083C440.462 225.757 440.184 226.354 439.844 226.875C439.503 227.396 439.09 227.806 438.604 228.104C438.125 228.396 437.563 228.542 436.917 228.542C436.201 228.542 435.569 228.399 435.021 228.115C434.479 227.83 434.024 227.431 433.656 226.917C433.295 226.403 433.021 225.799 432.833 225.104C432.646 224.41 432.552 223.653 432.552 222.833ZM436.063 222.615V222.833C436.063 223.257 436.09 223.649 436.146 224.01C436.201 224.372 436.295 224.691 436.427 224.969C436.566 225.24 436.747 225.451 436.969 225.604C437.198 225.757 437.479 225.833 437.813 225.833C438.264 225.833 438.635 225.726 438.927 225.51C439.226 225.295 439.444 224.99 439.583 224.594C439.729 224.198 439.792 223.733 439.771 223.198V222.375C439.785 221.917 439.753 221.514 439.677 221.167C439.601 220.812 439.479 220.517 439.313 220.281C439.153 220.045 438.948 219.868 438.698 219.75C438.455 219.625 438.167 219.562 437.833 219.562C437.507 219.562 437.229 219.639 437 219.792C436.778 219.944 436.597 220.16 436.458 220.437C436.319 220.708 436.219 221.031 436.156 221.406C436.094 221.774 436.063 222.177 436.063 222.615ZM450.448 228.542C449.531 228.542 448.712 228.399 447.99 228.115C447.267 227.823 446.656 227.424 446.156 226.917C445.663 226.41 445.285 225.826 445.021 225.167C444.764 224.507 444.635 223.809 444.635 223.073V222.677C444.635 221.851 444.75 221.087 444.979 220.385C445.208 219.677 445.549 219.059 446 218.531C446.451 218.003 447.017 217.594 447.698 217.302C448.378 217.003 449.17 216.854 450.073 216.854C450.872 216.854 451.587 216.983 452.219 217.24C452.851 217.497 453.385 217.865 453.823 218.344C454.267 218.823 454.604 219.403 454.833 220.083C455.069 220.764 455.188 221.528 455.188 222.375V223.802H445.979V221.604H451.76V221.333C451.767 220.958 451.701 220.639 451.563 220.375C451.431 220.111 451.236 219.91 450.979 219.771C450.722 219.632 450.41 219.562 450.042 219.562C449.66 219.562 449.344 219.646 449.094 219.812C448.851 219.979 448.66 220.208 448.521 220.5C448.389 220.785 448.295 221.115 448.24 221.49C448.184 221.865 448.156 222.26 448.156 222.677V223.073C448.156 223.49 448.212 223.868 448.323 224.208C448.441 224.549 448.608 224.84 448.823 225.083C449.045 225.319 449.309 225.503 449.615 225.635C449.927 225.767 450.281 225.833 450.677 225.833C451.156 225.833 451.628 225.743 452.094 225.562C452.559 225.382 452.958 225.083 453.292 224.667L454.885 226.562C454.656 226.889 454.33 227.205 453.906 227.51C453.49 227.816 452.99 228.066 452.406 228.26C451.823 228.448 451.17 228.542 450.448 228.542ZM462.813 223.573V213.167H466.458V223.573C466.458 224.587 466.226 225.465 465.76 226.208C465.302 226.951 464.677 227.528 463.885 227.937C463.101 228.34 462.219 228.542 461.24 228.542C460.226 228.542 459.323 228.372 458.531 228.031C457.747 227.691 457.128 227.167 456.677 226.458C456.233 225.75 456.01 224.847 456.01 223.75H459.677C459.677 224.264 459.736 224.667 459.854 224.958C459.972 225.243 460.146 225.444 460.375 225.562C460.611 225.674 460.899 225.729 461.24 225.729C461.573 225.729 461.854 225.646 462.083 225.479C462.319 225.306 462.5 225.059 462.625 224.74C462.75 224.413 462.813 224.024 462.813 223.573ZM476.594 224.302C476.594 224.066 476.559 223.854 476.49 223.667C476.42 223.472 476.292 223.292 476.104 223.125C475.917 222.958 475.646 222.792 475.292 222.625C474.944 222.451 474.486 222.271 473.917 222.083C473.25 221.861 472.608 221.611 471.99 221.333C471.372 221.049 470.819 220.719 470.333 220.344C469.847 219.962 469.462 219.517 469.177 219.01C468.892 218.497 468.75 217.899 468.75 217.219C468.75 216.566 468.896 215.979 469.188 215.458C469.479 214.931 469.885 214.483 470.406 214.115C470.934 213.74 471.552 213.455 472.26 213.26C472.969 213.059 473.743 212.958 474.583 212.958C475.694 212.958 476.674 213.153 477.521 213.542C478.375 213.924 479.042 214.469 479.521 215.177C480.007 215.878 480.25 216.708 480.25 217.667H476.615C476.615 217.285 476.535 216.948 476.375 216.656C476.222 216.365 475.99 216.135 475.677 215.969C475.365 215.802 474.972 215.719 474.5 215.719C474.042 215.719 473.656 215.788 473.344 215.927C473.031 216.066 472.795 216.253 472.635 216.49C472.476 216.719 472.396 216.972 472.396 217.25C472.396 217.479 472.458 217.687 472.583 217.875C472.715 218.056 472.899 218.226 473.135 218.385C473.378 218.545 473.67 218.698 474.01 218.844C474.358 218.99 474.747 219.132 475.177 219.271C475.983 219.528 476.698 219.816 477.323 220.135C477.955 220.448 478.486 220.806 478.917 221.208C479.354 221.604 479.684 222.056 479.906 222.562C480.135 223.069 480.25 223.642 480.25 224.281C480.25 224.962 480.118 225.566 479.854 226.094C479.59 226.622 479.212 227.069 478.719 227.437C478.226 227.799 477.635 228.073 476.948 228.26C476.26 228.448 475.493 228.542 474.646 228.542C473.868 228.542 473.101 228.444 472.344 228.25C471.594 228.049 470.913 227.743 470.302 227.333C469.691 226.917 469.201 226.385 468.833 225.74C468.472 225.087 468.292 224.312 468.292 223.417H471.958C471.958 223.861 472.017 224.236 472.135 224.542C472.253 224.847 472.427 225.094 472.656 225.281C472.885 225.462 473.167 225.594 473.5 225.677C473.833 225.753 474.215 225.792 474.646 225.792C475.111 225.792 475.486 225.726 475.771 225.594C476.056 225.455 476.264 225.274 476.396 225.052C476.528 224.823 476.594 224.573 476.594 224.302Z" fill="white"/>
<g style="mix-blend-mode:exclusion">
<rect x="569" y="194.333" width="212" height="53.3333" rx="6.66667" fill="white" fill-opacity="0.35"/>
</g>
<path d="M614.833 213.167H620.802C621.969 213.167 622.983 213.34 623.844 213.687C624.705 214.035 625.368 214.549 625.833 215.229C626.306 215.91 626.542 216.75 626.542 217.75C626.542 218.618 626.406 219.344 626.135 219.927C625.865 220.51 625.486 220.993 625 221.375C624.521 221.75 623.962 222.059 623.323 222.302L622.125 222.979H617.115L617.094 220.156H620.802C621.267 220.156 621.653 220.073 621.958 219.906C622.264 219.74 622.493 219.503 622.646 219.198C622.806 218.885 622.885 218.514 622.885 218.083C622.885 217.646 622.806 217.271 622.646 216.958C622.486 216.646 622.25 216.406 621.937 216.24C621.632 216.073 621.253 215.99 620.802 215.99H618.49V228.333H614.833V213.167ZM623.135 228.333L619.781 221.625L623.656 221.604L627.052 228.177V228.333H623.135ZM634.042 228.542C633.125 228.542 632.306 228.399 631.583 228.115C630.861 227.823 630.25 227.424 629.75 226.917C629.257 226.41 628.878 225.826 628.615 225.167C628.358 224.507 628.229 223.809 628.229 223.073V222.677C628.229 221.851 628.344 221.087 628.573 220.385C628.802 219.677 629.142 219.059 629.594 218.531C630.045 218.003 630.611 217.594 631.292 217.302C631.972 217.003 632.764 216.854 633.667 216.854C634.465 216.854 635.181 216.983 635.813 217.24C636.444 217.497 636.979 217.865 637.417 218.344C637.861 218.823 638.198 219.403 638.427 220.083C638.663 220.764 638.781 221.528 638.781 222.375V223.802H629.573V221.604H635.354V221.333C635.361 220.958 635.295 220.639 635.156 220.375C635.024 220.111 634.83 219.91 634.573 219.771C634.316 219.632 634.003 219.562 633.635 219.562C633.253 219.562 632.938 219.646 632.688 219.812C632.444 219.979 632.253 220.208 632.115 220.5C631.983 220.785 631.889 221.115 631.833 221.49C631.778 221.865 631.75 222.26 631.75 222.677V223.073C631.75 223.49 631.806 223.868 631.917 224.208C632.035 224.549 632.201 224.84 632.417 225.083C632.639 225.319 632.903 225.503 633.208 225.635C633.521 225.767 633.875 225.833 634.271 225.833C634.75 225.833 635.222 225.743 635.688 225.562C636.153 225.382 636.552 225.083 636.885 224.667L638.479 226.562C638.25 226.889 637.924 227.205 637.5 227.51C637.083 227.816 636.583 228.066 636 228.26C635.417 228.448 634.764 228.542 634.042 228.542ZM646.063 225.5V220.854C646.063 220.535 646.017 220.26 645.927 220.031C645.837 219.802 645.694 219.625 645.5 219.5C645.306 219.368 645.045 219.302 644.719 219.302C644.455 219.302 644.229 219.347 644.042 219.437C643.854 219.528 643.712 219.663 643.615 219.844C643.517 220.024 643.469 220.253 643.469 220.531H639.958C639.958 220.01 640.073 219.528 640.302 219.083C640.538 218.632 640.872 218.24 641.302 217.906C641.74 217.573 642.26 217.316 642.865 217.135C643.476 216.948 644.156 216.854 644.906 216.854C645.802 216.854 646.601 217.003 647.302 217.302C648.01 217.601 648.569 218.049 648.979 218.646C649.389 219.236 649.594 219.979 649.594 220.875V225.49C649.594 226.226 649.635 226.785 649.719 227.167C649.802 227.542 649.92 227.872 650.073 228.156V228.333H646.552C646.385 227.986 646.26 227.562 646.177 227.062C646.101 226.556 646.063 226.035 646.063 225.5ZM646.49 221.448L646.51 223.323H644.958C644.632 223.323 644.354 223.368 644.125 223.458C643.903 223.549 643.722 223.674 643.583 223.833C643.451 223.986 643.354 224.16 643.292 224.354C643.236 224.549 643.208 224.753 643.208 224.969C643.208 225.177 643.257 225.365 643.354 225.531C643.458 225.691 643.597 225.816 643.771 225.906C643.944 225.997 644.139 226.042 644.354 226.042C644.743 226.042 645.073 225.969 645.344 225.823C645.622 225.67 645.833 225.486 645.979 225.271C646.125 225.056 646.198 224.854 646.198 224.667L646.969 226.104C646.83 226.382 646.67 226.663 646.49 226.948C646.316 227.233 646.097 227.497 645.833 227.74C645.576 227.976 645.26 228.17 644.885 228.323C644.51 228.469 644.056 228.542 643.521 228.542C642.826 228.542 642.188 228.399 641.604 228.115C641.028 227.83 640.566 227.434 640.219 226.927C639.872 226.413 639.698 225.823 639.698 225.156C639.698 224.573 639.802 224.052 640.01 223.594C640.226 223.135 640.549 222.747 640.979 222.427C641.41 222.108 641.958 221.865 642.625 221.698C643.292 221.531 644.076 221.448 644.979 221.448H646.49ZM656.302 225.833C656.628 225.833 656.906 225.774 657.135 225.656C657.372 225.531 657.549 225.358 657.667 225.135C657.792 224.906 657.851 224.632 657.844 224.312H661.146C661.153 225.16 660.944 225.903 660.521 226.542C660.104 227.174 659.535 227.667 658.812 228.021C658.097 228.368 657.288 228.542 656.385 228.542C655.503 228.542 654.733 228.399 654.073 228.115C653.413 227.823 652.861 227.42 652.417 226.906C651.979 226.385 651.649 225.778 651.427 225.083C651.212 224.389 651.104 223.635 651.104 222.823V222.583C651.104 221.771 651.212 221.017 651.427 220.323C651.649 219.622 651.979 219.014 652.417 218.5C652.861 217.979 653.41 217.576 654.062 217.292C654.722 217 655.49 216.854 656.365 216.854C657.302 216.854 658.128 217.031 658.844 217.385C659.566 217.74 660.132 218.253 660.542 218.927C660.951 219.601 661.153 220.417 661.146 221.375H657.844C657.851 221.035 657.799 220.729 657.687 220.458C657.576 220.187 657.403 219.972 657.167 219.812C656.937 219.646 656.642 219.562 656.281 219.562C655.92 219.562 655.628 219.642 655.406 219.802C655.184 219.962 655.014 220.184 654.896 220.469C654.785 220.747 654.708 221.066 654.667 221.427C654.632 221.788 654.615 222.174 654.615 222.583V222.823C654.615 223.24 654.632 223.632 654.667 224C654.708 224.361 654.788 224.681 654.906 224.958C655.024 225.229 655.194 225.444 655.417 225.604C655.639 225.757 655.934 225.833 656.302 225.833ZM668.583 217.062V219.5H661.792V217.062H668.583ZM663.219 214.26H666.729V224.656C666.729 224.955 666.764 225.187 666.833 225.354C666.903 225.514 667.021 225.628 667.188 225.698C667.361 225.76 667.59 225.792 667.875 225.792C668.076 225.792 668.243 225.788 668.375 225.781C668.507 225.767 668.632 225.75 668.75 225.729V228.24C668.451 228.337 668.139 228.41 667.813 228.458C667.486 228.514 667.139 228.542 666.771 228.542C666.021 228.542 665.378 228.424 664.844 228.187C664.316 227.951 663.913 227.58 663.635 227.073C663.358 226.566 663.219 225.906 663.219 225.094V214.26ZM688.125 213.167V228.333H684.479L679.115 218.896V228.333H675.458V213.167H679.115L684.479 222.604V213.167H688.125ZM696.125 225.5V220.854C696.125 220.535 696.08 220.26 695.99 220.031C695.899 219.802 695.757 219.625 695.563 219.5C695.368 219.368 695.108 219.302 694.781 219.302C694.517 219.302 694.292 219.347 694.104 219.437C693.917 219.528 693.774 219.663 693.677 219.844C693.58 220.024 693.531 220.253 693.531 220.531H690.021C690.021 220.01 690.135 219.528 690.365 219.083C690.601 218.632 690.934 218.24 691.365 217.906C691.802 217.573 692.323 217.316 692.927 217.135C693.538 216.948 694.219 216.854 694.969 216.854C695.865 216.854 696.663 217.003 697.365 217.302C698.073 217.601 698.632 218.049 699.042 218.646C699.451 219.236 699.656 219.979 699.656 220.875V225.49C699.656 226.226 699.698 226.785 699.781 227.167C699.865 227.542 699.983 227.872 700.135 228.156V228.333H696.615C696.448 227.986 696.323 227.562 696.24 227.062C696.163 226.556 696.125 226.035 696.125 225.5ZM696.552 221.448L696.573 223.323H695.021C694.694 223.323 694.417 223.368 694.188 223.458C693.965 223.549 693.785 223.674 693.646 223.833C693.514 223.986 693.417 224.16 693.354 224.354C693.299 224.549 693.271 224.753 693.271 224.969C693.271 225.177 693.319 225.365 693.417 225.531C693.521 225.691 693.66 225.816 693.833 225.906C694.007 225.997 694.201 226.042 694.417 226.042C694.806 226.042 695.135 225.969 695.406 225.823C695.684 225.67 695.896 225.486 696.042 225.271C696.188 225.056 696.26 224.854 696.26 224.667L697.031 226.104C696.892 226.382 696.733 226.663 696.552 226.948C696.378 227.233 696.16 227.497 695.896 227.74C695.639 227.976 695.323 228.17 694.948 228.323C694.573 228.469 694.118 228.542 693.583 228.542C692.889 228.542 692.25 228.399 691.667 228.115C691.09 227.83 690.628 227.434 690.281 226.927C689.934 226.413 689.76 225.823 689.76 225.156C689.76 224.573 689.865 224.052 690.073 223.594C690.288 223.135 690.611 222.747 691.042 222.427C691.472 222.108 692.021 221.865 692.688 221.698C693.354 221.531 694.139 221.448 695.042 221.448H696.552ZM707.542 217.062V219.5H700.75V217.062H707.542ZM702.177 214.26H705.687V224.656C705.687 224.955 705.722 225.187 705.792 225.354C705.861 225.514 705.979 225.628 706.146 225.698C706.319 225.76 706.549 225.792 706.833 225.792C707.035 225.792 707.201 225.788 707.333 225.781C707.465 225.767 707.59 225.75 707.708 225.729V228.24C707.41 228.337 707.097 228.41 706.771 228.458C706.444 228.514 706.097 228.542 705.729 228.542C704.979 228.542 704.337 228.424 703.802 228.187C703.274 227.951 702.872 227.58 702.594 227.073C702.316 226.566 702.177 225.906 702.177 225.094V214.26ZM712.646 217.062V228.333H709.125V217.062H712.646ZM708.917 214.156C708.917 213.656 709.097 213.247 709.458 212.927C709.819 212.608 710.288 212.448 710.865 212.448C711.441 212.448 711.91 212.608 712.271 212.927C712.632 213.247 712.813 213.656 712.813 214.156C712.813 214.656 712.632 215.066 712.271 215.385C711.91 215.705 711.441 215.865 710.865 215.865C710.288 215.865 709.819 215.705 709.458 215.385C709.097 215.066 708.917 214.656 708.917 214.156ZM718.875 225.927L721.094 217.062H724.792L721.104 228.333H718.917L718.875 225.927ZM717.563 217.062L719.75 225.927L719.729 228.333H717.531L713.854 217.062H717.563ZM731.146 228.542C730.229 228.542 729.41 228.399 728.688 228.115C727.965 227.823 727.354 227.424 726.854 226.917C726.361 226.41 725.983 225.826 725.719 225.167C725.462 224.507 725.333 223.809 725.333 223.073V222.677C725.333 221.851 725.448 221.087 725.677 220.385C725.906 219.677 726.247 219.059 726.698 218.531C727.149 218.003 727.715 217.594 728.396 217.302C729.076 217.003 729.868 216.854 730.771 216.854C731.569 216.854 732.285 216.983 732.917 217.24C733.549 217.497 734.083 217.865 734.521 218.344C734.965 218.823 735.302 219.403 735.531 220.083C735.767 220.764 735.885 221.528 735.885 222.375V223.802H726.677V221.604H732.458V221.333C732.465 220.958 732.399 220.639 732.26 220.375C732.128 220.111 731.934 219.91 731.677 219.771C731.42 219.632 731.108 219.562 730.74 219.562C730.358 219.562 730.042 219.646 729.792 219.812C729.549 219.979 729.358 220.208 729.219 220.5C729.087 220.785 728.993 221.115 728.938 221.49C728.882 221.865 728.854 222.26 728.854 222.677V223.073C728.854 223.49 728.91 223.868 729.021 224.208C729.139 224.549 729.306 224.84 729.521 225.083C729.743 225.319 730.007 225.503 730.313 225.635C730.625 225.767 730.979 225.833 731.375 225.833C731.854 225.833 732.326 225.743 732.792 225.562C733.257 225.382 733.656 225.083 733.99 224.667L735.583 226.562C735.354 226.889 735.028 227.205 734.604 227.51C734.188 227.816 733.688 228.066 733.104 228.26C732.521 228.448 731.868 228.542 731.146 228.542Z" fill="white"/>
</svg>
