<svg width="1363" height="167" viewBox="0 0 1363 167" fill="none" xmlns="http://www.w3.org/2000/svg">
<g style="mix-blend-mode:exclusion">
<rect width="1363" height="167" rx="15" fill="white" fill-opacity="0.05"/>
</g>
<g style="mix-blend-mode:exclusion">
<path d="M0 15C0 6.71573 6.71573 0 15 0H37V167H15C6.71573 167 0 160.284 0 152V15Z" fill="white" fill-opacity="0.25"/>
</g>
<g style="mix-blend-mode:exclusion">
<path d="M95.1289 40.9375H98.1055L102.488 53.4648L106.871 40.9375H109.848L103.684 58H101.293L95.1289 40.9375ZM93.5234 40.9375H96.4883L97.0273 53.1484V58H93.5234V40.9375ZM108.488 40.9375H111.465V58H107.949V53.1484L108.488 40.9375ZM113.797 51.7891V51.543C113.797 50.6133 113.93 49.7578 114.195 48.9766C114.461 48.1875 114.848 47.5039 115.355 46.9258C115.863 46.3477 116.488 45.8984 117.23 45.5781C117.973 45.25 118.824 45.0859 119.785 45.0859C120.746 45.0859 121.602 45.25 122.352 45.5781C123.102 45.8984 123.73 46.3477 124.238 46.9258C124.754 47.5039 125.145 48.1875 125.41 48.9766C125.676 49.7578 125.809 50.6133 125.809 51.543V51.7891C125.809 52.7109 125.676 53.5664 125.41 54.3555C125.145 55.1367 124.754 55.8203 124.238 56.4062C123.73 56.9844 123.105 57.4336 122.363 57.7539C121.621 58.0742 120.77 58.2344 119.809 58.2344C118.848 58.2344 117.992 58.0742 117.242 57.7539C116.5 57.4336 115.871 56.9844 115.355 56.4062C114.848 55.8203 114.461 55.1367 114.195 54.3555C113.93 53.5664 113.797 52.7109 113.797 51.7891ZM117.172 51.543V51.7891C117.172 52.3203 117.219 52.8164 117.312 53.2773C117.406 53.7383 117.555 54.1445 117.758 54.4961C117.969 54.8398 118.242 55.1094 118.578 55.3047C118.914 55.5 119.324 55.5977 119.809 55.5977C120.277 55.5977 120.68 55.5 121.016 55.3047C121.352 55.1094 121.621 54.8398 121.824 54.4961C122.027 54.1445 122.176 53.7383 122.27 53.2773C122.371 52.8164 122.422 52.3203 122.422 51.7891V51.543C122.422 51.0273 122.371 50.543 122.27 50.0898C122.176 49.6289 122.023 49.2227 121.812 48.8711C121.609 48.5117 121.34 48.2305 121.004 48.0273C120.668 47.8242 120.262 47.7227 119.785 47.7227C119.309 47.7227 118.902 47.8242 118.566 48.0273C118.238 48.2305 117.969 48.5117 117.758 48.8711C117.555 49.2227 117.406 49.6289 117.312 50.0898C117.219 50.543 117.172 51.0273 117.172 51.543ZM131.188 48.0273V58H127.812V45.3203H130.977L131.188 48.0273ZM130.695 51.2148H129.781C129.781 50.2773 129.902 49.4336 130.145 48.6836C130.387 47.9258 130.727 47.2812 131.164 46.75C131.602 46.2109 132.121 45.8008 132.723 45.5195C133.332 45.2305 134.012 45.0859 134.762 45.0859C135.355 45.0859 135.898 45.1719 136.391 45.3438C136.883 45.5156 137.305 45.7891 137.656 46.1641C138.016 46.5391 138.289 47.0352 138.477 47.6523C138.672 48.2695 138.77 49.0234 138.77 49.9141V58H135.371V49.9023C135.371 49.3398 135.293 48.9023 135.137 48.5898C134.98 48.2773 134.75 48.0586 134.445 47.9336C134.148 47.8008 133.781 47.7344 133.344 47.7344C132.891 47.7344 132.496 47.8242 132.16 48.0039C131.832 48.1836 131.559 48.4336 131.34 48.7539C131.129 49.0664 130.969 49.4336 130.859 49.8555C130.75 50.2773 130.695 50.7305 130.695 51.2148ZM147.172 58.2344C146.188 58.2344 145.305 58.0781 144.523 57.7656C143.742 57.4453 143.078 57.0039 142.531 56.4414C141.992 55.8789 141.578 55.2266 141.289 54.4844C141 53.7344 140.855 52.9375 140.855 52.0938V51.625C140.855 50.6641 140.992 49.7852 141.266 48.9883C141.539 48.1914 141.93 47.5 142.438 46.9141C142.953 46.3281 143.578 45.8789 144.312 45.5664C145.047 45.2461 145.875 45.0859 146.797 45.0859C147.695 45.0859 148.492 45.2344 149.188 45.5312C149.883 45.8281 150.465 46.25 150.934 46.7969C151.41 47.3438 151.77 48 152.012 48.7656C152.254 49.5234 152.375 50.3672 152.375 51.2969V52.7031H142.297V50.4531H149.059V50.1953C149.059 49.7266 148.973 49.3086 148.801 48.9414C148.637 48.5664 148.387 48.2695 148.051 48.0508C147.715 47.832 147.285 47.7227 146.762 47.7227C146.316 47.7227 145.934 47.8203 145.613 48.0156C145.293 48.2109 145.031 48.4844 144.828 48.8359C144.633 49.1875 144.484 49.6016 144.383 50.0781C144.289 50.5469 144.242 51.0625 144.242 51.625V52.0938C144.242 52.6016 144.312 53.0703 144.453 53.5C144.602 53.9297 144.809 54.3008 145.074 54.6133C145.348 54.9258 145.676 55.168 146.059 55.3398C146.449 55.5117 146.891 55.5977 147.383 55.5977C147.992 55.5977 148.559 55.4805 149.082 55.2461C149.613 55.0039 150.07 54.6406 150.453 54.1562L152.094 55.9375C151.828 56.3203 151.465 56.6875 151.004 57.0391C150.551 57.3906 150.004 57.6797 149.363 57.9062C148.723 58.125 147.992 58.2344 147.172 58.2344ZM157.895 56.5703L161.258 45.3203H164.879L159.781 59.9102C159.672 60.2305 159.523 60.5742 159.336 60.9414C159.156 61.3086 158.91 61.6562 158.598 61.9844C158.293 62.3203 157.906 62.5938 157.438 62.8047C156.977 63.0156 156.41 63.1211 155.738 63.1211C155.418 63.1211 155.156 63.1016 154.953 63.0625C154.75 63.0234 154.508 62.9688 154.227 62.8984V60.4258C154.312 60.4258 154.402 60.4258 154.496 60.4258C154.59 60.4336 154.68 60.4375 154.766 60.4375C155.211 60.4375 155.574 60.3867 155.855 60.2852C156.137 60.1836 156.363 60.0273 156.535 59.8164C156.707 59.6133 156.844 59.3477 156.945 59.0195L157.895 56.5703ZM156.488 45.3203L159.242 54.5078L159.723 58.082L157.426 58.3281L152.867 45.3203H156.488ZM183.793 47.8867V50.6289H174.887V47.8867H183.793ZM175.93 40.9375V58H172.414V40.9375H175.93ZM186.301 40.9375V58H182.797V40.9375H186.301ZM188.609 51.7891V51.543C188.609 50.6133 188.742 49.7578 189.008 48.9766C189.273 48.1875 189.66 47.5039 190.168 46.9258C190.676 46.3477 191.301 45.8984 192.043 45.5781C192.785 45.25 193.637 45.0859 194.598 45.0859C195.559 45.0859 196.414 45.25 197.164 45.5781C197.914 45.8984 198.543 46.3477 199.051 46.9258C199.566 47.5039 199.957 48.1875 200.223 48.9766C200.488 49.7578 200.621 50.6133 200.621 51.543V51.7891C200.621 52.7109 200.488 53.5664 200.223 54.3555C199.957 55.1367 199.566 55.8203 199.051 56.4062C198.543 56.9844 197.918 57.4336 197.176 57.7539C196.434 58.0742 195.582 58.2344 194.621 58.2344C193.66 58.2344 192.805 58.0742 192.055 57.7539C191.312 57.4336 190.684 56.9844 190.168 56.4062C189.66 55.8203 189.273 55.1367 189.008 54.3555C188.742 53.5664 188.609 52.7109 188.609 51.7891ZM191.984 51.543V51.7891C191.984 52.3203 192.031 52.8164 192.125 53.2773C192.219 53.7383 192.367 54.1445 192.57 54.4961C192.781 54.8398 193.055 55.1094 193.391 55.3047C193.727 55.5 194.137 55.5977 194.621 55.5977C195.09 55.5977 195.492 55.5 195.828 55.3047C196.164 55.1094 196.434 54.8398 196.637 54.4961C196.84 54.1445 196.988 53.7383 197.082 53.2773C197.184 52.8164 197.234 52.3203 197.234 51.7891V51.543C197.234 51.0273 197.184 50.543 197.082 50.0898C196.988 49.6289 196.836 49.2227 196.625 48.8711C196.422 48.5117 196.152 48.2305 195.816 48.0273C195.48 47.8242 195.074 47.7227 194.598 47.7227C194.121 47.7227 193.715 47.8242 193.379 48.0273C193.051 48.2305 192.781 48.5117 192.57 48.8711C192.367 49.2227 192.219 49.6289 192.125 50.0898C192.031 50.543 191.984 51.0273 191.984 51.543ZM210.195 54.9648V45.3203H213.57V58H210.395L210.195 54.9648ZM210.57 52.3633L211.566 52.3398C211.566 53.1836 211.469 53.9688 211.273 54.6953C211.078 55.4141 210.785 56.0391 210.395 56.5703C210.004 57.0938 209.512 57.5039 208.918 57.8008C208.324 58.0898 207.625 58.2344 206.82 58.2344C206.203 58.2344 205.633 58.1484 205.109 57.9766C204.594 57.7969 204.148 57.5195 203.773 57.1445C203.406 56.7617 203.117 56.2734 202.906 55.6797C202.703 55.0781 202.602 54.3555 202.602 53.5117V45.3203H205.977V53.5352C205.977 53.9102 206.02 54.2266 206.105 54.4844C206.199 54.7422 206.328 54.9531 206.492 55.1172C206.656 55.2812 206.848 55.3984 207.066 55.4688C207.293 55.5391 207.543 55.5742 207.816 55.5742C208.512 55.5742 209.059 55.4336 209.457 55.1523C209.863 54.8711 210.148 54.4883 210.312 54.0039C210.484 53.5117 210.57 52.9648 210.57 52.3633ZM219.453 48.0273V58H216.078V45.3203H219.242L219.453 48.0273ZM218.961 51.2148H218.047C218.047 50.2773 218.168 49.4336 218.41 48.6836C218.652 47.9258 218.992 47.2812 219.43 46.75C219.867 46.2109 220.387 45.8008 220.988 45.5195C221.598 45.2305 222.277 45.0859 223.027 45.0859C223.621 45.0859 224.164 45.1719 224.656 45.3438C225.148 45.5156 225.57 45.7891 225.922 46.1641C226.281 46.5391 226.555 47.0352 226.742 47.6523C226.938 48.2695 227.035 49.0234 227.035 49.9141V58H223.637V49.9023C223.637 49.3398 223.559 48.9023 223.402 48.5898C223.246 48.2773 223.016 48.0586 222.711 47.9336C222.414 47.8008 222.047 47.7344 221.609 47.7344C221.156 47.7344 220.762 47.8242 220.426 48.0039C220.098 48.1836 219.824 48.4336 219.605 48.7539C219.395 49.0664 219.234 49.4336 219.125 49.8555C219.016 50.2773 218.961 50.7305 218.961 51.2148ZM237.09 55.2344V40H240.488V58H237.43L237.09 55.2344ZM229.074 51.8125V51.5664C229.074 50.5977 229.184 49.7188 229.402 48.9297C229.621 48.1328 229.941 47.4492 230.363 46.8789C230.785 46.3086 231.305 45.8672 231.922 45.5547C232.539 45.2422 233.242 45.0859 234.031 45.0859C234.773 45.0859 235.422 45.2422 235.977 45.5547C236.539 45.8672 237.016 46.3125 237.406 46.8906C237.805 47.4609 238.125 48.1367 238.367 48.918C238.609 49.6914 238.785 50.5391 238.895 51.4609V52C238.785 52.8828 238.609 53.7031 238.367 54.4609C238.125 55.2188 237.805 55.8828 237.406 56.4531C237.016 57.0156 236.539 57.4531 235.977 57.7656C235.414 58.0781 234.758 58.2344 234.008 58.2344C233.219 58.2344 232.516 58.0742 231.898 57.7539C231.289 57.4336 230.773 56.9844 230.352 56.4062C229.938 55.8281 229.621 55.1484 229.402 54.3672C229.184 53.5859 229.074 52.7344 229.074 51.8125ZM232.449 51.5664V51.8125C232.449 52.3359 232.488 52.8242 232.566 53.2773C232.652 53.7305 232.789 54.1328 232.977 54.4844C233.172 54.8281 233.422 55.0977 233.727 55.293C234.039 55.4805 234.418 55.5742 234.863 55.5742C235.441 55.5742 235.918 55.4453 236.293 55.1875C236.668 54.9219 236.953 54.5586 237.148 54.0977C237.352 53.6367 237.469 53.1055 237.5 52.5039V50.9688C237.477 50.4766 237.406 50.0352 237.289 49.6445C237.18 49.2461 237.016 48.9062 236.797 48.625C236.586 48.3438 236.32 48.125 236 47.9688C235.688 47.8125 235.316 47.7344 234.887 47.7344C234.449 47.7344 234.074 47.8359 233.762 48.0391C233.449 48.2344 233.195 48.5039 233 48.8477C232.812 49.1914 232.672 49.5977 232.578 50.0664C232.492 50.5273 232.449 51.0273 232.449 51.5664Z" fill="white" fill-opacity="0.5"/>
</g>
<g style="mix-blend-mode:exclusion">
<path d="M107.205 107.146H99.251V101.191H107.205C108.289 101.191 109.168 101.008 109.842 100.642C110.516 100.275 111.006 99.77 111.314 99.1255C111.636 98.4663 111.797 97.7266 111.797 96.9062C111.797 96.0273 111.636 95.2144 111.314 94.4673C111.006 93.7202 110.516 93.1196 109.842 92.6655C109.168 92.1968 108.289 91.9624 107.205 91.9624H102.151V118H94.439V86.0078H107.205C109.769 86.0078 111.973 86.4766 113.819 87.4141C115.679 88.3516 117.107 89.6406 118.104 91.2812C119.1 92.9072 119.598 94.7676 119.598 96.8623C119.598 98.9277 119.1 100.729 118.104 102.268C117.107 103.806 115.679 105.007 113.819 105.871C111.973 106.721 109.769 107.146 107.205 107.146ZM130.87 100.114V118H123.465V94.2256H130.386L130.87 100.114ZM137.901 94.0498L137.769 100.927C137.476 100.898 137.081 100.861 136.583 100.817C136.084 100.773 135.667 100.751 135.33 100.751C134.466 100.751 133.719 100.854 133.089 101.059C132.474 101.25 131.961 101.542 131.551 101.938C131.155 102.319 130.862 102.802 130.672 103.388C130.496 103.974 130.416 104.655 130.43 105.432L129.09 104.553C129.09 102.956 129.244 101.506 129.551 100.202C129.874 98.8838 130.328 97.7485 130.914 96.7964C131.5 95.8296 132.21 95.0898 133.045 94.5771C133.88 94.0498 134.817 93.7861 135.857 93.7861C136.224 93.7861 136.583 93.8081 136.934 93.8521C137.3 93.896 137.623 93.9619 137.901 94.0498ZM138.736 106.354V105.893C138.736 104.15 138.985 102.546 139.483 101.081C139.981 99.6016 140.713 98.3198 141.68 97.2358C142.647 96.1519 143.841 95.3096 145.262 94.709C146.683 94.0938 148.323 93.7861 150.184 93.7861C152.059 93.7861 153.707 94.0938 155.127 94.709C156.563 95.3096 157.764 96.1519 158.731 97.2358C159.698 98.3198 160.43 99.6016 160.928 101.081C161.426 102.546 161.675 104.15 161.675 105.893V106.354C161.675 108.083 161.426 109.687 160.928 111.167C160.43 112.631 159.698 113.913 158.731 115.012C157.764 116.096 156.57 116.938 155.149 117.539C153.729 118.139 152.088 118.439 150.228 118.439C148.367 118.439 146.719 118.139 145.284 117.539C143.848 116.938 142.647 116.096 141.68 115.012C140.713 113.913 139.981 112.631 139.483 111.167C138.985 109.687 138.736 108.083 138.736 106.354ZM146.141 105.893V106.354C146.141 107.248 146.207 108.083 146.338 108.859C146.47 109.636 146.69 110.317 146.998 110.903C147.305 111.474 147.723 111.921 148.25 112.243C148.777 112.565 149.437 112.727 150.228 112.727C151.004 112.727 151.648 112.565 152.161 112.243C152.688 111.921 153.106 111.474 153.414 110.903C153.721 110.317 153.941 109.636 154.073 108.859C154.205 108.083 154.271 107.248 154.271 106.354V105.893C154.271 105.029 154.205 104.216 154.073 103.454C153.941 102.678 153.721 101.997 153.414 101.411C153.106 100.81 152.688 100.341 152.161 100.004C151.634 99.6675 150.975 99.499 150.184 99.499C149.407 99.499 148.755 99.6675 148.228 100.004C147.715 100.341 147.305 100.81 146.998 101.411C146.69 101.997 146.47 102.678 146.338 103.454C146.207 104.216 146.141 105.029 146.141 105.893ZM165.521 94.2256H172.947V118.769C172.947 120.673 172.581 122.277 171.849 123.581C171.116 124.899 170.069 125.896 168.707 126.569C167.344 127.258 165.718 127.602 163.829 127.602C163.199 127.602 162.62 127.573 162.093 127.514C161.551 127.47 160.958 127.375 160.313 127.229V121.625C160.694 121.684 161.045 121.728 161.368 121.757C161.69 121.801 162.042 121.823 162.422 121.823C163.096 121.823 163.66 121.713 164.114 121.494C164.568 121.274 164.913 120.937 165.147 120.483C165.396 120.029 165.521 119.458 165.521 118.769V94.2256ZM164.971 88.0952C164.971 87.0405 165.352 86.1763 166.114 85.5024C166.875 84.8286 167.864 84.4917 169.08 84.4917C170.296 84.4917 171.285 84.8286 172.046 85.5024C172.808 86.1763 173.189 87.0405 173.189 88.0952C173.189 89.1499 172.808 90.0142 172.046 90.688C171.285 91.3618 170.296 91.6987 169.08 91.6987C167.864 91.6987 166.875 91.3618 166.114 90.688C165.352 90.0142 164.971 89.1499 164.971 88.0952ZM188.658 118.439C186.724 118.439 184.996 118.139 183.472 117.539C181.949 116.923 180.66 116.081 179.605 115.012C178.565 113.942 177.767 112.712 177.21 111.32C176.668 109.929 176.397 108.457 176.397 106.904V106.069C176.397 104.326 176.639 102.714 177.122 101.235C177.605 99.7407 178.323 98.437 179.275 97.3237C180.228 96.2104 181.421 95.3462 182.857 94.731C184.292 94.1011 185.962 93.7861 187.867 93.7861C189.551 93.7861 191.06 94.0571 192.393 94.5991C193.726 95.1411 194.854 95.9175 195.777 96.9282C196.714 97.939 197.425 99.1621 197.908 100.598C198.406 102.033 198.655 103.645 198.655 105.432V108.442H179.231V103.806H191.426V103.234C191.441 102.443 191.302 101.77 191.009 101.213C190.73 100.656 190.32 100.231 189.778 99.9385C189.236 99.6455 188.577 99.499 187.801 99.499C186.995 99.499 186.329 99.6748 185.801 100.026C185.289 100.378 184.886 100.861 184.593 101.477C184.314 102.077 184.117 102.773 184 103.564C183.882 104.355 183.824 105.19 183.824 106.069V106.904C183.824 107.783 183.941 108.581 184.175 109.299C184.424 110.017 184.776 110.632 185.23 111.145C185.699 111.643 186.255 112.031 186.9 112.309C187.559 112.587 188.306 112.727 189.141 112.727C190.152 112.727 191.148 112.536 192.129 112.155C193.111 111.774 193.953 111.145 194.656 110.266L198.018 114.265C197.535 114.953 196.846 115.62 195.953 116.264C195.074 116.909 194.019 117.436 192.789 117.846C191.558 118.242 190.181 118.439 188.658 118.439ZM211.707 112.727C212.396 112.727 212.981 112.602 213.465 112.353C213.963 112.089 214.336 111.723 214.585 111.254C214.849 110.771 214.974 110.192 214.959 109.519H221.924C221.939 111.306 221.5 112.873 220.606 114.221C219.727 115.554 218.526 116.594 217.002 117.341C215.494 118.073 213.787 118.439 211.883 118.439C210.022 118.439 208.396 118.139 207.005 117.539C205.613 116.923 204.449 116.074 203.511 114.99C202.588 113.891 201.893 112.609 201.424 111.145C200.97 109.68 200.743 108.09 200.743 106.376V105.871C200.743 104.157 200.97 102.568 201.424 101.103C201.893 99.6235 202.588 98.3418 203.511 97.2578C204.449 96.1592 205.606 95.3096 206.983 94.709C208.375 94.0938 209.993 93.7861 211.839 93.7861C213.816 93.7861 215.56 94.1597 217.068 94.9067C218.592 95.6538 219.786 96.7378 220.65 98.1587C221.514 99.5796 221.939 101.301 221.924 103.322H214.959C214.974 102.604 214.864 101.96 214.629 101.389C214.395 100.817 214.029 100.363 213.531 100.026C213.047 99.6748 212.425 99.499 211.663 99.499C210.901 99.499 210.286 99.6675 209.817 100.004C209.349 100.341 208.99 100.81 208.741 101.411C208.506 101.997 208.345 102.67 208.257 103.432C208.184 104.194 208.147 105.007 208.147 105.871V106.376C208.147 107.255 208.184 108.083 208.257 108.859C208.345 109.621 208.514 110.295 208.763 110.881C209.012 111.452 209.371 111.906 209.839 112.243C210.308 112.565 210.931 112.727 211.707 112.727ZM237.613 94.2256V99.3672H223.287V94.2256H237.613ZM226.297 88.3149H233.702V110.244C233.702 110.874 233.775 111.364 233.921 111.716C234.068 112.053 234.317 112.294 234.668 112.441C235.035 112.573 235.518 112.639 236.119 112.639C236.543 112.639 236.895 112.631 237.173 112.617C237.452 112.587 237.715 112.551 237.964 112.507V117.802C237.334 118.007 236.675 118.161 235.987 118.264C235.298 118.381 234.566 118.439 233.79 118.439C232.208 118.439 230.853 118.19 229.725 117.692C228.611 117.194 227.762 116.411 227.176 115.341C226.59 114.272 226.297 112.88 226.297 111.167V88.3149ZM264.881 107.146H256.927V101.191H264.881C265.965 101.191 266.844 101.008 267.518 100.642C268.191 100.275 268.682 99.77 268.99 99.1255C269.312 98.4663 269.473 97.7266 269.473 96.9062C269.473 96.0273 269.312 95.2144 268.99 94.4673C268.682 93.7202 268.191 93.1196 267.518 92.6655C266.844 92.1968 265.965 91.9624 264.881 91.9624H259.827V118H252.115V86.0078H264.881C267.444 86.0078 269.649 86.4766 271.495 87.4141C273.355 88.3516 274.783 89.6406 275.779 91.2812C276.775 92.9072 277.273 94.7676 277.273 96.8623C277.273 98.9277 276.775 100.729 275.779 102.268C274.783 103.806 273.355 105.007 271.495 105.871C269.649 106.721 267.444 107.146 264.881 107.146ZM288.326 84.25V118H280.921V84.25H288.326ZM287.447 105.3L285.711 105.344C285.711 103.674 285.916 102.136 286.326 100.729C286.736 99.3232 287.322 98.1001 288.084 97.0601C288.846 96.02 289.761 95.2144 290.831 94.6431C291.9 94.0718 293.086 93.7861 294.39 93.7861C295.562 93.7861 296.631 93.9546 297.598 94.2915C298.58 94.6284 299.422 95.1704 300.125 95.9175C300.843 96.6646 301.392 97.6387 301.773 98.8398C302.168 100.041 302.366 101.506 302.366 103.234V118H294.917V103.19C294.917 102.224 294.778 101.477 294.5 100.949C294.236 100.407 293.855 100.034 293.357 99.8286C292.859 99.6089 292.251 99.499 291.534 99.499C290.669 99.499 289.966 99.6455 289.424 99.9385C288.882 100.231 288.465 100.642 288.172 101.169C287.894 101.682 287.703 102.29 287.601 102.993C287.498 103.696 287.447 104.465 287.447 105.3ZM314.297 94.2256V118H306.871V94.2256H314.297ZM306.431 88.0952C306.431 87.0405 306.812 86.1763 307.574 85.5024C308.335 84.8286 309.324 84.4917 310.54 84.4917C311.756 84.4917 312.745 84.8286 313.506 85.5024C314.268 86.1763 314.649 87.0405 314.649 88.0952C314.649 89.1499 314.268 90.0142 313.506 90.688C312.745 91.3618 311.756 91.6987 310.54 91.6987C309.324 91.6987 308.335 91.3618 307.574 90.688C306.812 90.0142 306.431 89.1499 306.431 88.0952ZM326.69 84.25V118H319.263V84.25H326.69ZM330.337 106.354V105.893C330.337 104.15 330.586 102.546 331.084 101.081C331.583 99.6016 332.315 98.3198 333.282 97.2358C334.249 96.1519 335.442 95.3096 336.863 94.709C338.284 94.0938 339.925 93.7861 341.785 93.7861C343.66 93.7861 345.308 94.0938 346.729 94.709C348.165 95.3096 349.366 96.1519 350.333 97.2358C351.299 98.3198 352.032 99.6016 352.53 101.081C353.028 102.546 353.277 104.15 353.277 105.893V106.354C353.277 108.083 353.028 109.687 352.53 111.167C352.032 112.631 351.299 113.913 350.333 115.012C349.366 116.096 348.172 116.938 346.751 117.539C345.33 118.139 343.689 118.439 341.829 118.439C339.969 118.439 338.321 118.139 336.885 117.539C335.45 116.938 334.249 116.096 333.282 115.012C332.315 113.913 331.583 112.631 331.084 111.167C330.586 109.687 330.337 108.083 330.337 106.354ZM337.742 105.893V106.354C337.742 107.248 337.808 108.083 337.94 108.859C338.072 109.636 338.292 110.317 338.599 110.903C338.907 111.474 339.324 111.921 339.852 112.243C340.379 112.565 341.038 112.727 341.829 112.727C342.605 112.727 343.25 112.565 343.763 112.243C344.29 111.921 344.708 111.474 345.015 110.903C345.323 110.317 345.542 109.636 345.674 108.859C345.806 108.083 345.872 107.248 345.872 106.354V105.893C345.872 105.029 345.806 104.216 345.674 103.454C345.542 102.678 345.323 101.997 345.015 101.411C344.708 100.81 344.29 100.341 343.763 100.004C343.235 99.6675 342.576 99.499 341.785 99.499C341.009 99.499 340.357 99.6675 339.83 100.004C339.317 100.341 338.907 100.81 338.599 101.411C338.292 101.997 338.072 102.678 337.94 103.454C337.808 104.216 337.742 105.029 337.742 105.893ZM369.031 111.32C369.031 110.91 368.892 110.559 368.614 110.266C368.35 109.958 367.881 109.68 367.208 109.431C366.534 109.167 365.589 108.903 364.373 108.64C363.216 108.391 362.125 108.061 361.099 107.651C360.088 107.241 359.202 106.743 358.44 106.157C357.679 105.571 357.078 104.875 356.639 104.069C356.214 103.264 356.001 102.341 356.001 101.301C356.001 100.29 356.214 99.3379 356.639 98.4443C357.078 97.5361 357.715 96.7378 358.55 96.0493C359.4 95.3462 360.433 94.7969 361.648 94.4014C362.864 93.9912 364.249 93.7861 365.801 93.7861C367.94 93.7861 369.786 94.1157 371.338 94.7749C372.891 95.4194 374.085 96.3276 374.92 97.4995C375.77 98.6567 376.194 99.9971 376.194 101.521H368.79C368.79 100.92 368.687 100.407 368.482 99.9824C368.292 99.5576 367.977 99.2354 367.537 99.0156C367.098 98.7812 366.512 98.6641 365.779 98.6641C365.267 98.6641 364.798 98.7593 364.373 98.9497C363.963 99.1401 363.633 99.4038 363.384 99.7407C363.135 100.078 363.011 100.473 363.011 100.927C363.011 101.25 363.084 101.542 363.23 101.806C363.392 102.055 363.633 102.29 363.956 102.509C364.278 102.714 364.688 102.905 365.186 103.081C365.684 103.242 366.285 103.388 366.988 103.52C368.584 103.813 370.079 104.23 371.47 104.772C372.862 105.314 373.99 106.083 374.854 107.08C375.733 108.076 376.172 109.416 376.172 111.101C376.172 112.155 375.931 113.129 375.447 114.023C374.964 114.902 374.268 115.678 373.36 116.352C372.452 117.011 371.36 117.524 370.086 117.89C368.812 118.256 367.376 118.439 365.779 118.439C363.509 118.439 361.59 118.037 360.022 117.231C358.455 116.411 357.269 115.385 356.463 114.155C355.672 112.91 355.276 111.65 355.276 110.375H362.176C362.205 111.108 362.381 111.708 362.703 112.177C363.04 112.646 363.487 112.99 364.043 113.21C364.6 113.43 365.245 113.54 365.977 113.54C366.651 113.54 367.208 113.444 367.647 113.254C368.101 113.063 368.445 112.807 368.68 112.485C368.914 112.148 369.031 111.76 369.031 111.32ZM378.721 106.354V105.893C378.721 104.15 378.97 102.546 379.468 101.081C379.966 99.6016 380.699 98.3198 381.666 97.2358C382.632 96.1519 383.826 95.3096 385.247 94.709C386.668 94.0938 388.309 93.7861 390.169 93.7861C392.044 93.7861 393.692 94.0938 395.113 94.709C396.548 95.3096 397.75 96.1519 398.716 97.2358C399.683 98.3198 400.416 99.6016 400.914 101.081C401.412 102.546 401.661 104.15 401.661 105.893V106.354C401.661 108.083 401.412 109.687 400.914 111.167C400.416 112.631 399.683 113.913 398.716 115.012C397.75 116.096 396.556 116.938 395.135 117.539C393.714 118.139 392.073 118.439 390.213 118.439C388.353 118.439 386.705 118.139 385.269 117.539C383.833 116.938 382.632 116.096 381.666 115.012C380.699 113.913 379.966 112.631 379.468 111.167C378.97 109.687 378.721 108.083 378.721 106.354ZM386.126 105.893V106.354C386.126 107.248 386.192 108.083 386.324 108.859C386.456 109.636 386.675 110.317 386.983 110.903C387.291 111.474 387.708 111.921 388.235 112.243C388.763 112.565 389.422 112.727 390.213 112.727C390.989 112.727 391.634 112.565 392.146 112.243C392.674 111.921 393.091 111.474 393.399 110.903C393.707 110.317 393.926 109.636 394.058 108.859C394.19 108.083 394.256 107.248 394.256 106.354V105.893C394.256 105.029 394.19 104.216 394.058 103.454C393.926 102.678 393.707 101.997 393.399 101.411C393.091 100.81 392.674 100.341 392.146 100.004C391.619 99.6675 390.96 99.499 390.169 99.499C389.393 99.499 388.741 99.6675 388.213 100.004C387.701 100.341 387.291 100.81 386.983 101.411C386.675 101.997 386.456 102.678 386.324 103.454C386.192 104.216 386.126 105.029 386.126 105.893ZM412.427 98.7959V127.141H405.022V94.2256H411.922L412.427 98.7959ZM427.017 105.827V106.289C427.017 108.017 426.819 109.621 426.424 111.101C426.028 112.58 425.442 113.869 424.666 114.968C423.89 116.066 422.923 116.923 421.766 117.539C420.623 118.139 419.297 118.439 417.789 118.439C416.368 118.439 415.145 118.125 414.119 117.495C413.094 116.865 412.237 115.993 411.548 114.88C410.86 113.767 410.303 112.492 409.878 111.057C409.454 109.621 409.117 108.105 408.868 106.508V105.915C409.117 104.201 409.454 102.612 409.878 101.147C410.303 99.6675 410.86 98.3784 411.548 97.2798C412.237 96.1812 413.086 95.3242 414.097 94.709C415.123 94.0938 416.346 93.7861 417.767 93.7861C419.275 93.7861 420.601 94.0718 421.744 94.6431C422.901 95.2144 423.868 96.0347 424.644 97.104C425.435 98.1587 426.028 99.4258 426.424 100.905C426.819 102.385 427.017 104.025 427.017 105.827ZM419.612 106.289V105.827C419.612 104.904 419.546 104.062 419.415 103.3C419.283 102.524 419.07 101.85 418.777 101.279C418.499 100.708 418.125 100.268 417.657 99.9604C417.188 99.6528 416.609 99.499 415.921 99.499C415.13 99.499 414.463 99.6235 413.921 99.8726C413.394 100.107 412.969 100.473 412.647 100.971C412.339 101.455 412.12 102.062 411.988 102.795C411.871 103.513 411.819 104.355 411.834 105.322V107.124C411.805 108.237 411.915 109.218 412.164 110.068C412.413 110.903 412.845 111.555 413.46 112.023C414.075 112.492 414.91 112.727 415.965 112.727C416.668 112.727 417.254 112.565 417.723 112.243C418.191 111.906 418.565 111.445 418.843 110.859C419.122 110.258 419.319 109.57 419.437 108.793C419.554 108.017 419.612 107.182 419.612 106.289ZM437.564 84.25V118H430.159V84.25H437.564ZM436.685 105.3L434.949 105.344C434.949 103.674 435.154 102.136 435.564 100.729C435.975 99.3232 436.561 98.1001 437.322 97.0601C438.084 96.02 439 95.2144 440.069 94.6431C441.138 94.0718 442.325 93.7861 443.628 93.7861C444.8 93.7861 445.87 93.9546 446.836 94.2915C447.818 94.6284 448.66 95.1704 449.363 95.9175C450.081 96.6646 450.63 97.6387 451.011 98.8398C451.407 100.041 451.604 101.506 451.604 103.234V118H444.156V103.19C444.156 102.224 444.017 101.477 443.738 100.949C443.475 100.407 443.094 100.034 442.596 99.8286C442.098 99.6089 441.49 99.499 440.772 99.499C439.908 99.499 439.205 99.6455 438.663 99.9385C438.121 100.231 437.703 100.642 437.41 101.169C437.132 101.682 436.941 102.29 436.839 102.993C436.736 103.696 436.685 104.465 436.685 105.3ZM463.008 115.209L469.161 94.2256H477.115L467.557 121.538C467.352 122.138 467.081 122.783 466.744 123.471C466.407 124.174 465.945 124.841 465.359 125.471C464.773 126.101 464.019 126.613 463.096 127.009C462.188 127.404 461.06 127.602 459.712 127.602C458.995 127.602 458.467 127.565 458.13 127.492C457.808 127.434 457.31 127.324 456.636 127.163V121.867C456.827 121.867 456.988 121.867 457.12 121.867C457.266 121.867 457.427 121.867 457.603 121.867C458.394 121.867 459.024 121.787 459.493 121.625C459.976 121.464 460.342 121.23 460.591 120.922C460.855 120.615 461.06 120.241 461.207 119.802L463.008 115.209ZM461.448 94.2256L466.128 110.859L466.941 118.703H461.976L453.516 94.2256H461.448Z" fill="white"/>
</g>
<path d="M1363 15C1363 6.71573 1356.28 0 1348 0H1134V167H1348C1356.28 167 1363 160.284 1363 152V15Z" fill="#026A75"/>
<path d="M1234.26 106.286H1262.74V111.857H1234.26V106.286ZM1239.96 117.429H1257.04V123H1239.96V117.429ZM1248.5 45C1240.95 45 1233.71 47.9349 1228.37 53.1592C1223.03 58.3834 1220.03 65.469 1220.03 72.8571C1219.84 76.9057 1220.63 80.9412 1222.34 84.6315C1224.05 88.3219 1226.64 91.5616 1229.88 94.0843C1232.73 96.675 1234.26 98.1514 1234.26 100.714H1239.96C1239.96 95.5886 1236.8 92.7193 1233.72 89.9614C1231.06 87.9676 1228.94 85.3658 1227.55 82.3838C1226.15 79.4019 1225.53 76.1308 1225.72 72.8571C1225.72 66.9466 1228.12 61.2781 1232.39 57.0988C1236.67 52.9194 1242.46 50.5714 1248.5 50.5714C1254.54 50.5714 1260.33 52.9194 1264.61 57.0988C1268.88 61.2781 1271.28 66.9466 1271.28 72.8571C1271.47 76.1333 1270.84 79.4059 1269.44 82.388C1268.04 85.3701 1265.92 87.9706 1263.25 89.9614C1260.2 92.7471 1257.04 95.5329 1257.04 100.714H1262.74C1262.74 98.1514 1264.25 96.675 1267.12 94.0564C1270.36 91.5381 1272.94 88.3031 1274.66 84.6176C1276.37 80.9321 1277.16 76.9014 1276.97 72.8571C1276.97 69.1989 1276.24 65.5765 1274.81 62.1967C1273.37 58.8169 1271.28 55.7459 1268.63 53.1592C1265.99 50.5724 1262.85 48.5205 1259.4 47.1205C1255.94 45.7205 1252.24 45 1248.5 45Z" fill="white"/>
</svg>
