<svg width="1363" height="167" viewBox="0 0 1363 167" fill="none" xmlns="http://www.w3.org/2000/svg">
<rect width="1363" height="167" rx="15" fill="#F0F0F0"/>
<path d="M0 15C0 6.71573 6.71573 0 15 0H37V167H15C6.71573 167 0 160.284 0 152V15Z" fill="#424241"/>
<path d="M100.906 54.9219L93.3945 52.2383V49.0859L103.602 53.375V55.6367L100.906 54.9219ZM93.3945 57.1719L100.918 54.4297L103.602 53.7852V56.0352L93.3945 60.3242V57.1719ZM113.504 44.9375H116.48L120.863 57.4648L125.246 44.9375H128.223L122.059 62H119.668L113.504 44.9375ZM111.898 44.9375H114.863L115.402 57.1484V62H111.898V44.9375ZM126.863 44.9375H129.84V62H126.324V57.1484L126.863 44.9375ZM132.172 55.7891V55.543C132.172 54.6133 132.305 53.7578 132.57 52.9766C132.836 52.1875 133.223 51.5039 133.73 50.9258C134.238 50.3477 134.863 49.8984 135.605 49.5781C136.348 49.25 137.199 49.0859 138.16 49.0859C139.121 49.0859 139.977 49.25 140.727 49.5781C141.477 49.8984 142.105 50.3477 142.613 50.9258C143.129 51.5039 143.52 52.1875 143.785 52.9766C144.051 53.7578 144.184 54.6133 144.184 55.543V55.7891C144.184 56.7109 144.051 57.5664 143.785 58.3555C143.52 59.1367 143.129 59.8203 142.613 60.4062C142.105 60.9844 141.48 61.4336 140.738 61.7539C139.996 62.0742 139.145 62.2344 138.184 62.2344C137.223 62.2344 136.367 62.0742 135.617 61.7539C134.875 61.4336 134.246 60.9844 133.73 60.4062C133.223 59.8203 132.836 59.1367 132.57 58.3555C132.305 57.5664 132.172 56.7109 132.172 55.7891ZM135.547 55.543V55.7891C135.547 56.3203 135.594 56.8164 135.688 57.2773C135.781 57.7383 135.93 58.1445 136.133 58.4961C136.344 58.8398 136.617 59.1094 136.953 59.3047C137.289 59.5 137.699 59.5977 138.184 59.5977C138.652 59.5977 139.055 59.5 139.391 59.3047C139.727 59.1094 139.996 58.8398 140.199 58.4961C140.402 58.1445 140.551 57.7383 140.645 57.2773C140.746 56.8164 140.797 56.3203 140.797 55.7891V55.543C140.797 55.0273 140.746 54.543 140.645 54.0898C140.551 53.6289 140.398 53.2227 140.188 52.8711C139.984 52.5117 139.715 52.2305 139.379 52.0273C139.043 51.8242 138.637 51.7227 138.16 51.7227C137.684 51.7227 137.277 51.8242 136.941 52.0273C136.613 52.2305 136.344 52.5117 136.133 52.8711C135.93 53.2227 135.781 53.6289 135.688 54.0898C135.594 54.543 135.547 55.0273 135.547 55.543ZM149.562 52.0273V62H146.188V49.3203H149.352L149.562 52.0273ZM149.07 55.2148H148.156C148.156 54.2773 148.277 53.4336 148.52 52.6836C148.762 51.9258 149.102 51.2812 149.539 50.75C149.977 50.2109 150.496 49.8008 151.098 49.5195C151.707 49.2305 152.387 49.0859 153.137 49.0859C153.73 49.0859 154.273 49.1719 154.766 49.3438C155.258 49.5156 155.68 49.7891 156.031 50.1641C156.391 50.5391 156.664 51.0352 156.852 51.6523C157.047 52.2695 157.145 53.0234 157.145 53.9141V62H153.746V53.9023C153.746 53.3398 153.668 52.9023 153.512 52.5898C153.355 52.2773 153.125 52.0586 152.82 51.9336C152.523 51.8008 152.156 51.7344 151.719 51.7344C151.266 51.7344 150.871 51.8242 150.535 52.0039C150.207 52.1836 149.934 52.4336 149.715 52.7539C149.504 53.0664 149.344 53.4336 149.234 53.8555C149.125 54.2773 149.07 54.7305 149.07 55.2148ZM165.547 62.2344C164.562 62.2344 163.68 62.0781 162.898 61.7656C162.117 61.4453 161.453 61.0039 160.906 60.4414C160.367 59.8789 159.953 59.2266 159.664 58.4844C159.375 57.7344 159.23 56.9375 159.23 56.0938V55.625C159.23 54.6641 159.367 53.7852 159.641 52.9883C159.914 52.1914 160.305 51.5 160.812 50.9141C161.328 50.3281 161.953 49.8789 162.688 49.5664C163.422 49.2461 164.25 49.0859 165.172 49.0859C166.07 49.0859 166.867 49.2344 167.562 49.5312C168.258 49.8281 168.84 50.25 169.309 50.7969C169.785 51.3438 170.145 52 170.387 52.7656C170.629 53.5234 170.75 54.3672 170.75 55.2969V56.7031H160.672V54.4531H167.434V54.1953C167.434 53.7266 167.348 53.3086 167.176 52.9414C167.012 52.5664 166.762 52.2695 166.426 52.0508C166.09 51.832 165.66 51.7227 165.137 51.7227C164.691 51.7227 164.309 51.8203 163.988 52.0156C163.668 52.2109 163.406 52.4844 163.203 52.8359C163.008 53.1875 162.859 53.6016 162.758 54.0781C162.664 54.5469 162.617 55.0625 162.617 55.625V56.0938C162.617 56.6016 162.688 57.0703 162.828 57.5C162.977 57.9297 163.184 58.3008 163.449 58.6133C163.723 58.9258 164.051 59.168 164.434 59.3398C164.824 59.5117 165.266 59.5977 165.758 59.5977C166.367 59.5977 166.934 59.4805 167.457 59.2461C167.988 59.0039 168.445 58.6406 168.828 58.1562L170.469 59.9375C170.203 60.3203 169.84 60.6875 169.379 61.0391C168.926 61.3906 168.379 61.6797 167.738 61.9062C167.098 62.125 166.367 62.2344 165.547 62.2344ZM176.27 60.5703L179.633 49.3203H183.254L178.156 63.9102C178.047 64.2305 177.898 64.5742 177.711 64.9414C177.531 65.3086 177.285 65.6562 176.973 65.9844C176.668 66.3203 176.281 66.5938 175.812 66.8047C175.352 67.0156 174.785 67.1211 174.113 67.1211C173.793 67.1211 173.531 67.1016 173.328 67.0625C173.125 67.0234 172.883 66.9688 172.602 66.8984V64.4258C172.688 64.4258 172.777 64.4258 172.871 64.4258C172.965 64.4336 173.055 64.4375 173.141 64.4375C173.586 64.4375 173.949 64.3867 174.23 64.2852C174.512 64.1836 174.738 64.0273 174.91 63.8164C175.082 63.6133 175.219 63.3477 175.32 63.0195L176.27 60.5703ZM174.863 49.3203L177.617 58.5078L178.098 62.082L175.801 62.3281L171.242 49.3203H174.863ZM202.168 51.8867V54.6289H193.262V51.8867H202.168ZM194.305 44.9375V62H190.789V44.9375H194.305ZM204.676 44.9375V62H201.172V44.9375H204.676ZM206.984 55.7891V55.543C206.984 54.6133 207.117 53.7578 207.383 52.9766C207.648 52.1875 208.035 51.5039 208.543 50.9258C209.051 50.3477 209.676 49.8984 210.418 49.5781C211.16 49.25 212.012 49.0859 212.973 49.0859C213.934 49.0859 214.789 49.25 215.539 49.5781C216.289 49.8984 216.918 50.3477 217.426 50.9258C217.941 51.5039 218.332 52.1875 218.598 52.9766C218.863 53.7578 218.996 54.6133 218.996 55.543V55.7891C218.996 56.7109 218.863 57.5664 218.598 58.3555C218.332 59.1367 217.941 59.8203 217.426 60.4062C216.918 60.9844 216.293 61.4336 215.551 61.7539C214.809 62.0742 213.957 62.2344 212.996 62.2344C212.035 62.2344 211.18 62.0742 210.43 61.7539C209.688 61.4336 209.059 60.9844 208.543 60.4062C208.035 59.8203 207.648 59.1367 207.383 58.3555C207.117 57.5664 206.984 56.7109 206.984 55.7891ZM210.359 55.543V55.7891C210.359 56.3203 210.406 56.8164 210.5 57.2773C210.594 57.7383 210.742 58.1445 210.945 58.4961C211.156 58.8398 211.43 59.1094 211.766 59.3047C212.102 59.5 212.512 59.5977 212.996 59.5977C213.465 59.5977 213.867 59.5 214.203 59.3047C214.539 59.1094 214.809 58.8398 215.012 58.4961C215.215 58.1445 215.363 57.7383 215.457 57.2773C215.559 56.8164 215.609 56.3203 215.609 55.7891V55.543C215.609 55.0273 215.559 54.543 215.457 54.0898C215.363 53.6289 215.211 53.2227 215 52.8711C214.797 52.5117 214.527 52.2305 214.191 52.0273C213.855 51.8242 213.449 51.7227 212.973 51.7227C212.496 51.7227 212.09 51.8242 211.754 52.0273C211.426 52.2305 211.156 52.5117 210.945 52.8711C210.742 53.2227 210.594 53.6289 210.5 54.0898C210.406 54.543 210.359 55.0273 210.359 55.543ZM228.57 58.9648V49.3203H231.945V62H228.77L228.57 58.9648ZM228.945 56.3633L229.941 56.3398C229.941 57.1836 229.844 57.9688 229.648 58.6953C229.453 59.4141 229.16 60.0391 228.77 60.5703C228.379 61.0938 227.887 61.5039 227.293 61.8008C226.699 62.0898 226 62.2344 225.195 62.2344C224.578 62.2344 224.008 62.1484 223.484 61.9766C222.969 61.7969 222.523 61.5195 222.148 61.1445C221.781 60.7617 221.492 60.2734 221.281 59.6797C221.078 59.0781 220.977 58.3555 220.977 57.5117V49.3203H224.352V57.5352C224.352 57.9102 224.395 58.2266 224.48 58.4844C224.574 58.7422 224.703 58.9531 224.867 59.1172C225.031 59.2812 225.223 59.3984 225.441 59.4688C225.668 59.5391 225.918 59.5742 226.191 59.5742C226.887 59.5742 227.434 59.4336 227.832 59.1523C228.238 58.8711 228.523 58.4883 228.688 58.0039C228.859 57.5117 228.945 56.9648 228.945 56.3633ZM237.828 52.0273V62H234.453V49.3203H237.617L237.828 52.0273ZM237.336 55.2148H236.422C236.422 54.2773 236.543 53.4336 236.785 52.6836C237.027 51.9258 237.367 51.2812 237.805 50.75C238.242 50.2109 238.762 49.8008 239.363 49.5195C239.973 49.2305 240.652 49.0859 241.402 49.0859C241.996 49.0859 242.539 49.1719 243.031 49.3438C243.523 49.5156 243.945 49.7891 244.297 50.1641C244.656 50.5391 244.93 51.0352 245.117 51.6523C245.312 52.2695 245.41 53.0234 245.41 53.9141V62H242.012V53.9023C242.012 53.3398 241.934 52.9023 241.777 52.5898C241.621 52.2773 241.391 52.0586 241.086 51.9336C240.789 51.8008 240.422 51.7344 239.984 51.7344C239.531 51.7344 239.137 51.8242 238.801 52.0039C238.473 52.1836 238.199 52.4336 237.98 52.7539C237.77 53.0664 237.609 53.4336 237.5 53.8555C237.391 54.2773 237.336 54.7305 237.336 55.2148ZM255.465 59.2344V44H258.863V62H255.805L255.465 59.2344ZM247.449 55.8125V55.5664C247.449 54.5977 247.559 53.7188 247.777 52.9297C247.996 52.1328 248.316 51.4492 248.738 50.8789C249.16 50.3086 249.68 49.8672 250.297 49.5547C250.914 49.2422 251.617 49.0859 252.406 49.0859C253.148 49.0859 253.797 49.2422 254.352 49.5547C254.914 49.8672 255.391 50.3125 255.781 50.8906C256.18 51.4609 256.5 52.1367 256.742 52.918C256.984 53.6914 257.16 54.5391 257.27 55.4609V56C257.16 56.8828 256.984 57.7031 256.742 58.4609C256.5 59.2188 256.18 59.8828 255.781 60.4531C255.391 61.0156 254.914 61.4531 254.352 61.7656C253.789 62.0781 253.133 62.2344 252.383 62.2344C251.594 62.2344 250.891 62.0742 250.273 61.7539C249.664 61.4336 249.148 60.9844 248.727 60.4062C248.312 59.8281 247.996 59.1484 247.777 58.3672C247.559 57.5859 247.449 56.7344 247.449 55.8125ZM250.824 55.5664V55.8125C250.824 56.3359 250.863 56.8242 250.941 57.2773C251.027 57.7305 251.164 58.1328 251.352 58.4844C251.547 58.8281 251.797 59.0977 252.102 59.293C252.414 59.4805 252.793 59.5742 253.238 59.5742C253.816 59.5742 254.293 59.4453 254.668 59.1875C255.043 58.9219 255.328 58.5586 255.523 58.0977C255.727 57.6367 255.844 57.1055 255.875 56.5039V54.9688C255.852 54.4766 255.781 54.0352 255.664 53.6445C255.555 53.2461 255.391 52.9062 255.172 52.625C254.961 52.3438 254.695 52.125 254.375 51.9688C254.062 51.8125 253.691 51.7344 253.262 51.7344C252.824 51.7344 252.449 51.8359 252.137 52.0391C251.824 52.2344 251.57 52.5039 251.375 52.8477C251.188 53.1914 251.047 53.5977 250.953 54.0664C250.867 54.5273 250.824 55.0273 250.824 55.5664Z" fill="#888888"/>
<path d="M107.205 107.146H99.251V101.191H107.205C108.289 101.191 109.168 101.008 109.842 100.642C110.516 100.275 111.006 99.77 111.314 99.1255C111.636 98.4663 111.797 97.7266 111.797 96.9062C111.797 96.0273 111.636 95.2144 111.314 94.4673C111.006 93.7202 110.516 93.1196 109.842 92.6655C109.168 92.1968 108.289 91.9624 107.205 91.9624H102.151V118H94.439V86.0078H107.205C109.769 86.0078 111.973 86.4766 113.819 87.4141C115.679 88.3516 117.107 89.6406 118.104 91.2812C119.1 92.9072 119.598 94.7676 119.598 96.8623C119.598 98.9277 119.1 100.729 118.104 102.268C117.107 103.806 115.679 105.007 113.819 105.871C111.973 106.721 109.769 107.146 107.205 107.146ZM130.87 100.114V118H123.465V94.2256H130.386L130.87 100.114ZM137.901 94.0498L137.769 100.927C137.476 100.898 137.081 100.861 136.583 100.817C136.084 100.773 135.667 100.751 135.33 100.751C134.466 100.751 133.719 100.854 133.089 101.059C132.474 101.25 131.961 101.542 131.551 101.938C131.155 102.319 130.862 102.802 130.672 103.388C130.496 103.974 130.416 104.655 130.43 105.432L129.09 104.553C129.09 102.956 129.244 101.506 129.551 100.202C129.874 98.8838 130.328 97.7485 130.914 96.7964C131.5 95.8296 132.21 95.0898 133.045 94.5771C133.88 94.0498 134.817 93.7861 135.857 93.7861C136.224 93.7861 136.583 93.8081 136.934 93.8521C137.3 93.896 137.623 93.9619 137.901 94.0498ZM138.736 106.354V105.893C138.736 104.15 138.985 102.546 139.483 101.081C139.981 99.6016 140.713 98.3198 141.68 97.2358C142.647 96.1519 143.841 95.3096 145.262 94.709C146.683 94.0938 148.323 93.7861 150.184 93.7861C152.059 93.7861 153.707 94.0938 155.127 94.709C156.563 95.3096 157.764 96.1519 158.731 97.2358C159.698 98.3198 160.43 99.6016 160.928 101.081C161.426 102.546 161.675 104.15 161.675 105.893V106.354C161.675 108.083 161.426 109.687 160.928 111.167C160.43 112.631 159.698 113.913 158.731 115.012C157.764 116.096 156.57 116.938 155.149 117.539C153.729 118.139 152.088 118.439 150.228 118.439C148.367 118.439 146.719 118.139 145.284 117.539C143.848 116.938 142.647 116.096 141.68 115.012C140.713 113.913 139.981 112.631 139.483 111.167C138.985 109.687 138.736 108.083 138.736 106.354ZM146.141 105.893V106.354C146.141 107.248 146.207 108.083 146.338 108.859C146.47 109.636 146.69 110.317 146.998 110.903C147.305 111.474 147.723 111.921 148.25 112.243C148.777 112.565 149.437 112.727 150.228 112.727C151.004 112.727 151.648 112.565 152.161 112.243C152.688 111.921 153.106 111.474 153.414 110.903C153.721 110.317 153.941 109.636 154.073 108.859C154.205 108.083 154.271 107.248 154.271 106.354V105.893C154.271 105.029 154.205 104.216 154.073 103.454C153.941 102.678 153.721 101.997 153.414 101.411C153.106 100.81 152.688 100.341 152.161 100.004C151.634 99.6675 150.975 99.499 150.184 99.499C149.407 99.499 148.755 99.6675 148.228 100.004C147.715 100.341 147.305 100.81 146.998 101.411C146.69 101.997 146.47 102.678 146.338 103.454C146.207 104.216 146.141 105.029 146.141 105.893ZM177.496 94.2256V99.3672H163.169V94.2256H177.496ZM166.18 88.3149H173.584V110.244C173.584 110.874 173.658 111.364 173.804 111.716C173.951 112.053 174.2 112.294 174.551 112.441C174.917 112.573 175.401 112.639 176.001 112.639C176.426 112.639 176.778 112.631 177.056 112.617C177.334 112.587 177.598 112.551 177.847 112.507V117.802C177.217 118.007 176.558 118.161 175.87 118.264C175.181 118.381 174.449 118.439 173.672 118.439C172.09 118.439 170.735 118.19 169.607 117.692C168.494 117.194 167.645 116.411 167.059 115.341C166.473 114.272 166.18 112.88 166.18 111.167V88.3149ZM178.858 106.354V105.893C178.858 104.15 179.107 102.546 179.605 101.081C180.103 99.6016 180.835 98.3198 181.802 97.2358C182.769 96.1519 183.963 95.3096 185.384 94.709C186.805 94.0938 188.445 93.7861 190.306 93.7861C192.181 93.7861 193.829 94.0938 195.25 94.709C196.685 95.3096 197.886 96.1519 198.853 97.2358C199.82 98.3198 200.552 99.6016 201.05 101.081C201.548 102.546 201.797 104.15 201.797 105.893V106.354C201.797 108.083 201.548 109.687 201.05 111.167C200.552 112.631 199.82 113.913 198.853 115.012C197.886 116.096 196.692 116.938 195.271 117.539C193.851 118.139 192.21 118.439 190.35 118.439C188.489 118.439 186.841 118.139 185.406 117.539C183.97 116.938 182.769 116.096 181.802 115.012C180.835 113.913 180.103 112.631 179.605 111.167C179.107 109.687 178.858 108.083 178.858 106.354ZM186.263 105.893V106.354C186.263 107.248 186.329 108.083 186.46 108.859C186.592 109.636 186.812 110.317 187.12 110.903C187.427 111.474 187.845 111.921 188.372 112.243C188.899 112.565 189.559 112.727 190.35 112.727C191.126 112.727 191.771 112.565 192.283 112.243C192.811 111.921 193.228 111.474 193.536 110.903C193.843 110.317 194.063 109.636 194.195 108.859C194.327 108.083 194.393 107.248 194.393 106.354V105.893C194.393 105.029 194.327 104.216 194.195 103.454C194.063 102.678 193.843 101.997 193.536 101.411C193.228 100.81 192.811 100.341 192.283 100.004C191.756 99.6675 191.097 99.499 190.306 99.499C189.529 99.499 188.877 99.6675 188.35 100.004C187.837 100.341 187.427 100.81 187.12 101.411C186.812 101.997 186.592 102.678 186.46 103.454C186.329 104.216 186.263 105.029 186.263 105.893ZM217.618 94.2256V99.3672H203.292V94.2256H217.618ZM206.302 88.3149H213.707V110.244C213.707 110.874 213.78 111.364 213.926 111.716C214.073 112.053 214.322 112.294 214.673 112.441C215.04 112.573 215.523 112.639 216.124 112.639C216.548 112.639 216.9 112.631 217.178 112.617C217.457 112.587 217.72 112.551 217.969 112.507V117.802C217.339 118.007 216.68 118.161 215.992 118.264C215.303 118.381 214.571 118.439 213.794 118.439C212.212 118.439 210.857 118.19 209.729 117.692C208.616 117.194 207.767 116.411 207.181 115.341C206.595 114.272 206.302 112.88 206.302 111.167V88.3149ZM227.857 115.209L234.009 94.2256H241.963L232.405 121.538C232.2 122.138 231.929 122.783 231.592 123.471C231.255 124.174 230.794 124.841 230.208 125.471C229.622 126.101 228.868 126.613 227.945 127.009C227.037 127.404 225.909 127.602 224.561 127.602C223.843 127.602 223.316 127.565 222.979 127.492C222.657 127.434 222.159 127.324 221.485 127.163V121.867C221.675 121.867 221.836 121.867 221.968 121.867C222.115 121.867 222.276 121.867 222.452 121.867C223.243 121.867 223.873 121.787 224.341 121.625C224.825 121.464 225.191 121.23 225.44 120.922C225.704 120.615 225.909 120.241 226.055 119.802L227.857 115.209ZM226.297 94.2256L230.977 110.859L231.79 118.703H226.824L218.365 94.2256H226.297ZM251.368 98.7959V127.141H243.963V94.2256H250.862L251.368 98.7959ZM265.958 105.827V106.289C265.958 108.017 265.76 109.621 265.364 111.101C264.969 112.58 264.383 113.869 263.606 114.968C262.83 116.066 261.863 116.923 260.706 117.539C259.563 118.139 258.238 118.439 256.729 118.439C255.308 118.439 254.085 118.125 253.06 117.495C252.034 116.865 251.177 115.993 250.489 114.88C249.8 113.767 249.244 112.492 248.819 111.057C248.394 109.621 248.057 108.105 247.808 106.508V105.915C248.057 104.201 248.394 102.612 248.819 101.147C249.244 99.6675 249.8 98.3784 250.489 97.2798C251.177 96.1812 252.027 95.3242 253.038 94.709C254.063 94.0938 255.286 93.7861 256.707 93.7861C258.216 93.7861 259.542 94.0718 260.684 94.6431C261.841 95.2144 262.808 96.0347 263.584 97.104C264.375 98.1587 264.969 99.4258 265.364 100.905C265.76 102.385 265.958 104.025 265.958 105.827ZM258.553 106.289V105.827C258.553 104.904 258.487 104.062 258.355 103.3C258.223 102.524 258.011 101.85 257.718 101.279C257.439 100.708 257.066 100.268 256.597 99.9604C256.128 99.6528 255.55 99.499 254.861 99.499C254.07 99.499 253.404 99.6235 252.862 99.8726C252.334 100.107 251.91 100.473 251.587 100.971C251.28 101.455 251.06 102.062 250.928 102.795C250.811 103.513 250.76 104.355 250.774 105.322V107.124C250.745 108.237 250.855 109.218 251.104 110.068C251.353 110.903 251.785 111.555 252.4 112.023C253.016 112.492 253.851 112.727 254.905 112.727C255.608 112.727 256.194 112.565 256.663 112.243C257.132 111.906 257.505 111.445 257.784 110.859C258.062 110.258 258.26 109.57 258.377 108.793C258.494 108.017 258.553 107.182 258.553 106.289ZM277.076 94.2256V118H269.649V94.2256H277.076ZM269.209 88.0952C269.209 87.0405 269.59 86.1763 270.352 85.5024C271.114 84.8286 272.103 84.4917 273.318 84.4917C274.534 84.4917 275.523 84.8286 276.285 85.5024C277.046 86.1763 277.427 87.0405 277.427 88.0952C277.427 89.1499 277.046 90.0142 276.285 90.688C275.523 91.3618 274.534 91.6987 273.318 91.6987C272.103 91.6987 271.114 91.3618 270.352 90.688C269.59 90.0142 269.209 89.1499 269.209 88.0952ZM288.919 99.3013V118H281.514V94.2256H288.458L288.919 99.3013ZM288.04 105.3L286.304 105.344C286.304 103.527 286.524 101.909 286.963 100.488C287.403 99.0522 288.025 97.8364 288.831 96.8403C289.637 95.8442 290.596 95.0898 291.709 94.5771C292.837 94.0498 294.09 93.7861 295.467 93.7861C296.565 93.7861 297.569 93.9473 298.477 94.2695C299.4 94.5918 300.191 95.1118 300.85 95.8296C301.524 96.5474 302.037 97.4995 302.388 98.686C302.754 99.8579 302.938 101.308 302.938 103.037V118H295.489V103.015C295.489 102.062 295.357 101.337 295.093 100.839C294.83 100.327 294.449 99.9751 293.951 99.7847C293.453 99.5942 292.845 99.499 292.127 99.499C291.365 99.499 290.721 99.6455 290.193 99.9385C289.666 100.231 289.241 100.642 288.919 101.169C288.611 101.682 288.384 102.29 288.238 102.993C288.106 103.696 288.04 104.465 288.04 105.3ZM321.988 94.2256H328.711V117.077C328.711 119.274 328.206 121.135 327.195 122.658C326.185 124.196 324.771 125.361 322.955 126.152C321.153 126.958 319.043 127.36 316.626 127.36C315.557 127.36 314.466 127.221 313.353 126.943C312.239 126.679 311.199 126.284 310.232 125.756C309.266 125.229 308.453 124.577 307.793 123.801L310.892 119.45C311.492 120.124 312.247 120.695 313.155 121.164C314.063 121.647 315.132 121.889 316.363 121.889C317.432 121.889 318.326 121.699 319.043 121.318C319.776 120.937 320.333 120.38 320.713 119.648C321.094 118.93 321.285 118.059 321.285 117.033V99.8506L321.988 94.2256ZM306.189 106.398V105.937C306.189 104.135 306.409 102.495 306.849 101.015C307.303 99.521 307.947 98.2393 308.782 97.1699C309.632 96.0859 310.657 95.251 311.858 94.665C313.06 94.0791 314.415 93.7861 315.923 93.7861C317.549 93.7861 318.882 94.1011 319.922 94.731C320.977 95.3462 321.819 96.2104 322.449 97.3237C323.094 98.437 323.592 99.7407 323.943 101.235C324.31 102.714 324.617 104.311 324.866 106.025V106.574C324.617 108.186 324.273 109.709 323.833 111.145C323.409 112.565 322.852 113.825 322.164 114.924C321.475 116.022 320.611 116.887 319.571 117.517C318.545 118.132 317.315 118.439 315.879 118.439C314.385 118.439 313.038 118.139 311.836 117.539C310.65 116.938 309.632 116.096 308.782 115.012C307.947 113.928 307.303 112.653 306.849 111.188C306.409 109.724 306.189 108.127 306.189 106.398ZM313.594 105.937V106.398C313.594 107.292 313.675 108.12 313.836 108.881C314.012 109.643 314.275 110.317 314.627 110.903C314.979 111.474 315.411 111.921 315.923 112.243C316.451 112.565 317.066 112.727 317.769 112.727C318.838 112.727 319.703 112.5 320.362 112.045C321.021 111.591 321.497 110.947 321.79 110.112C322.083 109.277 322.208 108.295 322.164 107.167V105.432C322.193 104.465 322.127 103.615 321.966 102.883C321.805 102.136 321.548 101.513 321.197 101.015C320.86 100.517 320.406 100.144 319.834 99.8945C319.278 99.6309 318.604 99.499 317.813 99.499C317.125 99.499 316.517 99.6602 315.989 99.9824C315.462 100.305 315.022 100.759 314.671 101.345C314.319 101.916 314.048 102.597 313.858 103.388C313.682 104.165 313.594 105.014 313.594 105.937Z" fill="#424241"/>
<path d="M1363 15C1363 6.71573 1356.28 0 1348 0H1134V167H1348C1356.28 167 1363 160.284 1363 152V15Z" fill="#026A75"/>
<path fill-rule="evenodd" clip-rule="evenodd" d="M1203 49C1203 47.8954 1203.9 47 1205 47H1292.5C1293.6 47 1294.5 47.8954 1294.5 49V118.996C1294.5 120.101 1293.6 120.996 1292.5 120.996H1205C1203.9 120.996 1203 120.101 1203 118.996V49ZM1207 51V55.4945H1290.5V51H1207ZM1290.5 59.4945H1235.44V116.996H1290.5V59.4945ZM1231.44 116.996V59.4945H1207V116.996H1231.44Z" fill="white"/>
<path fill-rule="evenodd" clip-rule="evenodd" d="M1209.97 64.8004C1209.97 63.6958 1210.87 62.8004 1211.97 62.8004H1225.97C1227.08 62.8004 1227.97 63.6958 1227.97 64.8004V84.1956C1227.97 85.3001 1227.08 86.1956 1225.97 86.1956H1211.97C1210.87 86.1956 1209.97 85.3001 1209.97 84.1956V64.8004ZM1213.97 66.8004V82.1956H1223.97V66.8004H1213.97ZM1239.58 65.6964C1239.58 64.5918 1240.47 63.6964 1241.58 63.6964H1284.5C1285.61 63.6964 1286.5 64.5918 1286.5 65.6964V111.905C1286.5 113.01 1285.61 113.905 1284.5 113.905H1241.58C1240.47 113.905 1239.58 113.01 1239.58 111.905V65.6964ZM1243.58 67.6964V109.905H1282.5V67.6964H1243.58ZM1209.81 95.9363C1209.81 94.8317 1210.71 93.9363 1211.81 93.9363H1220.73C1221.84 93.9363 1222.73 94.8317 1222.73 95.9363C1222.73 97.0409 1221.84 97.9363 1220.73 97.9363H1211.81C1210.71 97.9363 1209.81 97.0409 1209.81 95.9363ZM1209.81 102.936C1209.81 101.832 1210.71 100.936 1211.81 100.936H1226.35C1227.46 100.936 1228.35 101.832 1228.35 102.936C1228.35 104.041 1227.46 104.936 1226.35 104.936H1211.81C1210.71 104.936 1209.81 104.041 1209.81 102.936ZM1209.81 109.936C1209.81 108.832 1210.71 107.936 1211.81 107.936H1220.73C1221.84 107.936 1222.73 108.832 1222.73 109.936C1222.73 111.041 1221.84 111.936 1220.73 111.936H1211.81C1210.71 111.936 1209.81 111.041 1209.81 109.936Z" fill="white"/>
</svg>
